<ttFont>
    <TTGlyph name=".notdef" xMin="123" yMin="0" xMax="1028" yMax="1581">
      <contour>
        <pt x="123" y="0" on="1"/>
        <pt x="123" y="1581" on="1"/>
        <pt x="1028" y="1581" on="1"/>
        <pt x="1028" y="0" on="1"/>
      </contour>
      <contour>
        <pt x="197" y="61" on="1"/>
        <pt x="954" y="61" on="1"/>
        <pt x="954" y="1520" on="1"/>
        <pt x="197" y="1520" on="1"/>
      </contour>
    </TTGlyph>
    <TTGlyph name=".ttfautohint" xMin="0" yMin="0" xMax="0" yMax="0">
      <contour>
        <pt x="0" y="0" on="1"/>
      </contour>
    </TTGlyph>
    <TTGlyph name="A" xMin="-32" yMin="0" xMax="1380" yMax="1454">
      <contour>
        <pt x="1277" y="104" on="0"/>
        <pt x="1346" y="43" on="0"/>
        <pt x="1380" y="41" on="1"/>
        <pt x="1380" y="0" on="1"/>
        <pt x="1258" y="6" on="0"/>
        <pt x="1069" y="6" on="1"/>
        <pt x="859" y="6" on="0"/>
        <pt x="757" y="0" on="1"/>
        <pt x="757" y="41" on="1"/>
        <pt x="834" y="44" on="0"/>
        <pt x="901" y="76" on="0"/>
        <pt x="901" y="116" on="1"/>
        <pt x="901" y="152" on="0"/>
        <pt x="877" y="213" on="1"/>
        <pt x="754" y="549" on="1"/>
        <pt x="309" y="549" on="1"/>
        <pt x="254" y="407" on="1"/>
        <pt x="198" y="263" on="0"/>
        <pt x="198" y="180" on="1"/>
        <pt x="198" y="104" on="0"/>
        <pt x="289" y="43" on="0"/>
        <pt x="380" y="41" on="1"/>
        <pt x="380" y="0" on="1"/>
        <pt x="240" y="6" on="0"/>
        <pt x="125" y="6" on="1"/>
        <pt x="29" y="6" on="0"/>
        <pt x="-32" y="0" on="1"/>
        <pt x="-32" y="41" on="1"/>
        <pt x="71" y="60" on="0"/>
        <pt x="146" y="256" on="1"/>
        <pt x="612" y="1454" on="1"/>
        <pt x="645" y="1451" on="0"/>
        <pt x="683" y="1451" on="1"/>
        <pt x="721" y="1451" on="0"/>
        <pt x="754" y="1454" on="1"/>
        <pt x="1251" y="172" on="1"/>
      </contour>
      <contour>
        <pt x="536" y="1141" on="1"/>
        <pt x="324" y="590" on="1"/>
        <pt x="739" y="590" on="1"/>
      </contour>
    </TTGlyph>
    <TTGlyph name="AE" xMin="-29" yMin="0" xMax="1728" yMax="1581">
      <contour>
        <pt x="1714" y="122" on="0"/>
        <pt x="1728" y="0" on="1"/>
        <pt x="1594" y="6" on="0"/>
        <pt x="1275" y="6" on="1"/>
        <pt x="885" y="6" on="0"/>
        <pt x="686" y="0" on="1"/>
        <pt x="686" y="41" on="1"/>
        <pt x="748" y="44" on="0"/>
        <pt x="803" y="70" on="0"/>
        <pt x="823" y="140" on="0"/>
        <pt x="823" y="217" on="1"/>
        <pt x="823" y="709" on="1"/>
        <pt x="480" y="709" on="1"/>
        <pt x="190" y="213" on="1"/>
        <pt x="153" y="149" on="0"/>
        <pt x="153" y="113" on="1"/>
        <pt x="153" y="77" on="0"/>
        <pt x="222" y="44" on="0"/>
        <pt x="295" y="41" on="1"/>
        <pt x="295" y="0" on="1"/>
        <pt x="233" y="6" on="0"/>
        <pt x="108" y="6" on="1"/>
        <pt x="22" y="6" on="0"/>
        <pt x="-29" y="0" on="1"/>
        <pt x="-29" y="41" on="1"/>
        <pt x="5" y="43" on="0"/>
        <pt x="71" y="102" on="0"/>
        <pt x="112" y="172" on="1"/>
        <pt x="808" y="1354" on="1"/>
        <pt x="794" y="1384" on="0"/>
        <pt x="734" y="1406" on="0"/>
        <pt x="669" y="1409" on="1"/>
        <pt x="669" y="1450" on="1"/>
        <pt x="729" y="1448" on="0"/>
        <pt x="863" y="1446" on="1"/>
        <pt x="942" y="1581" on="1"/>
        <pt x="991" y="1581" on="1"/>
        <pt x="912" y="1446" on="1"/>
        <pt x="1056" y="1444" on="0"/>
        <pt x="1275" y="1444" on="1"/>
        <pt x="1565" y="1444" on="0"/>
        <pt x="1687" y="1450" on="1"/>
        <pt x="1673" y="1295" on="0"/>
        <pt x="1673" y="1171" on="1"/>
        <pt x="1673" y="1082" on="0"/>
        <pt x="1679" y="1032" on="1"/>
        <pt x="1632" y="1032" on="1"/>
        <pt x="1615" y="1170" on="0"/>
        <pt x="1547" y="1333" on="0"/>
        <pt x="1444" y="1403" on="0"/>
        <pt x="1370" y="1403" on="1"/>
        <pt x="1302" y="1403" on="1"/>
        <pt x="1234" y="1403" on="0"/>
        <pt x="1172" y="1379" on="0"/>
        <pt x="1149" y="1310" on="0"/>
        <pt x="1149" y="1233" on="1"/>
        <pt x="1149" y="750" on="1"/>
        <pt x="1257" y="750" on="1"/>
        <pt x="1317" y="750" on="0"/>
        <pt x="1388" y="817" on="0"/>
        <pt x="1418" y="903" on="0"/>
        <pt x="1431" y="968" on="1"/>
        <pt x="1435" y="991" on="1"/>
        <pt x="1482" y="991" on="1"/>
        <pt x="1475" y="900" on="0"/>
        <pt x="1475" y="817" on="1"/>
        <pt x="1476" y="729" on="1"/>
        <pt x="1476" y="636" on="0"/>
        <pt x="1488" y="467" on="1"/>
        <pt x="1441" y="467" on="1"/>
        <pt x="1429" y="543" on="0"/>
        <pt x="1398" y="642" on="0"/>
        <pt x="1323" y="709" on="0"/>
        <pt x="1257" y="709" on="1"/>
        <pt x="1149" y="709" on="1"/>
        <pt x="1149" y="217" on="1"/>
        <pt x="1149" y="140" on="0"/>
        <pt x="1172" y="71" on="0"/>
        <pt x="1234" y="47" on="0"/>
        <pt x="1302" y="47" on="1"/>
        <pt x="1402" y="47" on="1"/>
        <pt x="1515" y="47" on="0"/>
        <pt x="1651" y="236" on="0"/>
        <pt x="1673" y="459" on="1"/>
        <pt x="1720" y="459" on="1"/>
        <pt x="1714" y="393" on="0"/>
        <pt x="1714" y="287" on="1"/>
      </contour>
      <contour>
        <pt x="823" y="1233" on="1"/>
        <pt x="823" y="1257" on="0"/>
        <pt x="821" y="1291" on="1"/>
        <pt x="504" y="750" on="1"/>
        <pt x="823" y="750" on="1"/>
      </contour>
    </TTGlyph>
    <TTGlyph name="Aacute" xMin="-32" yMin="0" xMax="1380" yMax="1928">
      <component glyphName=".ttfautohint" x="0" y="0" flags="0x0"/>
      <component glyphName="A" x="0" y="0" flags="0x0"/>
      <component glyphName="acute.case" x="514" y="0" flags="0x0"/>
    </TTGlyph>
    <TTGlyph name="Abreve" xMin="-32" yMin="0" xMax="1380" yMax="1875">
      <component glyphName=".ttfautohint" x="0" y="0" flags="0x0"/>
      <component glyphName="A" x="0" y="0" flags="0x0"/>
      <component glyphName="breve.case" x="221" y="0" flags="0x0"/>
    </TTGlyph>
    <TTGlyph name="Acircumflex" xMin="-32" yMin="0" xMax="1380" yMax="1925">
      <component glyphName=".ttfautohint" x="0" y="0" flags="0x0"/>
      <component glyphName="A" x="0" y="0" flags="0x0"/>
      <component glyphName="circumflex.case" x="248" y="0" flags="0x0"/>
    </TTGlyph>
    <TTGlyph name="Adieresis" xMin="-32" yMin="0" xMax="1380" yMax="1878">
      <component glyphName=".ttfautohint" x="0" y="0" flags="0x0"/>
      <component glyphName="A" x="0" y="0" flags="0x0"/>
      <component glyphName="dieresis.case" x="293" y="0" flags="0x0"/>
    </TTGlyph>
    <TTGlyph name="Agrave" xMin="-32" yMin="0" xMax="1380" yMax="1928">
      <component glyphName=".ttfautohint" x="0" y="0" flags="0x0"/>
      <component glyphName="A" x="0" y="0" flags="0x0"/>
      <component glyphName="grave.case" x="295" y="0" flags="0x0"/>
    </TTGlyph>
    <TTGlyph name="Amacron" xMin="-32" yMin="0" xMax="1380" yMax="1729">
      <component glyphName=".ttfautohint" x="0" y="0" flags="0x0"/>
      <component glyphName="A" x="0" y="0" flags="0x0"/>
      <component glyphName="macron.case" x="268" y="0" flags="0x0"/>
    </TTGlyph>
    <TTGlyph name="Aogonek" xMin="-32" yMin="-385" xMax="1380" yMax="1454">
      <contour>
        <pt x="1233" y="-34" on="0"/>
        <pt x="1132" y="-138" on="0"/>
        <pt x="1132" y="-189" on="1"/>
        <pt x="1132" y="-272" on="0"/>
        <pt x="1216" y="-272" on="1"/>
        <pt x="1251" y="-272" on="0"/>
        <pt x="1325" y="-240" on="0"/>
        <pt x="1347" y="-217" on="1"/>
        <pt x="1376" y="-246" on="1"/>
        <pt x="1321" y="-319" on="0"/>
        <pt x="1187" y="-385" on="0"/>
        <pt x="1095" y="-385" on="1"/>
        <pt x="1006" y="-385" on="0"/>
        <pt x="909" y="-311" on="0"/>
        <pt x="909" y="-245" on="1"/>
        <pt x="909" y="-162" on="0"/>
        <pt x="1096" y="-34" on="0"/>
        <pt x="1267" y="4" on="1"/>
        <pt x="1143" y="6" on="0"/>
        <pt x="1069" y="6" on="1"/>
        <pt x="859" y="6" on="0"/>
        <pt x="757" y="0" on="1"/>
        <pt x="757" y="41" on="1"/>
        <pt x="834" y="44" on="0"/>
        <pt x="901" y="76" on="0"/>
        <pt x="901" y="116" on="1"/>
        <pt x="901" y="152" on="0"/>
        <pt x="877" y="213" on="1"/>
        <pt x="754" y="549" on="1"/>
        <pt x="309" y="549" on="1"/>
        <pt x="254" y="407" on="1"/>
        <pt x="198" y="263" on="0"/>
        <pt x="198" y="180" on="1"/>
        <pt x="198" y="104" on="0"/>
        <pt x="289" y="43" on="0"/>
        <pt x="380" y="41" on="1"/>
        <pt x="380" y="0" on="1"/>
        <pt x="241" y="6" on="0"/>
        <pt x="125" y="6" on="1"/>
        <pt x="30" y="6" on="0"/>
        <pt x="-32" y="0" on="1"/>
        <pt x="-32" y="41" on="1"/>
        <pt x="71" y="60" on="0"/>
        <pt x="146" y="256" on="1"/>
        <pt x="612" y="1454" on="1"/>
        <pt x="645" y="1451" on="0"/>
        <pt x="683" y="1451" on="1"/>
        <pt x="721" y="1451" on="0"/>
        <pt x="754" y="1454" on="1"/>
        <pt x="1251" y="172" on="1"/>
        <pt x="1277" y="104" on="0"/>
        <pt x="1346" y="43" on="0"/>
        <pt x="1380" y="41" on="1"/>
        <pt x="1380" y="0" on="1"/>
        <pt x="1341" y="2" on="1"/>
      </contour>
      <contour>
        <pt x="536" y="1141" on="1"/>
        <pt x="324" y="590" on="1"/>
        <pt x="739" y="590" on="1"/>
      </contour>
    </TTGlyph>
    <TTGlyph name="Aring" xMin="-32" yMin="0" xMax="1380" yMax="1919">
      <component glyphName=".ttfautohint" x="0" y="0" flags="0x0"/>
      <component glyphName="A" x="0" y="0" flags="0x0"/>
      <component glyphName="ring.case" x="412" y="0" flags="0x0"/>
    </TTGlyph>
    <TTGlyph name="Atilde" xMin="-32" yMin="0" xMax="1380" yMax="1892">
      <component glyphName=".ttfautohint" x="0" y="0" flags="0x0"/>
      <component glyphName="A" x="0" y="0" flags="0x0"/>
      <component glyphName="tilde.case" x="195" y="0" flags="0x0"/>
    </TTGlyph>
    <TTGlyph name="B" xMin="69" yMin="0" xMax="1314" yMax="1450">
      <contour>
        <pt x="981" y="748" on="0"/>
        <pt x="1211" y="641" on="0"/>
        <pt x="1314" y="486" on="0"/>
        <pt x="1314" y="397" on="1"/>
        <pt x="1314" y="270" on="0"/>
        <pt x="1179" y="91" on="0"/>
        <pt x="925" y="0" on="0"/>
        <pt x="749" y="0" on="1"/>
        <pt x="650" y="2" on="1"/>
        <pt x="514" y="6" on="0"/>
        <pt x="384" y="6" on="1"/>
        <pt x="173" y="6" on="0"/>
        <pt x="69" y="0" on="1"/>
        <pt x="69" y="41" on="1"/>
        <pt x="138" y="44" on="0"/>
        <pt x="199" y="70" on="0"/>
        <pt x="222" y="140" on="0"/>
        <pt x="222" y="217" on="1"/>
        <pt x="222" y="1233" on="1"/>
        <pt x="222" y="1310" on="0"/>
        <pt x="199" y="1380" on="0"/>
        <pt x="137" y="1406" on="0"/>
        <pt x="69" y="1409" on="1"/>
        <pt x="69" y="1450" on="1"/>
        <pt x="173" y="1444" on="0"/>
        <pt x="380" y="1444" on="1"/>
        <pt x="418" y="1444" on="0"/>
        <pt x="610" y="1447" on="1"/>
        <pt x="702" y="1448" on="1"/>
        <pt x="867" y="1448" on="0"/>
        <pt x="1094" y="1367" on="0"/>
        <pt x="1208" y="1222" on="0"/>
        <pt x="1208" y="1126" on="1"/>
        <pt x="1208" y="1050" on="0"/>
        <pt x="1120" y="904" on="0"/>
        <pt x="935" y="791" on="0"/>
        <pt x="799" y="766" on="1"/>
        <pt x="799" y="762" on="1"/>
      </contour>
      <contour>
        <pt x="621" y="1409" on="0"/>
        <pt x="568" y="1380" on="0"/>
        <pt x="548" y="1306" on="0"/>
        <pt x="548" y="1233" on="1"/>
        <pt x="548" y="770" on="1"/>
        <pt x="636" y="770" on="1"/>
        <pt x="770" y="770" on="0"/>
        <pt x="876" y="952" on="0"/>
        <pt x="876" y="1104" on="1"/>
        <pt x="876" y="1258" on="0"/>
        <pt x="781" y="1409" on="0"/>
        <pt x="675" y="1409" on="1"/>
      </contour>
      <contour>
        <pt x="836" y="47" on="0"/>
        <pt x="974" y="229" on="0"/>
        <pt x="974" y="406" on="1"/>
        <pt x="974" y="567" on="0"/>
        <pt x="811" y="735" on="0"/>
        <pt x="634" y="735" on="1"/>
        <pt x="548" y="735" on="1"/>
        <pt x="548" y="217" on="1"/>
        <pt x="548" y="143" on="0"/>
        <pt x="570" y="73" on="0"/>
        <pt x="628" y="47" on="0"/>
        <pt x="689" y="47" on="1"/>
      </contour>
    </TTGlyph>
    <TTGlyph name="C" xMin="88" yMin="-29" xMax="1329" yMax="1479">
      <contour>
        <pt x="935" y="1479" on="0"/>
        <pt x="1107" y="1409" on="0"/>
        <pt x="1189" y="1346" on="1"/>
        <pt x="1211" y="1328" on="0"/>
        <pt x="1229" y="1328" on="1"/>
        <pt x="1270" y="1328" on="0"/>
        <pt x="1282" y="1450" on="1"/>
        <pt x="1329" y="1450" on="1"/>
        <pt x="1321" y="1310" on="0"/>
        <pt x="1321" y="954" on="1"/>
        <pt x="1273" y="954" on="1"/>
        <pt x="1261" y="1057" on="0"/>
        <pt x="1230" y="1185" on="0"/>
        <pt x="1171" y="1284" on="0"/>
        <pt x="1119" y="1325" on="1"/>
        <pt x="1069" y="1374" on="0"/>
        <pt x="934" y="1426" on="0"/>
        <pt x="860" y="1426" on="1"/>
        <pt x="720" y="1426" on="0"/>
        <pt x="537" y="1232" on="0"/>
        <pt x="452" y="913" on="0"/>
        <pt x="452" y="721" on="1"/>
        <pt x="452" y="529" on="0"/>
        <pt x="541" y="212" on="0"/>
        <pt x="728" y="21" on="0"/>
        <pt x="868" y="21" on="1"/>
        <pt x="938" y="21" on="0"/>
        <pt x="1075" y="72" on="0"/>
        <pt x="1123" y="120" on="1"/>
        <pt x="1175" y="160" on="0"/>
        <pt x="1233" y="266" on="0"/>
        <pt x="1263" y="406" on="0"/>
        <pt x="1273" y="516" on="1"/>
        <pt x="1321" y="516" on="1"/>
        <pt x="1321" y="145" on="0"/>
        <pt x="1329" y="0" on="1"/>
        <pt x="1282" y="0" on="1"/>
        <pt x="1276" y="64" on="0"/>
        <pt x="1253" y="121" on="0"/>
        <pt x="1232" y="121" on="1"/>
        <pt x="1215" y="121" on="0"/>
        <pt x="1189" y="104" on="1"/>
        <pt x="1129" y="61" on="0"/>
        <pt x="1026" y="6" on="0"/>
        <pt x="894" y="-29" on="0"/>
        <pt x="811" y="-29" on="1"/>
        <pt x="594" y="-29" on="0"/>
        <pt x="267" y="147" on="0"/>
        <pt x="88" y="482" on="0"/>
        <pt x="88" y="713" on="1"/>
        <pt x="88" y="939" on="0"/>
        <pt x="272" y="1287" on="0"/>
        <pt x="602" y="1479" on="0"/>
        <pt x="813" y="1479" on="1"/>
      </contour>
    </TTGlyph>
    <TTGlyph name="Cacute" xMin="88" yMin="-29" xMax="1329" yMax="1928">
      <component glyphName=".ttfautohint" x="88" y="0" flags="0x0"/>
      <component glyphName="C" x="0" y="0" flags="0x0"/>
      <component glyphName="acute.case" x="610" y="0" flags="0x0"/>
    </TTGlyph>
    <TTGlyph name="Cacute.loclPLK" xMin="88" yMin="-29" xMax="1329" yMax="1964">
      <component glyphName=".ttfautohint" x="88" y="0" flags="0x0"/>
      <component glyphName="C" x="0" y="0" flags="0x0"/>
      <component glyphName="acute.loclPLK.case" x="667" y="0" flags="0x0"/>
    </TTGlyph>
    <TTGlyph name="Ccaron" xMin="88" yMin="-29" xMax="1329" yMax="1921">
      <component glyphName=".ttfautohint" x="88" y="0" flags="0x0"/>
      <component glyphName="C" x="0" y="0" flags="0x0"/>
      <component glyphName="caron.case" x="338" y="0" flags="0x0"/>
    </TTGlyph>
    <TTGlyph name="Ccedilla" xMin="88" yMin="-385" xMax="1329" yMax="1479">
      <contour>
        <pt x="1321" y="145" on="0"/>
        <pt x="1329" y="0" on="1"/>
        <pt x="1282" y="0" on="1"/>
        <pt x="1276" y="64" on="0"/>
        <pt x="1253" y="121" on="0"/>
        <pt x="1232" y="121" on="1"/>
        <pt x="1215" y="121" on="0"/>
        <pt x="1189" y="104" on="1"/>
        <pt x="1131" y="63" on="0"/>
        <pt x="1034" y="9" on="0"/>
        <pt x="910" y="-27" on="0"/>
        <pt x="833" y="-29" on="1"/>
        <pt x="800" y="-133" on="1"/>
        <pt x="870" y="-109" on="0"/>
        <pt x="958" y="-109" on="1"/>
        <pt x="1031" y="-109" on="0"/>
        <pt x="1111" y="-168" on="0"/>
        <pt x="1111" y="-218" on="1"/>
        <pt x="1111" y="-301" on="0"/>
        <pt x="928" y="-385" on="0"/>
        <pt x="787" y="-385" on="1"/>
        <pt x="670" y="-385" on="0"/>
        <pt x="597" y="-360" on="1"/>
        <pt x="607" y="-323" on="1"/>
        <pt x="667" y="-332" on="0"/>
        <pt x="710" y="-332" on="1"/>
        <pt x="785" y="-332" on="0"/>
        <pt x="896" y="-291" on="0"/>
        <pt x="896" y="-248" on="1"/>
        <pt x="896" y="-195" on="0"/>
        <pt x="803" y="-195" on="1"/>
        <pt x="756" y="-195" on="0"/>
        <pt x="722" y="-209" on="1"/>
        <pt x="778" y="-28" on="1"/>
        <pt x="570" y="-21" on="0"/>
        <pt x="258" y="158" on="0"/>
        <pt x="88" y="488" on="0"/>
        <pt x="88" y="713" on="1"/>
        <pt x="88" y="939" on="0"/>
        <pt x="272" y="1287" on="0"/>
        <pt x="602" y="1479" on="0"/>
        <pt x="813" y="1479" on="1"/>
        <pt x="935" y="1479" on="0"/>
        <pt x="1107" y="1409" on="0"/>
        <pt x="1189" y="1346" on="1"/>
        <pt x="1211" y="1328" on="0"/>
        <pt x="1229" y="1328" on="1"/>
        <pt x="1270" y="1328" on="0"/>
        <pt x="1282" y="1450" on="1"/>
        <pt x="1329" y="1450" on="1"/>
        <pt x="1321" y="1310" on="0"/>
        <pt x="1321" y="954" on="1"/>
        <pt x="1273" y="954" on="1"/>
        <pt x="1261" y="1057" on="0"/>
        <pt x="1230" y="1185" on="0"/>
        <pt x="1171" y="1284" on="0"/>
        <pt x="1119" y="1325" on="1"/>
        <pt x="1069" y="1374" on="0"/>
        <pt x="934" y="1426" on="0"/>
        <pt x="860" y="1426" on="1"/>
        <pt x="720" y="1426" on="0"/>
        <pt x="537" y="1232" on="0"/>
        <pt x="452" y="913" on="0"/>
        <pt x="452" y="721" on="1"/>
        <pt x="452" y="529" on="0"/>
        <pt x="541" y="212" on="0"/>
        <pt x="728" y="21" on="0"/>
        <pt x="868" y="21" on="1"/>
        <pt x="938" y="21" on="0"/>
        <pt x="1075" y="72" on="0"/>
        <pt x="1123" y="120" on="1"/>
        <pt x="1175" y="160" on="0"/>
        <pt x="1233" y="266" on="0"/>
        <pt x="1263" y="406" on="0"/>
        <pt x="1273" y="516" on="1"/>
        <pt x="1321" y="516" on="1"/>
      </contour>
    </TTGlyph>
    <TTGlyph name="Ccircumflex" xMin="88" yMin="-29" xMax="1329" yMax="1925">
      <component glyphName=".ttfautohint" x="88" y="0" flags="0x0"/>
      <component glyphName="C" x="0" y="0" flags="0x0"/>
      <component glyphName="circumflex.case" x="344" y="0" flags="0x0"/>
    </TTGlyph>
    <TTGlyph name="Cdotaccent" xMin="88" yMin="-29" xMax="1329" yMax="1883">
      <component glyphName=".ttfautohint" x="88" y="0" flags="0x0"/>
      <component glyphName="C" x="0" y="0" flags="0x0"/>
      <component glyphName="dotaccent.case" x="588" y="0" flags="0x0"/>
    </TTGlyph>
    <TTGlyph name="D" xMin="69" yMin="0" xMax="1498" yMax="1450">
      <contour>
        <pt x="1101" y="1450" on="0"/>
        <pt x="1498" y="1088" on="0"/>
        <pt x="1498" y="741" on="1"/>
        <pt x="1498" y="518" on="0"/>
        <pt x="1304" y="183" on="0"/>
        <pt x="937" y="0" on="0"/>
        <pt x="683" y="0" on="1"/>
        <pt x="633" y="0" on="0"/>
        <pt x="559" y="3" on="1"/>
        <pt x="379" y="6" on="0"/>
        <pt x="384" y="6" on="1"/>
        <pt x="173" y="6" on="0"/>
        <pt x="69" y="0" on="1"/>
        <pt x="69" y="41" on="1"/>
        <pt x="138" y="44" on="0"/>
        <pt x="199" y="70" on="0"/>
        <pt x="222" y="140" on="0"/>
        <pt x="222" y="217" on="1"/>
        <pt x="222" y="1233" on="1"/>
        <pt x="222" y="1310" on="0"/>
        <pt x="199" y="1380" on="0"/>
        <pt x="137" y="1406" on="0"/>
        <pt x="69" y="1409" on="1"/>
        <pt x="69" y="1450" on="1"/>
        <pt x="200" y="1443" on="0"/>
        <pt x="316" y="1443" on="1"/>
        <pt x="380" y="1444" on="1"/>
        <pt x="468" y="1446" on="1"/>
        <pt x="634" y="1450" on="0"/>
        <pt x="702" y="1450" on="1"/>
      </contour>
      <contour>
        <pt x="636" y="1413" on="0"/>
        <pt x="572" y="1384" on="0"/>
        <pt x="548" y="1310" on="0"/>
        <pt x="548" y="1237" on="1"/>
        <pt x="548" y="213" on="1"/>
        <pt x="548" y="139" on="0"/>
        <pt x="572" y="66" on="0"/>
        <pt x="637" y="37" on="0"/>
        <pt x="702" y="37" on="1"/>
        <pt x="871" y="37" on="0"/>
        <pt x="1072" y="196" on="0"/>
        <pt x="1158" y="501" on="0"/>
        <pt x="1158" y="733" on="1"/>
        <pt x="1158" y="967" on="0"/>
        <pt x="1066" y="1265" on="0"/>
        <pt x="864" y="1413" on="0"/>
        <pt x="700" y="1413" on="1"/>
      </contour>
    </TTGlyph>
    <TTGlyph name="Dcaron" xMin="69" yMin="0" xMax="1498" yMax="1921">
      <component glyphName=".ttfautohint" x="69" y="0" flags="0x0"/>
      <component glyphName="D" x="0" y="0" flags="0x0"/>
      <component glyphName="caron.case" x="264" y="0" flags="0x0"/>
    </TTGlyph>
    <TTGlyph name="Dcroat" xMin="70" yMin="0" xMax="1499" yMax="1450">
      <contour>
        <pt x="1102" y="1450" on="0"/>
        <pt x="1499" y="1088" on="0"/>
        <pt x="1499" y="741" on="1"/>
        <pt x="1499" y="518" on="0"/>
        <pt x="1305" y="183" on="0"/>
        <pt x="938" y="0" on="0"/>
        <pt x="684" y="0" on="1"/>
        <pt x="634" y="0" on="0"/>
        <pt x="560" y="3" on="1"/>
        <pt x="380" y="6" on="0"/>
        <pt x="385" y="6" on="1"/>
        <pt x="174" y="6" on="0"/>
        <pt x="70" y="0" on="1"/>
        <pt x="70" y="41" on="1"/>
        <pt x="139" y="44" on="0"/>
        <pt x="200" y="70" on="0"/>
        <pt x="223" y="140" on="0"/>
        <pt x="223" y="217" on="1"/>
        <pt x="223" y="709" on="1"/>
        <pt x="70" y="709" on="1"/>
        <pt x="70" y="750" on="1"/>
        <pt x="223" y="750" on="1"/>
        <pt x="223" y="1233" on="1"/>
        <pt x="223" y="1310" on="0"/>
        <pt x="200" y="1380" on="0"/>
        <pt x="138" y="1406" on="0"/>
        <pt x="70" y="1409" on="1"/>
        <pt x="70" y="1450" on="1"/>
        <pt x="201" y="1443" on="0"/>
        <pt x="317" y="1443" on="1"/>
        <pt x="381" y="1444" on="1"/>
        <pt x="469" y="1446" on="1"/>
        <pt x="635" y="1450" on="0"/>
        <pt x="703" y="1450" on="1"/>
      </contour>
      <contour>
        <pt x="872" y="37" on="0"/>
        <pt x="1073" y="196" on="0"/>
        <pt x="1159" y="501" on="0"/>
        <pt x="1159" y="733" on="1"/>
        <pt x="1159" y="967" on="0"/>
        <pt x="1067" y="1265" on="0"/>
        <pt x="865" y="1413" on="0"/>
        <pt x="701" y="1413" on="1"/>
        <pt x="637" y="1413" on="0"/>
        <pt x="573" y="1384" on="0"/>
        <pt x="549" y="1310" on="0"/>
        <pt x="549" y="1237" on="1"/>
        <pt x="549" y="750" on="1"/>
        <pt x="803" y="750" on="1"/>
        <pt x="803" y="709" on="1"/>
        <pt x="549" y="709" on="1"/>
        <pt x="549" y="213" on="1"/>
        <pt x="549" y="139" on="0"/>
        <pt x="573" y="66" on="0"/>
        <pt x="638" y="37" on="0"/>
        <pt x="703" y="37" on="1"/>
      </contour>
    </TTGlyph>
    <TTGlyph name="Delta" xMin="55" yMin="0" xMax="960" yMax="1479">
      <contour>
        <pt x="737" y="6" on="0"/>
        <pt x="510" y="6" on="1"/>
        <pt x="282" y="6" on="0"/>
        <pt x="55" y="0" on="1"/>
        <pt x="532" y="1479" on="1"/>
        <pt x="565" y="1479" on="1"/>
        <pt x="960" y="0" on="1"/>
      </contour>
      <contour>
        <pt x="650" y="61" on="1"/>
        <pt x="404" y="963" on="1"/>
        <pt x="116" y="61" on="1"/>
      </contour>
    </TTGlyph>
    <TTGlyph name="E" xMin="69" yMin="0" xMax="1205" yMax="1450">
      <contour>
        <pt x="1191" y="144" on="0"/>
        <pt x="1205" y="0" on="1"/>
        <pt x="1066" y="6" on="0"/>
        <pt x="736" y="6" on="1"/>
        <pt x="292" y="6" on="0"/>
        <pt x="69" y="0" on="1"/>
        <pt x="69" y="41" on="1"/>
        <pt x="138" y="44" on="0"/>
        <pt x="199" y="70" on="0"/>
        <pt x="222" y="140" on="0"/>
        <pt x="222" y="217" on="1"/>
        <pt x="222" y="1233" on="1"/>
        <pt x="222" y="1310" on="0"/>
        <pt x="199" y="1380" on="0"/>
        <pt x="137" y="1406" on="0"/>
        <pt x="69" y="1409" on="1"/>
        <pt x="69" y="1450" on="1"/>
        <pt x="292" y="1444" on="0"/>
        <pt x="736" y="1444" on="1"/>
        <pt x="1038" y="1444" on="0"/>
        <pt x="1164" y="1450" on="1"/>
        <pt x="1150" y="1281" on="0"/>
        <pt x="1150" y="1147" on="1"/>
        <pt x="1150" y="1058" on="0"/>
        <pt x="1156" y="1008" on="1"/>
        <pt x="1109" y="1008" on="1"/>
        <pt x="1089" y="1156" on="0"/>
        <pt x="1003" y="1329" on="0"/>
        <pt x="870" y="1403" on="0"/>
        <pt x="773" y="1403" on="1"/>
        <pt x="689" y="1403" on="1"/>
        <pt x="626" y="1403" on="0"/>
        <pt x="569" y="1383" on="0"/>
        <pt x="548" y="1323" on="0"/>
        <pt x="548" y="1257" on="1"/>
        <pt x="548" y="750" on="1"/>
        <pt x="614" y="750" on="1"/>
        <pt x="724" y="750" on="0"/>
        <pt x="836" y="910" on="0"/>
        <pt x="858" y="1020" on="1"/>
        <pt x="905" y="1020" on="1"/>
        <pt x="898" y="919" on="0"/>
        <pt x="898" y="827" on="1"/>
        <pt x="899" y="729" on="1"/>
        <pt x="899" y="625" on="0"/>
        <pt x="911" y="438" on="1"/>
        <pt x="864" y="438" on="1"/>
        <pt x="824" y="709" on="0"/>
        <pt x="614" y="709" on="1"/>
        <pt x="548" y="709" on="1"/>
        <pt x="548" y="193" on="1"/>
        <pt x="548" y="127" on="0"/>
        <pt x="569" y="67" on="0"/>
        <pt x="626" y="47" on="0"/>
        <pt x="689" y="47" on="1"/>
        <pt x="790" y="47" on="1"/>
        <pt x="886" y="47" on="0"/>
        <pt x="1027" y="130" on="0"/>
        <pt x="1125" y="322" on="0"/>
        <pt x="1150" y="483" on="1"/>
        <pt x="1197" y="483" on="1"/>
        <pt x="1191" y="417" on="0"/>
        <pt x="1191" y="311" on="1"/>
      </contour>
    </TTGlyph>
    <TTGlyph name="Eacute" xMin="69" yMin="0" xMax="1205" yMax="1928">
      <component glyphName=".ttfautohint" x="69" y="0" flags="0x0"/>
      <component glyphName="E" x="0" y="0" flags="0x0"/>
      <component glyphName="acute.case" x="478" y="0" flags="0x0"/>
    </TTGlyph>
    <TTGlyph name="Ebreve" xMin="69" yMin="0" xMax="1205" yMax="1875">
      <component glyphName=".ttfautohint" x="69" y="0" flags="0x0"/>
      <component glyphName="E" x="0" y="0" flags="0x0"/>
      <component glyphName="breve.case" x="185" y="0" flags="0x0"/>
    </TTGlyph>
    <TTGlyph name="Ecaron" xMin="69" yMin="0" xMax="1205" yMax="1921">
      <component glyphName=".ttfautohint" x="69" y="0" flags="0x0"/>
      <component glyphName="E" x="0" y="0" flags="0x0"/>
      <component glyphName="caron.case" x="206" y="0" flags="0x0"/>
    </TTGlyph>
    <TTGlyph name="Ecircumflex" xMin="69" yMin="0" xMax="1205" yMax="1925">
      <component glyphName=".ttfautohint" x="69" y="0" flags="0x0"/>
      <component glyphName="E" x="0" y="0" flags="0x0"/>
      <component glyphName="circumflex.case" x="212" y="0" flags="0x0"/>
    </TTGlyph>
    <TTGlyph name="Edieresis" xMin="69" yMin="0" xMax="1205" yMax="1878">
      <component glyphName=".ttfautohint" x="69" y="0" flags="0x0"/>
      <component glyphName="E" x="0" y="0" flags="0x0"/>
      <component glyphName="dieresis.case" x="257" y="0" flags="0x0"/>
    </TTGlyph>
    <TTGlyph name="Edotaccent" xMin="69" yMin="0" xMax="1205" yMax="1883">
      <component glyphName=".ttfautohint" x="69" y="0" flags="0x0"/>
      <component glyphName="E" x="0" y="0" flags="0x0"/>
      <component glyphName="dotaccent.case" x="456" y="0" flags="0x0"/>
    </TTGlyph>
    <TTGlyph name="Egrave" xMin="69" yMin="0" xMax="1205" yMax="1928">
      <component glyphName=".ttfautohint" x="69" y="0" flags="0x0"/>
      <component glyphName="E" x="0" y="0" flags="0x0"/>
      <component glyphName="grave.case" x="259" y="0" flags="0x0"/>
    </TTGlyph>
    <TTGlyph name="Emacron" xMin="69" yMin="0" xMax="1205" yMax="1729">
      <component glyphName=".ttfautohint" x="69" y="0" flags="0x0"/>
      <component glyphName="E" x="0" y="0" flags="0x0"/>
      <component glyphName="macron.case" x="232" y="0" flags="0x0"/>
    </TTGlyph>
    <TTGlyph name="Eng" xMin="69" yMin="-385" xMax="1416" yMax="1450">
      <contour>
        <pt x="1353" y="1444" on="0"/>
        <pt x="1416" y="1450" on="1"/>
        <pt x="1416" y="1409" on="1"/>
        <pt x="1348" y="1406" on="0"/>
        <pt x="1286" y="1380" on="0"/>
        <pt x="1263" y="1310" on="0"/>
        <pt x="1263" y="1233" on="1"/>
        <pt x="1263" y="131" on="1"/>
        <pt x="1263" y="-73" on="0"/>
        <pt x="1192" y="-299" on="0"/>
        <pt x="1064" y="-385" on="0"/>
        <pt x="966" y="-385" on="1"/>
        <pt x="860" y="-385" on="0"/>
        <pt x="729" y="-304" on="0"/>
        <pt x="729" y="-221" on="1"/>
        <pt x="729" y="-157" on="0"/>
        <pt x="816" y="-83" on="0"/>
        <pt x="888" y="-83" on="1"/>
        <pt x="955" y="-83" on="0"/>
        <pt x="1039" y="-152" on="0"/>
        <pt x="1039" y="-210" on="1"/>
        <pt x="1039" y="-252" on="0"/>
        <pt x="992" y="-325" on="0"/>
        <pt x="947" y="-344" on="1"/>
        <pt x="965" y="-347" on="0"/>
        <pt x="988" y="-347" on="1"/>
        <pt x="1095" y="-347" on="0"/>
        <pt x="1204" y="-175" on="0"/>
        <pt x="1214" y="-2" on="1"/>
        <pt x="1198" y="-2" on="0"/>
        <pt x="1158" y="-4" on="1"/>
        <pt x="270" y="1122" on="1"/>
        <pt x="270" y="217" on="1"/>
        <pt x="270" y="140" on="0"/>
        <pt x="295" y="70" on="0"/>
        <pt x="361" y="44" on="0"/>
        <pt x="435" y="41" on="1"/>
        <pt x="435" y="0" on="1"/>
        <pt x="362" y="6" on="0"/>
        <pt x="247" y="6" on="1"/>
        <pt x="132" y="6" on="0"/>
        <pt x="69" y="0" on="1"/>
        <pt x="69" y="41" on="1"/>
        <pt x="137" y="44" on="0"/>
        <pt x="199" y="70" on="0"/>
        <pt x="222" y="140" on="0"/>
        <pt x="222" y="217" on="1"/>
        <pt x="222" y="1233" on="1"/>
        <pt x="222" y="1310" on="0"/>
        <pt x="199" y="1380" on="0"/>
        <pt x="137" y="1406" on="0"/>
        <pt x="69" y="1409" on="1"/>
        <pt x="69" y="1450" on="1"/>
        <pt x="132" y="1444" on="0"/>
        <pt x="247" y="1444" on="1"/>
        <pt x="358" y="1444" on="0"/>
        <pt x="435" y="1450" on="1"/>
        <pt x="1216" y="490" on="1"/>
        <pt x="1216" y="1233" on="1"/>
        <pt x="1216" y="1310" on="0"/>
        <pt x="1191" y="1380" on="0"/>
        <pt x="1124" y="1406" on="0"/>
        <pt x="1050" y="1409" on="1"/>
        <pt x="1050" y="1450" on="1"/>
        <pt x="1124" y="1444" on="0"/>
        <pt x="1238" y="1444" on="1"/>
      </contour>
    </TTGlyph>
    <TTGlyph name="Eogonek" xMin="69" yMin="-385" xMax="1221" yMax="1450">
      <contour>
        <pt x="1166" y="-319" on="0"/>
        <pt x="1032" y="-385" on="0"/>
        <pt x="940" y="-385" on="1"/>
        <pt x="851" y="-385" on="0"/>
        <pt x="754" y="-311" on="0"/>
        <pt x="754" y="-245" on="1"/>
        <pt x="754" y="-162" on="0"/>
        <pt x="940" y="-34" on="0"/>
        <pt x="1109" y="3" on="1"/>
        <pt x="986" y="6" on="0"/>
        <pt x="736" y="6" on="1"/>
        <pt x="292" y="6" on="0"/>
        <pt x="69" y="0" on="1"/>
        <pt x="69" y="41" on="1"/>
        <pt x="138" y="44" on="0"/>
        <pt x="199" y="70" on="0"/>
        <pt x="222" y="140" on="0"/>
        <pt x="222" y="217" on="1"/>
        <pt x="222" y="1233" on="1"/>
        <pt x="222" y="1310" on="0"/>
        <pt x="199" y="1380" on="0"/>
        <pt x="137" y="1406" on="0"/>
        <pt x="69" y="1409" on="1"/>
        <pt x="69" y="1450" on="1"/>
        <pt x="292" y="1444" on="0"/>
        <pt x="736" y="1444" on="1"/>
        <pt x="1038" y="1444" on="0"/>
        <pt x="1164" y="1450" on="1"/>
        <pt x="1150" y="1281" on="0"/>
        <pt x="1150" y="1147" on="1"/>
        <pt x="1150" y="1057" on="0"/>
        <pt x="1156" y="1008" on="1"/>
        <pt x="1109" y="1008" on="1"/>
        <pt x="1089" y="1156" on="0"/>
        <pt x="1003" y="1329" on="0"/>
        <pt x="870" y="1403" on="0"/>
        <pt x="773" y="1403" on="1"/>
        <pt x="689" y="1403" on="1"/>
        <pt x="626" y="1403" on="0"/>
        <pt x="569" y="1383" on="0"/>
        <pt x="548" y="1323" on="0"/>
        <pt x="548" y="1257" on="1"/>
        <pt x="548" y="750" on="1"/>
        <pt x="614" y="750" on="1"/>
        <pt x="724" y="750" on="0"/>
        <pt x="836" y="910" on="0"/>
        <pt x="858" y="1020" on="1"/>
        <pt x="905" y="1020" on="1"/>
        <pt x="898" y="919" on="0"/>
        <pt x="898" y="827" on="1"/>
        <pt x="899" y="729" on="1"/>
        <pt x="899" y="625" on="0"/>
        <pt x="911" y="438" on="1"/>
        <pt x="864" y="438" on="1"/>
        <pt x="824" y="709" on="0"/>
        <pt x="614" y="709" on="1"/>
        <pt x="548" y="709" on="1"/>
        <pt x="548" y="193" on="1"/>
        <pt x="548" y="127" on="0"/>
        <pt x="569" y="67" on="0"/>
        <pt x="626" y="47" on="0"/>
        <pt x="689" y="47" on="1"/>
        <pt x="790" y="47" on="1"/>
        <pt x="886" y="47" on="0"/>
        <pt x="1027" y="130" on="0"/>
        <pt x="1125" y="322" on="0"/>
        <pt x="1150" y="483" on="1"/>
        <pt x="1197" y="483" on="1"/>
        <pt x="1191" y="417" on="0"/>
        <pt x="1191" y="311" on="1"/>
        <pt x="1191" y="143" on="0"/>
        <pt x="1205" y="0" on="1"/>
        <pt x="1184" y="1" on="1"/>
        <pt x="1077" y="-34" on="0"/>
        <pt x="977" y="-138" on="0"/>
        <pt x="977" y="-189" on="1"/>
        <pt x="977" y="-272" on="0"/>
        <pt x="1061" y="-272" on="1"/>
        <pt x="1096" y="-272" on="0"/>
        <pt x="1170" y="-240" on="0"/>
        <pt x="1192" y="-217" on="1"/>
        <pt x="1221" y="-246" on="1"/>
      </contour>
    </TTGlyph>
    <TTGlyph name="Eth" xMin="70" yMin="0" xMax="1499" yMax="1450">
      <contour>
        <pt x="1102" y="1450" on="0"/>
        <pt x="1499" y="1088" on="0"/>
        <pt x="1499" y="741" on="1"/>
        <pt x="1499" y="518" on="0"/>
        <pt x="1305" y="183" on="0"/>
        <pt x="938" y="0" on="0"/>
        <pt x="684" y="0" on="1"/>
        <pt x="634" y="0" on="0"/>
        <pt x="560" y="3" on="1"/>
        <pt x="380" y="6" on="0"/>
        <pt x="385" y="6" on="1"/>
        <pt x="174" y="6" on="0"/>
        <pt x="70" y="0" on="1"/>
        <pt x="70" y="41" on="1"/>
        <pt x="139" y="44" on="0"/>
        <pt x="200" y="70" on="0"/>
        <pt x="223" y="140" on="0"/>
        <pt x="223" y="217" on="1"/>
        <pt x="223" y="709" on="1"/>
        <pt x="70" y="709" on="1"/>
        <pt x="70" y="750" on="1"/>
        <pt x="223" y="750" on="1"/>
        <pt x="223" y="1233" on="1"/>
        <pt x="223" y="1310" on="0"/>
        <pt x="200" y="1380" on="0"/>
        <pt x="138" y="1406" on="0"/>
        <pt x="70" y="1409" on="1"/>
        <pt x="70" y="1450" on="1"/>
        <pt x="201" y="1443" on="0"/>
        <pt x="317" y="1443" on="1"/>
        <pt x="381" y="1444" on="1"/>
        <pt x="469" y="1446" on="1"/>
        <pt x="635" y="1450" on="0"/>
        <pt x="703" y="1450" on="1"/>
      </contour>
      <contour>
        <pt x="872" y="37" on="0"/>
        <pt x="1073" y="196" on="0"/>
        <pt x="1159" y="501" on="0"/>
        <pt x="1159" y="733" on="1"/>
        <pt x="1159" y="967" on="0"/>
        <pt x="1067" y="1265" on="0"/>
        <pt x="865" y="1413" on="0"/>
        <pt x="701" y="1413" on="1"/>
        <pt x="637" y="1413" on="0"/>
        <pt x="573" y="1384" on="0"/>
        <pt x="549" y="1310" on="0"/>
        <pt x="549" y="1237" on="1"/>
        <pt x="549" y="750" on="1"/>
        <pt x="803" y="750" on="1"/>
        <pt x="803" y="709" on="1"/>
        <pt x="549" y="709" on="1"/>
        <pt x="549" y="213" on="1"/>
        <pt x="549" y="139" on="0"/>
        <pt x="573" y="66" on="0"/>
        <pt x="638" y="37" on="0"/>
        <pt x="703" y="37" on="1"/>
      </contour>
    </TTGlyph>
    <TTGlyph name="Euro" xMin="64" yMin="-29" xMax="1210" yMax="1479">
      <contour>
        <pt x="1120" y="325" on="0"/>
        <pt x="1210" y="249" on="0"/>
        <pt x="1210" y="187" on="1"/>
        <pt x="1210" y="141" on="0"/>
        <pt x="1155" y="62" on="0"/>
        <pt x="1108" y="37" on="1"/>
        <pt x="1045" y="5" on="0"/>
        <pt x="897" y="-29" on="0"/>
        <pt x="826" y="-29" on="1"/>
        <pt x="653" y="-29" on="0"/>
        <pt x="390" y="121" on="0"/>
        <pt x="232" y="408" on="0"/>
        <pt x="215" y="608" on="1"/>
        <pt x="64" y="608" on="1"/>
        <pt x="64" y="649" on="1"/>
        <pt x="213" y="649" on="1"/>
        <pt x="211" y="691" on="0"/>
        <pt x="211" y="713" on="1"/>
        <pt x="211" y="770" on="0"/>
        <pt x="215" y="813" on="1"/>
        <pt x="64" y="813" on="1"/>
        <pt x="64" y="854" on="1"/>
        <pt x="220" y="854" on="1"/>
        <pt x="244" y="1041" on="0"/>
        <pt x="413" y="1324" on="0"/>
        <pt x="672" y="1479" on="0"/>
        <pt x="827" y="1479" on="1"/>
        <pt x="1003" y="1479" on="0"/>
        <pt x="1109" y="1413" on="1"/>
        <pt x="1210" y="1350" on="0"/>
        <pt x="1210" y="1263" on="1"/>
        <pt x="1210" y="1201" on="0"/>
        <pt x="1120" y="1125" on="0"/>
        <pt x="1047" y="1125" on="1"/>
        <pt x="976" y="1125" on="0"/>
        <pt x="891" y="1195" on="0"/>
        <pt x="891" y="1260" on="1"/>
        <pt x="891" y="1305" on="0"/>
        <pt x="952" y="1384" on="0"/>
        <pt x="1003" y="1400" on="1"/>
        <pt x="980" y="1418" on="0"/>
        <pt x="898" y="1441" on="0"/>
        <pt x="850" y="1441" on="1"/>
        <pt x="758" y="1441" on="0"/>
        <pt x="622" y="1301" on="0"/>
        <pt x="542" y="1037" on="0"/>
        <pt x="531" y="854" on="1"/>
        <pt x="957" y="854" on="1"/>
        <pt x="934" y="813" on="1"/>
        <pt x="529" y="813" on="1"/>
        <pt x="527" y="753" on="0"/>
        <pt x="527" y="721" on="1"/>
        <pt x="527" y="672" on="0"/>
        <pt x="528" y="649" on="1"/>
        <pt x="842" y="649" on="1"/>
        <pt x="818" y="608" on="1"/>
        <pt x="529" y="608" on="1"/>
        <pt x="554" y="9" on="0"/>
        <pt x="849" y="9" on="1"/>
        <pt x="898" y="9" on="0"/>
        <pt x="979" y="32" on="0"/>
        <pt x="1002" y="50" on="1"/>
        <pt x="950" y="66" on="0"/>
        <pt x="890" y="144" on="0"/>
        <pt x="890" y="190" on="1"/>
        <pt x="890" y="255" on="0"/>
        <pt x="975" y="325" on="0"/>
        <pt x="1046" y="325" on="1"/>
      </contour>
    </TTGlyph>
    <TTGlyph name="Euro.smcp" xMin="66" yMin="-29" xMax="1211" yMax="1274">
      <contour>
        <pt x="1123" y="321" on="0"/>
        <pt x="1210" y="246" on="0"/>
        <pt x="1210" y="185" on="1"/>
        <pt x="1210" y="138" on="0"/>
        <pt x="1157" y="58" on="0"/>
        <pt x="1108" y="32" on="1"/>
        <pt x="990" y="-29" on="0"/>
        <pt x="827" y="-29" on="1"/>
        <pt x="656" y="-29" on="0"/>
        <pt x="395" y="96" on="0"/>
        <pt x="237" y="337" on="0"/>
        <pt x="219" y="506" on="1"/>
        <pt x="66" y="506" on="1"/>
        <pt x="66" y="547" on="1"/>
        <pt x="215" y="547" on="1"/>
        <pt x="213" y="589" on="0"/>
        <pt x="213" y="610" on="1"/>
        <pt x="213" y="662" on="0"/>
        <pt x="219" y="711" on="1"/>
        <pt x="66" y="711" on="1"/>
        <pt x="66" y="752" on="1"/>
        <pt x="225" y="752" on="1"/>
        <pt x="252" y="909" on="0"/>
        <pt x="421" y="1145" on="0"/>
        <pt x="676" y="1274" on="0"/>
        <pt x="828" y="1274" on="1"/>
        <pt x="1011" y="1274" on="0"/>
        <pt x="1108" y="1213" on="1"/>
        <pt x="1211" y="1149" on="0"/>
        <pt x="1211" y="1060" on="1"/>
        <pt x="1211" y="999" on="0"/>
        <pt x="1124" y="924" on="0"/>
        <pt x="1053" y="924" on="1"/>
        <pt x="986" y="924" on="0"/>
        <pt x="904" y="990" on="0"/>
        <pt x="904" y="1051" on="1"/>
        <pt x="904" y="1095" on="0"/>
        <pt x="967" y="1175" on="0"/>
        <pt x="1019" y="1189" on="1"/>
        <pt x="968" y="1237" on="0"/>
        <pt x="852" y="1237" on="1"/>
        <pt x="716" y="1237" on="0"/>
        <pt x="551" y="982" on="0"/>
        <pt x="533" y="752" on="1"/>
        <pt x="958" y="752" on="1"/>
        <pt x="936" y="711" on="1"/>
        <pt x="530" y="711" on="1"/>
        <pt x="528" y="651" on="0"/>
        <pt x="528" y="618" on="1"/>
        <pt x="528" y="570" on="0"/>
        <pt x="529" y="547" on="1"/>
        <pt x="844" y="547" on="1"/>
        <pt x="819" y="506" on="1"/>
        <pt x="531" y="506" on="1"/>
        <pt x="559" y="9" on="0"/>
        <pt x="852" y="9" on="1"/>
        <pt x="972" y="9" on="0"/>
        <pt x="1018" y="56" on="1"/>
        <pt x="965" y="70" on="0"/>
        <pt x="903" y="150" on="0"/>
        <pt x="903" y="194" on="1"/>
        <pt x="903" y="255" on="0"/>
        <pt x="985" y="321" on="0"/>
        <pt x="1052" y="321" on="1"/>
      </contour>
    </TTGlyph>
    <TTGlyph name="F" xMin="69" yMin="0" xMax="1164" yMax="1450">
      <contour>
        <pt x="1150" y="1276" on="0"/>
        <pt x="1150" y="1139" on="1"/>
        <pt x="1150" y="1040" on="0"/>
        <pt x="1156" y="983" on="1"/>
        <pt x="1109" y="983" on="1"/>
        <pt x="1082" y="1141" on="0"/>
        <pt x="991" y="1324" on="0"/>
        <pt x="856" y="1403" on="0"/>
        <pt x="757" y="1403" on="1"/>
        <pt x="689" y="1403" on="1"/>
        <pt x="626" y="1403" on="0"/>
        <pt x="569" y="1383" on="0"/>
        <pt x="548" y="1323" on="0"/>
        <pt x="548" y="1257" on="1"/>
        <pt x="548" y="741" on="1"/>
        <pt x="620" y="741" on="1"/>
        <pt x="730" y="741" on="0"/>
        <pt x="842" y="902" on="0"/>
        <pt x="863" y="1012" on="1"/>
        <pt x="911" y="1012" on="1"/>
        <pt x="903" y="892" on="0"/>
        <pt x="903" y="813" on="1"/>
        <pt x="904" y="721" on="1"/>
        <pt x="904" y="614" on="0"/>
        <pt x="917" y="430" on="1"/>
        <pt x="870" y="430" on="1"/>
        <pt x="828" y="700" on="0"/>
        <pt x="620" y="700" on="1"/>
        <pt x="548" y="700" on="1"/>
        <pt x="548" y="229" on="1"/>
        <pt x="548" y="147" on="0"/>
        <pt x="582" y="72" on="0"/>
        <pt x="670" y="46" on="0"/>
        <pt x="767" y="45" on="1"/>
        <pt x="767" y="0" on="1"/>
        <pt x="599" y="6" on="0"/>
        <pt x="394" y="6" on="1"/>
        <pt x="247" y="6" on="0"/>
        <pt x="69" y="0" on="1"/>
        <pt x="69" y="41" on="1"/>
        <pt x="138" y="44" on="0"/>
        <pt x="199" y="70" on="0"/>
        <pt x="222" y="140" on="0"/>
        <pt x="222" y="217" on="1"/>
        <pt x="222" y="1233" on="1"/>
        <pt x="222" y="1310" on="0"/>
        <pt x="199" y="1380" on="0"/>
        <pt x="137" y="1406" on="0"/>
        <pt x="69" y="1409" on="1"/>
        <pt x="69" y="1450" on="1"/>
        <pt x="292" y="1444" on="0"/>
        <pt x="736" y="1444" on="1"/>
        <pt x="1038" y="1444" on="0"/>
        <pt x="1164" y="1450" on="1"/>
      </contour>
    </TTGlyph>
    <TTGlyph name="G" xMin="88" yMin="-29" xMax="1459" yMax="1479">
      <contour>
        <pt x="956" y="1479" on="0"/>
        <pt x="1132" y="1410" on="0"/>
        <pt x="1215" y="1346" on="1"/>
        <pt x="1238" y="1326" on="0"/>
        <pt x="1256" y="1326" on="1"/>
        <pt x="1277" y="1326" on="0"/>
        <pt x="1301" y="1386" on="0"/>
        <pt x="1307" y="1450" on="1"/>
        <pt x="1354" y="1450" on="1"/>
        <pt x="1346" y="1310" on="0"/>
        <pt x="1346" y="954" on="1"/>
        <pt x="1299" y="954" on="1"/>
        <pt x="1283" y="1093" on="0"/>
        <pt x="1219" y="1265" on="0"/>
        <pt x="1145" y="1325" on="1"/>
        <pt x="1095" y="1372" on="0"/>
        <pt x="951" y="1426" on="0"/>
        <pt x="877" y="1426" on="1"/>
        <pt x="734" y="1426" on="0"/>
        <pt x="544" y="1231" on="0"/>
        <pt x="453" y="911" on="0"/>
        <pt x="453" y="722" on="1"/>
        <pt x="453" y="12" on="0"/>
        <pt x="846" y="12" on="1"/>
        <pt x="932" y="12" on="0"/>
        <pt x="991" y="52" on="1"/>
        <pt x="1019" y="72" on="0"/>
        <pt x="1041" y="121" on="0"/>
        <pt x="1041" y="159" on="1"/>
        <pt x="1041" y="360" on="1"/>
        <pt x="1041" y="456" on="0"/>
        <pt x="1009" y="545" on="0"/>
        <pt x="925" y="578" on="0"/>
        <pt x="834" y="582" on="1"/>
        <pt x="834" y="623" on="1"/>
        <pt x="952" y="616" on="0"/>
        <pt x="1184" y="616" on="1"/>
        <pt x="1372" y="616" on="0"/>
        <pt x="1459" y="623" on="1"/>
        <pt x="1459" y="582" on="1"/>
        <pt x="1417" y="578" on="0"/>
        <pt x="1380" y="553" on="0"/>
        <pt x="1366" y="484" on="0"/>
        <pt x="1366" y="406" on="1"/>
        <pt x="1366" y="0" on="1"/>
        <pt x="1325" y="0" on="1"/>
        <pt x="1323" y="43" on="0"/>
        <pt x="1292" y="117" on="0"/>
        <pt x="1265" y="117" on="1"/>
        <pt x="1232" y="117" on="0"/>
        <pt x="1155" y="75" on="1"/>
        <pt x="976" y="-29" on="0"/>
        <pt x="819" y="-29" on="1"/>
        <pt x="582" y="-29" on="0"/>
        <pt x="255" y="146" on="0"/>
        <pt x="88" y="476" on="0"/>
        <pt x="88" y="708" on="1"/>
        <pt x="88" y="937" on="0"/>
        <pt x="277" y="1287" on="0"/>
        <pt x="614" y="1479" on="0"/>
        <pt x="829" y="1479" on="1"/>
      </contour>
    </TTGlyph>
    <TTGlyph name="Gacute" xMin="88" yMin="-29" xMax="1459" yMax="1928">
      <component glyphName=".ttfautohint" x="88" y="0" flags="0x0"/>
      <component glyphName="G" x="0" y="0" flags="0x0"/>
      <component glyphName="acute.case" x="625" y="0" flags="0x0"/>
    </TTGlyph>
    <TTGlyph name="Gbreve" xMin="88" yMin="-29" xMax="1459" yMax="1875">
      <component glyphName=".ttfautohint" x="88" y="0" flags="0x0"/>
      <component glyphName="G" x="0" y="0" flags="0x0"/>
      <component glyphName="breve.case" x="332" y="0" flags="0x0"/>
    </TTGlyph>
    <TTGlyph name="Gcircumflex" xMin="88" yMin="-29" xMax="1459" yMax="1925">
      <component glyphName=".ttfautohint" x="88" y="0" flags="0x0"/>
      <component glyphName="G" x="0" y="0" flags="0x0"/>
      <component glyphName="circumflex.case" x="359" y="0" flags="0x0"/>
    </TTGlyph>
    <TTGlyph name="Gcommaaccent" xMin="88" yMin="-498" xMax="1459" yMax="1479">
      <component glyphName=".ttfautohint" x="88" y="0" flags="0x0"/>
      <component glyphName="G" x="0" y="0" flags="0x0"/>
      <component glyphName="commaaccentcomb.case" x="609" y="0" flags="0x0"/>
    </TTGlyph>
    <TTGlyph name="Gdotaccent" xMin="88" yMin="-29" xMax="1459" yMax="1883">
      <component glyphName=".ttfautohint" x="88" y="0" flags="0x0"/>
      <component glyphName="G" x="0" y="0" flags="0x0"/>
      <component glyphName="dotaccent.case" x="603" y="0" flags="0x0"/>
    </TTGlyph>
    <TTGlyph name="H" xMin="69" yMin="0" xMax="1570" yMax="1450">
      <contour>
        <pt x="1501" y="1406" on="0"/>
        <pt x="1439" y="1380" on="0"/>
        <pt x="1416" y="1310" on="0"/>
        <pt x="1416" y="1233" on="1"/>
        <pt x="1416" y="217" on="1"/>
        <pt x="1416" y="140" on="0"/>
        <pt x="1439" y="70" on="0"/>
        <pt x="1502" y="44" on="0"/>
        <pt x="1570" y="41" on="1"/>
        <pt x="1570" y="0" on="1"/>
        <pt x="1470" y="6" on="0"/>
        <pt x="1259" y="6" on="1"/>
        <pt x="1051" y="6" on="0"/>
        <pt x="937" y="0" on="1"/>
        <pt x="937" y="41" on="1"/>
        <pt x="1006" y="44" on="0"/>
        <pt x="1068" y="70" on="0"/>
        <pt x="1091" y="140" on="0"/>
        <pt x="1091" y="217" on="1"/>
        <pt x="1091" y="709" on="1"/>
        <pt x="548" y="709" on="1"/>
        <pt x="548" y="217" on="1"/>
        <pt x="548" y="140" on="0"/>
        <pt x="571" y="70" on="0"/>
        <pt x="633" y="44" on="0"/>
        <pt x="702" y="41" on="1"/>
        <pt x="702" y="0" on="1"/>
        <pt x="591" y="6" on="0"/>
        <pt x="392" y="6" on="1"/>
        <pt x="173" y="6" on="0"/>
        <pt x="69" y="0" on="1"/>
        <pt x="69" y="41" on="1"/>
        <pt x="138" y="44" on="0"/>
        <pt x="199" y="70" on="0"/>
        <pt x="222" y="140" on="0"/>
        <pt x="222" y="217" on="1"/>
        <pt x="222" y="1233" on="1"/>
        <pt x="222" y="1310" on="0"/>
        <pt x="199" y="1380" on="0"/>
        <pt x="137" y="1406" on="0"/>
        <pt x="69" y="1409" on="1"/>
        <pt x="69" y="1450" on="1"/>
        <pt x="173" y="1444" on="0"/>
        <pt x="392" y="1444" on="1"/>
        <pt x="591" y="1444" on="0"/>
        <pt x="702" y="1450" on="1"/>
        <pt x="702" y="1409" on="1"/>
        <pt x="633" y="1406" on="0"/>
        <pt x="571" y="1380" on="0"/>
        <pt x="548" y="1310" on="0"/>
        <pt x="548" y="1233" on="1"/>
        <pt x="548" y="750" on="1"/>
        <pt x="1091" y="750" on="1"/>
        <pt x="1091" y="1233" on="1"/>
        <pt x="1091" y="1310" on="0"/>
        <pt x="1068" y="1380" on="0"/>
        <pt x="1006" y="1406" on="0"/>
        <pt x="937" y="1409" on="1"/>
        <pt x="937" y="1450" on="1"/>
        <pt x="1051" y="1444" on="0"/>
        <pt x="1259" y="1444" on="1"/>
        <pt x="1470" y="1444" on="0"/>
        <pt x="1570" y="1450" on="1"/>
        <pt x="1570" y="1409" on="1"/>
      </contour>
    </TTGlyph>
    <TTGlyph name="Hbar" xMin="69" yMin="0" xMax="1570" yMax="1450">
      <contour>
        <pt x="1501" y="1406" on="0"/>
        <pt x="1439" y="1380" on="0"/>
        <pt x="1416" y="1310" on="0"/>
        <pt x="1416" y="1233" on="1"/>
        <pt x="1416" y="1092" on="1"/>
        <pt x="1570" y="1092" on="1"/>
        <pt x="1570" y="1051" on="1"/>
        <pt x="1416" y="1051" on="1"/>
        <pt x="1416" y="217" on="1"/>
        <pt x="1416" y="140" on="0"/>
        <pt x="1439" y="70" on="0"/>
        <pt x="1502" y="44" on="0"/>
        <pt x="1570" y="41" on="1"/>
        <pt x="1570" y="0" on="1"/>
        <pt x="1470" y="6" on="0"/>
        <pt x="1259" y="6" on="1"/>
        <pt x="1051" y="6" on="0"/>
        <pt x="937" y="0" on="1"/>
        <pt x="937" y="41" on="1"/>
        <pt x="1006" y="44" on="0"/>
        <pt x="1068" y="70" on="0"/>
        <pt x="1091" y="140" on="0"/>
        <pt x="1091" y="217" on="1"/>
        <pt x="1091" y="709" on="1"/>
        <pt x="548" y="709" on="1"/>
        <pt x="548" y="217" on="1"/>
        <pt x="548" y="140" on="0"/>
        <pt x="571" y="70" on="0"/>
        <pt x="633" y="44" on="0"/>
        <pt x="702" y="41" on="1"/>
        <pt x="702" y="0" on="1"/>
        <pt x="591" y="6" on="0"/>
        <pt x="392" y="6" on="1"/>
        <pt x="173" y="6" on="0"/>
        <pt x="69" y="0" on="1"/>
        <pt x="69" y="41" on="1"/>
        <pt x="138" y="44" on="0"/>
        <pt x="199" y="70" on="0"/>
        <pt x="222" y="140" on="0"/>
        <pt x="222" y="217" on="1"/>
        <pt x="222" y="1051" on="1"/>
        <pt x="69" y="1051" on="1"/>
        <pt x="69" y="1092" on="1"/>
        <pt x="222" y="1092" on="1"/>
        <pt x="222" y="1233" on="1"/>
        <pt x="222" y="1310" on="0"/>
        <pt x="199" y="1380" on="0"/>
        <pt x="137" y="1406" on="0"/>
        <pt x="69" y="1409" on="1"/>
        <pt x="69" y="1450" on="1"/>
        <pt x="173" y="1444" on="0"/>
        <pt x="392" y="1444" on="1"/>
        <pt x="591" y="1444" on="0"/>
        <pt x="702" y="1450" on="1"/>
        <pt x="702" y="1409" on="1"/>
        <pt x="633" y="1406" on="0"/>
        <pt x="571" y="1380" on="0"/>
        <pt x="548" y="1310" on="0"/>
        <pt x="548" y="1233" on="1"/>
        <pt x="548" y="1092" on="1"/>
        <pt x="1091" y="1092" on="1"/>
        <pt x="1091" y="1233" on="1"/>
        <pt x="1091" y="1310" on="0"/>
        <pt x="1068" y="1380" on="0"/>
        <pt x="1006" y="1406" on="0"/>
        <pt x="937" y="1409" on="1"/>
        <pt x="937" y="1450" on="1"/>
        <pt x="1051" y="1444" on="0"/>
        <pt x="1259" y="1444" on="1"/>
        <pt x="1470" y="1444" on="0"/>
        <pt x="1570" y="1450" on="1"/>
        <pt x="1570" y="1409" on="1"/>
      </contour>
      <contour>
        <pt x="548" y="1051" on="1"/>
        <pt x="548" y="750" on="1"/>
        <pt x="1091" y="750" on="1"/>
        <pt x="1091" y="1051" on="1"/>
      </contour>
    </TTGlyph>
    <TTGlyph name="Hcircumflex" xMin="69" yMin="0" xMax="1570" yMax="1925">
      <component glyphName=".ttfautohint" x="69" y="0" flags="0x0"/>
      <component glyphName="H" x="0" y="0" flags="0x0"/>
      <component glyphName="circumflex.case" x="393" y="0" flags="0x0"/>
    </TTGlyph>
    <TTGlyph name="I" xMin="69" yMin="0" xMax="702" yMax="1450">
      <contour>
        <pt x="633" y="1406" on="0"/>
        <pt x="571" y="1380" on="0"/>
        <pt x="548" y="1310" on="0"/>
        <pt x="548" y="1233" on="1"/>
        <pt x="548" y="217" on="1"/>
        <pt x="548" y="140" on="0"/>
        <pt x="571" y="70" on="0"/>
        <pt x="633" y="44" on="0"/>
        <pt x="702" y="41" on="1"/>
        <pt x="702" y="0" on="1"/>
        <pt x="591" y="6" on="0"/>
        <pt x="392" y="6" on="1"/>
        <pt x="173" y="6" on="0"/>
        <pt x="69" y="0" on="1"/>
        <pt x="69" y="41" on="1"/>
        <pt x="138" y="44" on="0"/>
        <pt x="199" y="70" on="0"/>
        <pt x="222" y="140" on="0"/>
        <pt x="222" y="217" on="1"/>
        <pt x="222" y="1233" on="1"/>
        <pt x="222" y="1310" on="0"/>
        <pt x="199" y="1380" on="0"/>
        <pt x="137" y="1406" on="0"/>
        <pt x="69" y="1409" on="1"/>
        <pt x="69" y="1450" on="1"/>
        <pt x="173" y="1444" on="0"/>
        <pt x="392" y="1444" on="1"/>
        <pt x="591" y="1444" on="0"/>
        <pt x="702" y="1450" on="1"/>
        <pt x="702" y="1409" on="1"/>
      </contour>
    </TTGlyph>
    <TTGlyph name="IJ" xMin="69" yMin="-385" xMax="1455" yMax="1450">
      <component glyphName=".ttfautohint" x="69" y="0" flags="0x0"/>
      <component glyphName="I" x="0" y="0" flags="0x0"/>
      <component glyphName="J" x="764" y="0" flags="0x0"/>
    </TTGlyph>
    <TTGlyph name="Iacute" xMin="69" yMin="0" xMax="751" yMax="1928">
      <component glyphName=".ttfautohint" x="69" y="0" flags="0x0"/>
      <component glyphName="I" x="0" y="0" flags="0x0"/>
      <component glyphName="acute.case" x="226" y="0" flags="0x0"/>
    </TTGlyph>
    <TTGlyph name="Ibreve" xMin="-77" yMin="0" xMax="836" yMax="1875">
      <component glyphName=".ttfautohint" x="0" y="0" flags="0x0"/>
      <component glyphName="I" x="0" y="0" flags="0x0"/>
      <component glyphName="breve.case" x="-67" y="0" flags="0x0"/>
    </TTGlyph>
    <TTGlyph name="Icircumflex" xMin="-46" yMin="0" xMax="830" yMax="1925">
      <component glyphName=".ttfautohint" x="0" y="0" flags="0x0"/>
      <component glyphName="I" x="0" y="0" flags="0x0"/>
      <component glyphName="circumflex.case" x="-40" y="0" flags="0x0"/>
    </TTGlyph>
    <TTGlyph name="Idieresis" xMin="-8" yMin="0" xMax="792" yMax="1878">
      <component glyphName=".ttfautohint" x="0" y="0" flags="0x0"/>
      <component glyphName="I" x="0" y="0" flags="0x0"/>
      <component glyphName="dieresis.case" x="5" y="0" flags="0x0"/>
    </TTGlyph>
    <TTGlyph name="Idotaccent" xMin="69" yMin="0" xMax="702" yMax="1985">
      <component glyphName=".ttfautohint" x="69" y="0" flags="0x0"/>
      <component glyphName="I" x="0" y="0" flags="0x0"/>
      <component glyphName="dotaccent" x="189" y="397" flags="0x0"/>
    </TTGlyph>
    <TTGlyph name="Igrave" xMin="20" yMin="0" xMax="702" yMax="1928">
      <component glyphName=".ttfautohint" x="20" y="0" flags="0x0"/>
      <component glyphName="I" x="0" y="0" flags="0x0"/>
      <component glyphName="grave.case" x="7" y="0" flags="0x0"/>
    </TTGlyph>
    <TTGlyph name="Imacron" xMin="-18" yMin="0" xMax="801" yMax="1729">
      <component glyphName=".ttfautohint" x="0" y="0" flags="0x0"/>
      <component glyphName="I" x="0" y="0" flags="0x0"/>
      <component glyphName="macron.case" x="-20" y="0" flags="0x0"/>
    </TTGlyph>
    <TTGlyph name="Iogonek" xMin="69" yMin="-385" xMax="702" yMax="1450">
      <contour>
        <pt x="633" y="1406" on="0"/>
        <pt x="571" y="1380" on="0"/>
        <pt x="548" y="1310" on="0"/>
        <pt x="548" y="1233" on="1"/>
        <pt x="548" y="217" on="1"/>
        <pt x="548" y="140" on="0"/>
        <pt x="571" y="70" on="0"/>
        <pt x="633" y="44" on="0"/>
        <pt x="702" y="41" on="1"/>
        <pt x="702" y="0" on="1"/>
        <pt x="665" y="2" on="1"/>
        <pt x="557" y="-34" on="0"/>
        <pt x="455" y="-138" on="0"/>
        <pt x="455" y="-189" on="1"/>
        <pt x="455" y="-272" on="0"/>
        <pt x="539" y="-272" on="1"/>
        <pt x="574" y="-272" on="0"/>
        <pt x="648" y="-240" on="0"/>
        <pt x="670" y="-217" on="1"/>
        <pt x="699" y="-246" on="1"/>
        <pt x="644" y="-319" on="0"/>
        <pt x="510" y="-385" on="0"/>
        <pt x="418" y="-385" on="1"/>
        <pt x="329" y="-385" on="0"/>
        <pt x="232" y="-311" on="0"/>
        <pt x="232" y="-245" on="1"/>
        <pt x="232" y="-162" on="0"/>
        <pt x="419" y="-33" on="0"/>
        <pt x="590" y="4" on="1"/>
        <pt x="468" y="6" on="0"/>
        <pt x="392" y="6" on="1"/>
        <pt x="173" y="6" on="0"/>
        <pt x="69" y="0" on="1"/>
        <pt x="69" y="41" on="1"/>
        <pt x="138" y="44" on="0"/>
        <pt x="199" y="70" on="0"/>
        <pt x="222" y="140" on="0"/>
        <pt x="222" y="217" on="1"/>
        <pt x="222" y="1233" on="1"/>
        <pt x="222" y="1310" on="0"/>
        <pt x="199" y="1380" on="0"/>
        <pt x="137" y="1406" on="0"/>
        <pt x="69" y="1409" on="1"/>
        <pt x="69" y="1450" on="1"/>
        <pt x="173" y="1444" on="0"/>
        <pt x="392" y="1444" on="1"/>
        <pt x="591" y="1444" on="0"/>
        <pt x="702" y="1450" on="1"/>
        <pt x="702" y="1409" on="1"/>
      </contour>
    </TTGlyph>
    <TTGlyph name="Itilde" xMin="-62" yMin="0" xMax="842" yMax="1892">
      <component glyphName=".ttfautohint" x="0" y="0" flags="0x0"/>
      <component glyphName="I" x="0" y="0" flags="0x0"/>
      <component glyphName="tilde.case" x="-93" y="0" flags="0x0"/>
    </TTGlyph>
    <TTGlyph name="J" xMin="-323" yMin="-385" xMax="691" yMax="1450">
      <contour>
        <pt x="622" y="1406" on="0"/>
        <pt x="560" y="1380" on="0"/>
        <pt x="537" y="1310" on="0"/>
        <pt x="537" y="1233" on="1"/>
        <pt x="537" y="483" on="1"/>
        <pt x="537" y="376" on="1"/>
        <pt x="537" y="234" on="0"/>
        <pt x="524" y="24" on="0"/>
        <pt x="502" y="-51" on="1"/>
        <pt x="474" y="-147" on="0"/>
        <pt x="334" y="-298" on="0"/>
        <pt x="119" y="-385" on="0"/>
        <pt x="-16" y="-385" on="1"/>
        <pt x="-146" y="-385" on="0"/>
        <pt x="-222" y="-347" on="1"/>
        <pt x="-323" y="-297" on="0"/>
        <pt x="-323" y="-198" on="1"/>
        <pt x="-323" y="-136" on="0"/>
        <pt x="-233" y="-60" on="0"/>
        <pt x="-159" y="-60" on="1"/>
        <pt x="-88" y="-60" on="0"/>
        <pt x="-4" y="-130" on="0"/>
        <pt x="-4" y="-195" on="1"/>
        <pt x="-4" y="-241" on="0"/>
        <pt x="-58" y="-313" on="0"/>
        <pt x="-109" y="-329" on="1"/>
        <pt x="-87" y="-344" on="0"/>
        <pt x="-35" y="-344" on="1"/>
        <pt x="40" y="-344" on="0"/>
        <pt x="148" y="-263" on="0"/>
        <pt x="172" y="-197" on="1"/>
        <pt x="190" y="-145" on="0"/>
        <pt x="207" y="-27" on="0"/>
        <pt x="211" y="136" on="0"/>
        <pt x="211" y="297" on="1"/>
        <pt x="211" y="1233" on="1"/>
        <pt x="211" y="1310" on="0"/>
        <pt x="188" y="1380" on="0"/>
        <pt x="126" y="1406" on="0"/>
        <pt x="58" y="1409" on="1"/>
        <pt x="58" y="1450" on="1"/>
        <pt x="158" y="1444" on="0"/>
        <pt x="369" y="1444" on="1"/>
        <pt x="577" y="1444" on="0"/>
        <pt x="691" y="1450" on="1"/>
        <pt x="691" y="1409" on="1"/>
      </contour>
    </TTGlyph>
    <TTGlyph name="Jcircumflex" xMin="-323" yMin="-385" xMax="807" yMax="1925">
      <component glyphName=".ttfautohint" x="0" y="0" flags="0x0"/>
      <component glyphName="J" x="0" y="0" flags="0x0"/>
      <component glyphName="circumflex.case" x="-63" y="0" flags="0x0"/>
    </TTGlyph>
    <TTGlyph name="K" xMin="69" yMin="0" xMax="1482" yMax="1450">
      <contour>
        <pt x="1365" y="118" on="0"/>
        <pt x="1430" y="61" on="0"/>
        <pt x="1482" y="41" on="1"/>
        <pt x="1482" y="0" on="1"/>
        <pt x="1340" y="6" on="0"/>
        <pt x="1162" y="6" on="1"/>
        <pt x="1027" y="6" on="0"/>
        <pt x="902" y="0" on="1"/>
        <pt x="902" y="41" on="1"/>
        <pt x="960" y="43" on="0"/>
        <pt x="1011" y="62" on="0"/>
        <pt x="1011" y="82" on="1"/>
        <pt x="1011" y="97" on="0"/>
        <pt x="990" y="133" on="1"/>
        <pt x="692" y="614" on="1"/>
        <pt x="663" y="660" on="0"/>
        <pt x="622" y="706" on="0"/>
        <pt x="580" y="725" on="0"/>
        <pt x="548" y="728" on="1"/>
        <pt x="548" y="217" on="1"/>
        <pt x="548" y="140" on="0"/>
        <pt x="571" y="70" on="0"/>
        <pt x="633" y="44" on="0"/>
        <pt x="702" y="41" on="1"/>
        <pt x="702" y="0" on="1"/>
        <pt x="591" y="6" on="0"/>
        <pt x="392" y="6" on="1"/>
        <pt x="173" y="6" on="0"/>
        <pt x="69" y="0" on="1"/>
        <pt x="69" y="41" on="1"/>
        <pt x="138" y="44" on="0"/>
        <pt x="199" y="70" on="0"/>
        <pt x="222" y="140" on="0"/>
        <pt x="222" y="217" on="1"/>
        <pt x="222" y="1233" on="1"/>
        <pt x="222" y="1310" on="0"/>
        <pt x="199" y="1380" on="0"/>
        <pt x="137" y="1406" on="0"/>
        <pt x="69" y="1409" on="1"/>
        <pt x="69" y="1450" on="1"/>
        <pt x="173" y="1444" on="0"/>
        <pt x="392" y="1444" on="1"/>
        <pt x="591" y="1444" on="0"/>
        <pt x="702" y="1450" on="1"/>
        <pt x="702" y="1409" on="1"/>
        <pt x="633" y="1406" on="0"/>
        <pt x="571" y="1380" on="0"/>
        <pt x="548" y="1310" on="0"/>
        <pt x="548" y="1233" on="1"/>
        <pt x="548" y="772" on="1"/>
        <pt x="629" y="777" on="0"/>
        <pt x="768" y="867" on="0"/>
        <pt x="852" y="964" on="1"/>
        <pt x="972" y="1110" on="1"/>
        <pt x="1066" y="1221" on="0"/>
        <pt x="1066" y="1300" on="1"/>
        <pt x="1066" y="1351" on="0"/>
        <pt x="987" y="1408" on="0"/>
        <pt x="916" y="1410" on="1"/>
        <pt x="916" y="1450" on="1"/>
        <pt x="1066" y="1444" on="0"/>
        <pt x="1218" y="1444" on="1"/>
        <pt x="1337" y="1444" on="0"/>
        <pt x="1412" y="1450" on="1"/>
        <pt x="1412" y="1410" on="1"/>
        <pt x="1249" y="1375" on="0"/>
        <pt x="1114" y="1215" on="1"/>
        <pt x="858" y="910" on="1"/>
        <pt x="1335" y="166" on="1"/>
      </contour>
    </TTGlyph>
    <TTGlyph name="Kcommaaccent" xMin="69" yMin="-498" xMax="1482" yMax="1450">
      <component glyphName=".ttfautohint" x="69" y="0" flags="0x0"/>
      <component glyphName="K" x="0" y="0" flags="0x0"/>
      <component glyphName="commaaccentcomb.case" x="599" y="0" flags="0x0"/>
    </TTGlyph>
    <TTGlyph name="L" xMin="69" yMin="0" xMax="1205" yMax="1450">
      <contour>
        <pt x="640" y="1406" on="0"/>
        <pt x="573" y="1380" on="0"/>
        <pt x="548" y="1310" on="0"/>
        <pt x="548" y="1233" on="1"/>
        <pt x="548" y="193" on="1"/>
        <pt x="548" y="127" on="0"/>
        <pt x="568" y="67" on="0"/>
        <pt x="620" y="47" on="0"/>
        <pt x="677" y="47" on="1"/>
        <pt x="777" y="47" on="1"/>
        <pt x="870" y="47" on="0"/>
        <pt x="1025" y="161" on="0"/>
        <pt x="1130" y="368" on="0"/>
        <pt x="1150" y="504" on="1"/>
        <pt x="1197" y="504" on="1"/>
        <pt x="1191" y="434" on="0"/>
        <pt x="1191" y="324" on="1"/>
        <pt x="1191" y="149" on="0"/>
        <pt x="1205" y="0" on="1"/>
        <pt x="1066" y="6" on="0"/>
        <pt x="736" y="6" on="1"/>
        <pt x="292" y="6" on="0"/>
        <pt x="69" y="0" on="1"/>
        <pt x="69" y="41" on="1"/>
        <pt x="138" y="44" on="0"/>
        <pt x="199" y="70" on="0"/>
        <pt x="222" y="140" on="0"/>
        <pt x="222" y="217" on="1"/>
        <pt x="222" y="1233" on="1"/>
        <pt x="222" y="1310" on="0"/>
        <pt x="199" y="1380" on="0"/>
        <pt x="137" y="1406" on="0"/>
        <pt x="69" y="1409" on="1"/>
        <pt x="69" y="1450" on="1"/>
        <pt x="173" y="1444" on="0"/>
        <pt x="392" y="1444" on="1"/>
        <pt x="600" y="1444" on="0"/>
        <pt x="714" y="1450" on="1"/>
        <pt x="714" y="1409" on="1"/>
      </contour>
    </TTGlyph>
    <TTGlyph name="Lacute" xMin="69" yMin="0" xMax="1205" yMax="1928">
      <component glyphName=".ttfautohint" x="69" y="0" flags="0x0"/>
      <component glyphName="L" x="0" y="0" flags="0x0"/>
      <component glyphName="acute.case" x="226" y="0" flags="0x0"/>
    </TTGlyph>
    <TTGlyph name="Lcaron" xMin="69" yMin="0" xMax="1205" yMax="1462">
      <component glyphName=".ttfautohint" x="69" y="0" flags="0x0"/>
      <component glyphName="L" x="0" y="0" flags="0x0"/>
      <component glyphName="hacek.case" x="652" y="0" flags="0x0"/>
    </TTGlyph>
    <TTGlyph name="Lcommaaccent" xMin="69" yMin="-498" xMax="1205" yMax="1450">
      <component glyphName=".ttfautohint" x="69" y="0" flags="0x0"/>
      <component glyphName="L" x="0" y="0" flags="0x0"/>
      <component glyphName="commaaccentcomb.case" x="509" y="0" flags="0x0"/>
    </TTGlyph>
    <TTGlyph name="Ldot" xMin="69" yMin="0" xMax="1301" yMax="1450">
      <component glyphName=".ttfautohint" x="69" y="0" flags="0x0"/>
      <component glyphName="L" x="0" y="0" flags="0x0"/>
      <component glyphName="period" x="850" y="627" flags="0x0"/>
    </TTGlyph>
    <TTGlyph name="Lslash" xMin="69" yMin="0" xMax="1205" yMax="1450">
      <contour>
        <pt x="1191" y="149" on="0"/>
        <pt x="1205" y="0" on="1"/>
        <pt x="1066" y="6" on="0"/>
        <pt x="736" y="6" on="1"/>
        <pt x="292" y="6" on="0"/>
        <pt x="69" y="0" on="1"/>
        <pt x="69" y="41" on="1"/>
        <pt x="138" y="44" on="0"/>
        <pt x="199" y="70" on="0"/>
        <pt x="222" y="140" on="0"/>
        <pt x="222" y="217" on="1"/>
        <pt x="222" y="509" on="1"/>
        <pt x="69" y="420" on="1"/>
        <pt x="69" y="467" on="1"/>
        <pt x="222" y="556" on="1"/>
        <pt x="222" y="1233" on="1"/>
        <pt x="222" y="1310" on="0"/>
        <pt x="199" y="1380" on="0"/>
        <pt x="137" y="1406" on="0"/>
        <pt x="69" y="1409" on="1"/>
        <pt x="69" y="1450" on="1"/>
        <pt x="173" y="1444" on="0"/>
        <pt x="392" y="1444" on="1"/>
        <pt x="600" y="1444" on="0"/>
        <pt x="714" y="1450" on="1"/>
        <pt x="714" y="1409" on="1"/>
        <pt x="640" y="1406" on="0"/>
        <pt x="573" y="1380" on="0"/>
        <pt x="548" y="1310" on="0"/>
        <pt x="548" y="1233" on="1"/>
        <pt x="548" y="725" on="1"/>
        <pt x="969" y="969" on="1"/>
        <pt x="969" y="922" on="1"/>
        <pt x="548" y="678" on="1"/>
        <pt x="548" y="193" on="1"/>
        <pt x="548" y="127" on="0"/>
        <pt x="568" y="67" on="0"/>
        <pt x="620" y="47" on="0"/>
        <pt x="677" y="47" on="1"/>
        <pt x="777" y="47" on="1"/>
        <pt x="870" y="47" on="0"/>
        <pt x="1025" y="161" on="0"/>
        <pt x="1130" y="368" on="0"/>
        <pt x="1150" y="504" on="1"/>
        <pt x="1197" y="504" on="1"/>
        <pt x="1191" y="434" on="0"/>
        <pt x="1191" y="324" on="1"/>
      </contour>
    </TTGlyph>
    <TTGlyph name="M" xMin="71" yMin="-3" xMax="1831" yMax="1450">
      <contour>
        <pt x="1762" y="1406" on="0"/>
        <pt x="1700" y="1380" on="0"/>
        <pt x="1677" y="1310" on="0"/>
        <pt x="1677" y="1233" on="1"/>
        <pt x="1677" y="217" on="1"/>
        <pt x="1677" y="140" on="0"/>
        <pt x="1700" y="70" on="0"/>
        <pt x="1762" y="44" on="0"/>
        <pt x="1831" y="41" on="1"/>
        <pt x="1831" y="0" on="1"/>
        <pt x="1717" y="6" on="0"/>
        <pt x="1509" y="6" on="1"/>
        <pt x="1290" y="6" on="0"/>
        <pt x="1185" y="0" on="1"/>
        <pt x="1185" y="41" on="1"/>
        <pt x="1259" y="44" on="0"/>
        <pt x="1326" y="70" on="0"/>
        <pt x="1351" y="140" on="0"/>
        <pt x="1351" y="217" on="1"/>
        <pt x="1351" y="1283" on="1"/>
        <pt x="858" y="-3" on="1"/>
        <pt x="825" y="-3" on="1"/>
        <pt x="272" y="1318" on="1"/>
        <pt x="272" y="336" on="1"/>
        <pt x="272" y="214" on="0"/>
        <pt x="297" y="102" on="0"/>
        <pt x="379" y="50" on="0"/>
        <pt x="471" y="41" on="1"/>
        <pt x="471" y="0" on="1"/>
        <pt x="392" y="6" on="0"/>
        <pt x="249" y="6" on="1"/>
        <pt x="136" y="6" on="0"/>
        <pt x="71" y="0" on="1"/>
        <pt x="71" y="41" on="1"/>
        <pt x="138" y="50" on="0"/>
        <pt x="202" y="101" on="0"/>
        <pt x="225" y="207" on="0"/>
        <pt x="225" y="311" on="1"/>
        <pt x="225" y="1233" on="1"/>
        <pt x="225" y="1310" on="0"/>
        <pt x="202" y="1380" on="0"/>
        <pt x="140" y="1406" on="0"/>
        <pt x="71" y="1409" on="1"/>
        <pt x="71" y="1450" on="1"/>
        <pt x="136" y="1444" on="0"/>
        <pt x="249" y="1444" on="1"/>
        <pt x="439" y="1444" on="0"/>
        <pt x="573" y="1450" on="1"/>
        <pt x="986" y="454" on="1"/>
        <pt x="1364" y="1444" on="1"/>
        <pt x="1509" y="1444" on="1"/>
        <pt x="1717" y="1444" on="0"/>
        <pt x="1831" y="1450" on="1"/>
        <pt x="1831" y="1409" on="1"/>
      </contour>
    </TTGlyph>
    <TTGlyph name="N" xMin="71" yMin="-4" xMax="1419" yMax="1450">
      <contour>
        <pt x="1352" y="1400" on="0"/>
        <pt x="1288" y="1349" on="0"/>
        <pt x="1265" y="1243" on="0"/>
        <pt x="1265" y="1139" on="1"/>
        <pt x="1265" y="-4" on="1"/>
        <pt x="1250" y="-3" on="0"/>
        <pt x="1216" y="-3" on="1"/>
        <pt x="1180" y="-3" on="0"/>
        <pt x="1160" y="-4" on="1"/>
        <pt x="272" y="1122" on="1"/>
        <pt x="272" y="336" on="1"/>
        <pt x="272" y="214" on="0"/>
        <pt x="297" y="102" on="0"/>
        <pt x="379" y="50" on="0"/>
        <pt x="471" y="41" on="1"/>
        <pt x="471" y="0" on="1"/>
        <pt x="392" y="6" on="0"/>
        <pt x="249" y="6" on="1"/>
        <pt x="136" y="6" on="0"/>
        <pt x="71" y="0" on="1"/>
        <pt x="71" y="41" on="1"/>
        <pt x="138" y="50" on="0"/>
        <pt x="202" y="101" on="0"/>
        <pt x="225" y="207" on="0"/>
        <pt x="225" y="311" on="1"/>
        <pt x="225" y="1233" on="1"/>
        <pt x="225" y="1310" on="0"/>
        <pt x="202" y="1380" on="0"/>
        <pt x="140" y="1406" on="0"/>
        <pt x="71" y="1409" on="1"/>
        <pt x="71" y="1450" on="1"/>
        <pt x="136" y="1444" on="0"/>
        <pt x="249" y="1444" on="1"/>
        <pt x="354" y="1444" on="0"/>
        <pt x="426" y="1450" on="1"/>
        <pt x="1218" y="473" on="1"/>
        <pt x="1218" y="1114" on="1"/>
        <pt x="1218" y="1236" on="0"/>
        <pt x="1193" y="1348" on="0"/>
        <pt x="1111" y="1400" on="0"/>
        <pt x="1019" y="1409" on="1"/>
        <pt x="1019" y="1450" on="1"/>
        <pt x="1099" y="1444" on="0"/>
        <pt x="1241" y="1444" on="1"/>
        <pt x="1355" y="1444" on="0"/>
        <pt x="1419" y="1450" on="1"/>
        <pt x="1419" y="1409" on="1"/>
      </contour>
    </TTGlyph>
    <TTGlyph name="Nacute" xMin="71" yMin="-4" xMax="1419" yMax="1928">
      <component glyphName=".ttfautohint" x="71" y="0" flags="0x0"/>
      <component glyphName="N" x="0" y="0" flags="0x0"/>
      <component glyphName="acute.case" x="610" y="0" flags="0x0"/>
    </TTGlyph>
    <TTGlyph name="Nacute.loclPLK" xMin="71" yMin="-4" xMax="1419" yMax="1964">
      <component glyphName=".ttfautohint" x="71" y="0" flags="0x0"/>
      <component glyphName="N" x="0" y="0" flags="0x0"/>
      <component glyphName="acute.loclPLK.case" x="667" y="0" flags="0x0"/>
    </TTGlyph>
    <TTGlyph name="Ncaron" xMin="71" yMin="-4" xMax="1419" yMax="1921">
      <component glyphName=".ttfautohint" x="71" y="0" flags="0x0"/>
      <component glyphName="N" x="0" y="0" flags="0x0"/>
      <component glyphName="caron.case" x="338" y="0" flags="0x0"/>
    </TTGlyph>
    <TTGlyph name="Ncommaaccent" xMin="71" yMin="-498" xMax="1419" yMax="1450">
      <component glyphName=".ttfautohint" x="71" y="0" flags="0x0"/>
      <component glyphName="N" x="0" y="0" flags="0x0"/>
      <component glyphName="commaaccentcomb.case" x="546" y="0" flags="0x0"/>
    </TTGlyph>
    <TTGlyph name="Ntilde" xMin="71" yMin="-4" xMax="1419" yMax="1892">
      <component glyphName=".ttfautohint" x="71" y="0" flags="0x0"/>
      <component glyphName="N" x="0" y="0" flags="0x0"/>
      <component glyphName="tilde.case" x="291" y="0" flags="0x0"/>
    </TTGlyph>
    <TTGlyph name="O" xMin="88" yMin="-29" xMax="1536" yMax="1479">
      <contour>
        <pt x="1030" y="1479" on="0"/>
        <pt x="1356" y="1303" on="0"/>
        <pt x="1536" y="968" on="0"/>
        <pt x="1536" y="737" on="1"/>
        <pt x="1536" y="511" on="0"/>
        <pt x="1351" y="163" on="0"/>
        <pt x="1022" y="-29" on="0"/>
        <pt x="811" y="-29" on="1"/>
        <pt x="594" y="-29" on="0"/>
        <pt x="267" y="147" on="0"/>
        <pt x="88" y="482" on="0"/>
        <pt x="88" y="713" on="1"/>
        <pt x="88" y="939" on="0"/>
        <pt x="272" y="1287" on="0"/>
        <pt x="602" y="1479" on="0"/>
        <pt x="813" y="1479" on="1"/>
      </contour>
      <contour>
        <pt x="691" y="1442" on="0"/>
        <pt x="521" y="1259" on="0"/>
        <pt x="428" y="932" on="0"/>
        <pt x="428" y="721" on="1"/>
        <pt x="428" y="509" on="0"/>
        <pt x="532" y="184" on="0"/>
        <pt x="711" y="8" on="0"/>
        <pt x="819" y="8" on="1"/>
        <pt x="932" y="8" on="0"/>
        <pt x="1103" y="191" on="0"/>
        <pt x="1196" y="518" on="0"/>
        <pt x="1196" y="729" on="1"/>
        <pt x="1196" y="942" on="0"/>
        <pt x="1092" y="1266" on="0"/>
        <pt x="913" y="1442" on="0"/>
        <pt x="804" y="1442" on="1"/>
      </contour>
    </TTGlyph>
    <TTGlyph name="OE" xMin="88" yMin="-29" xMax="1946" yMax="1479">
      <contour>
        <pt x="1932" y="122" on="0"/>
        <pt x="1946" y="0" on="1"/>
        <pt x="1812" y="6" on="0"/>
        <pt x="1493" y="6" on="1"/>
        <pt x="1169" y="6" on="0"/>
        <pt x="974" y="3" on="1"/>
        <pt x="886" y="-29" on="0"/>
        <pt x="798" y="-29" on="1"/>
        <pt x="585" y="-29" on="0"/>
        <pt x="264" y="147" on="0"/>
        <pt x="88" y="482" on="0"/>
        <pt x="88" y="713" on="1"/>
        <pt x="88" y="939" on="0"/>
        <pt x="269" y="1287" on="0"/>
        <pt x="593" y="1479" on="0"/>
        <pt x="800" y="1479" on="1"/>
        <pt x="891" y="1479" on="0"/>
        <pt x="979" y="1447" on="1"/>
        <pt x="1176" y="1444" on="0"/>
        <pt x="1493" y="1444" on="1"/>
        <pt x="1783" y="1444" on="0"/>
        <pt x="1905" y="1450" on="1"/>
        <pt x="1891" y="1295" on="0"/>
        <pt x="1891" y="1171" on="1"/>
        <pt x="1891" y="1082" on="0"/>
        <pt x="1897" y="1032" on="1"/>
        <pt x="1850" y="1032" on="1"/>
        <pt x="1832" y="1171" on="0"/>
        <pt x="1760" y="1333" on="0"/>
        <pt x="1647" y="1403" on="0"/>
        <pt x="1563" y="1403" on="1"/>
        <pt x="1520" y="1403" on="1"/>
        <pt x="1452" y="1403" on="0"/>
        <pt x="1390" y="1379" on="0"/>
        <pt x="1366" y="1310" on="0"/>
        <pt x="1366" y="1233" on="1"/>
        <pt x="1366" y="750" on="1"/>
        <pt x="1451" y="750" on="1"/>
        <pt x="1516" y="750" on="0"/>
        <pt x="1593" y="816" on="0"/>
        <pt x="1627" y="904" on="0"/>
        <pt x="1640" y="967" on="1"/>
        <pt x="1645" y="991" on="1"/>
        <pt x="1692" y="991" on="1"/>
        <pt x="1685" y="900" on="0"/>
        <pt x="1685" y="817" on="1"/>
        <pt x="1686" y="729" on="1"/>
        <pt x="1686" y="636" on="0"/>
        <pt x="1698" y="467" on="1"/>
        <pt x="1651" y="467" on="1"/>
        <pt x="1638" y="544" on="0"/>
        <pt x="1604" y="642" on="0"/>
        <pt x="1524" y="709" on="0"/>
        <pt x="1451" y="709" on="1"/>
        <pt x="1366" y="709" on="1"/>
        <pt x="1366" y="217" on="1"/>
        <pt x="1366" y="140" on="0"/>
        <pt x="1390" y="71" on="0"/>
        <pt x="1452" y="47" on="0"/>
        <pt x="1520" y="47" on="1"/>
        <pt x="1579" y="47" on="1"/>
        <pt x="1710" y="47" on="0"/>
        <pt x="1867" y="236" on="0"/>
        <pt x="1891" y="459" on="1"/>
        <pt x="1938" y="459" on="1"/>
        <pt x="1932" y="393" on="0"/>
        <pt x="1932" y="287" on="1"/>
      </contour>
      <contour>
        <pt x="1041" y="1317" on="0"/>
        <pt x="966" y="1405" on="0"/>
        <pt x="853" y="1442" on="0"/>
        <pt x="792" y="1442" on="1"/>
        <pt x="683" y="1442" on="0"/>
        <pt x="518" y="1259" on="0"/>
        <pt x="428" y="932" on="0"/>
        <pt x="428" y="721" on="1"/>
        <pt x="428" y="508" on="0"/>
        <pt x="528" y="184" on="0"/>
        <pt x="701" y="8" on="0"/>
        <pt x="807" y="8" on="1"/>
        <pt x="860" y="8" on="0"/>
        <pt x="968" y="48" on="0"/>
        <pt x="1041" y="131" on="0"/>
        <pt x="1041" y="193" on="1"/>
        <pt x="1041" y="1245" on="1"/>
      </contour>
    </TTGlyph>
    <TTGlyph name="Oacute" xMin="88" yMin="-29" xMax="1536" yMax="1928">
      <component glyphName=".ttfautohint" x="88" y="0" flags="0x0"/>
      <component glyphName="O" x="0" y="0" flags="0x0"/>
      <component glyphName="acute.case" x="643" y="0" flags="0x0"/>
    </TTGlyph>
    <TTGlyph name="Oacute.loclPLK" xMin="88" yMin="-29" xMax="1536" yMax="1964">
      <component glyphName=".ttfautohint" x="88" y="0" flags="0x0"/>
      <component glyphName="O" x="0" y="0" flags="0x0"/>
      <component glyphName="acute.loclPLK.case" x="700" y="0" flags="0x0"/>
    </TTGlyph>
    <TTGlyph name="Obreve" xMin="88" yMin="-29" xMax="1536" yMax="1875">
      <component glyphName=".ttfautohint" x="88" y="0" flags="0x0"/>
      <component glyphName="O" x="0" y="0" flags="0x0"/>
      <component glyphName="breve.case" x="350" y="0" flags="0x0"/>
    </TTGlyph>
    <TTGlyph name="Ocircumflex" xMin="88" yMin="-29" xMax="1536" yMax="1925">
      <component glyphName=".ttfautohint" x="88" y="0" flags="0x0"/>
      <component glyphName="O" x="0" y="0" flags="0x0"/>
      <component glyphName="circumflex.case" x="377" y="0" flags="0x0"/>
    </TTGlyph>
    <TTGlyph name="Odieresis" xMin="88" yMin="-29" xMax="1536" yMax="1878">
      <component glyphName=".ttfautohint" x="88" y="0" flags="0x0"/>
      <component glyphName="O" x="0" y="0" flags="0x0"/>
      <component glyphName="dieresis.case" x="422" y="0" flags="0x0"/>
    </TTGlyph>
    <TTGlyph name="Ograve" xMin="88" yMin="-29" xMax="1536" yMax="1928">
      <component glyphName=".ttfautohint" x="88" y="0" flags="0x0"/>
      <component glyphName="O" x="0" y="0" flags="0x0"/>
      <component glyphName="grave.case" x="424" y="0" flags="0x0"/>
    </TTGlyph>
    <TTGlyph name="Ohungarumlaut" xMin="88" yMin="-29" xMax="1536" yMax="1940">
      <component glyphName=".ttfautohint" x="88" y="0" flags="0x0"/>
      <component glyphName="O" x="0" y="0" flags="0x0"/>
      <component glyphName="hungarumlaut.case" x="393" y="0" flags="0x0"/>
    </TTGlyph>
    <TTGlyph name="Omacron" xMin="88" yMin="-29" xMax="1536" yMax="1729">
      <component glyphName=".ttfautohint" x="88" y="0" flags="0x0"/>
      <component glyphName="O" x="0" y="0" flags="0x0"/>
      <component glyphName="macron.case" x="397" y="0" flags="0x0"/>
    </TTGlyph>
    <TTGlyph name="Omega" xMin="124" yMin="0" xMax="1427" yMax="1479">
      <contour>
        <pt x="982" y="1479" on="0"/>
        <pt x="1275" y="1356" on="0"/>
        <pt x="1427" y="1126" on="0"/>
        <pt x="1427" y="967" on="1"/>
        <pt x="1427" y="852" on="0"/>
        <pt x="1352" y="652" on="0"/>
        <pt x="1239" y="487" on="0"/>
        <pt x="1139" y="362" on="1"/>
        <pt x="1061" y="265" on="0"/>
        <pt x="958" y="126" on="0"/>
        <pt x="911" y="47" on="1"/>
        <pt x="1020" y="47" on="1"/>
        <pt x="1117" y="47" on="0"/>
        <pt x="1253" y="118" on="0"/>
        <pt x="1342" y="279" on="0"/>
        <pt x="1364" y="414" on="1"/>
        <pt x="1411" y="414" on="1"/>
        <pt x="1405" y="357" on="0"/>
        <pt x="1405" y="266" on="1"/>
        <pt x="1405" y="148" on="0"/>
        <pt x="1419" y="0" on="1"/>
        <pt x="1341" y="6" on="0"/>
        <pt x="1153" y="6" on="1"/>
        <pt x="1079" y="6" on="0"/>
        <pt x="989" y="3" on="1"/>
        <pt x="859" y="0" on="1"/>
        <pt x="859" y="33" on="1"/>
        <pt x="954" y="197" on="0"/>
        <pt x="1111" y="663" on="0"/>
        <pt x="1111" y="926" on="1"/>
        <pt x="1111" y="1180" on="0"/>
        <pt x="955" y="1442" on="0"/>
        <pt x="775" y="1442" on="1"/>
        <pt x="596" y="1442" on="0"/>
        <pt x="440" y="1180" on="0"/>
        <pt x="440" y="926" on="1"/>
        <pt x="440" y="663" on="0"/>
        <pt x="597" y="198" on="0"/>
        <pt x="691" y="33" on="1"/>
        <pt x="691" y="0" on="1"/>
        <pt x="562" y="3" on="1"/>
        <pt x="472" y="6" on="0"/>
        <pt x="398" y="6" on="1"/>
        <pt x="209" y="6" on="0"/>
        <pt x="131" y="0" on="1"/>
        <pt x="146" y="145" on="0"/>
        <pt x="146" y="266" on="1"/>
        <pt x="146" y="357" on="0"/>
        <pt x="140" y="414" on="1"/>
        <pt x="187" y="414" on="1"/>
        <pt x="209" y="279" on="0"/>
        <pt x="298" y="118" on="0"/>
        <pt x="434" y="47" on="0"/>
        <pt x="531" y="47" on="1"/>
        <pt x="640" y="47" on="1"/>
        <pt x="593" y="126" on="0"/>
        <pt x="490" y="265" on="0"/>
        <pt x="412" y="362" on="1"/>
        <pt x="312" y="487" on="0"/>
        <pt x="199" y="652" on="0"/>
        <pt x="124" y="852" on="0"/>
        <pt x="124" y="967" on="1"/>
        <pt x="124" y="1126" on="0"/>
        <pt x="276" y="1356" on="0"/>
        <pt x="569" y="1479" on="0"/>
        <pt x="775" y="1479" on="1"/>
      </contour>
    </TTGlyph>
    <TTGlyph name="Oslash" xMin="88" yMin="-162" xMax="1536" yMax="1595">
      <contour>
        <pt x="1388" y="1261" on="0"/>
        <pt x="1536" y="946" on="0"/>
        <pt x="1536" y="737" on="1"/>
        <pt x="1536" y="511" on="0"/>
        <pt x="1351" y="163" on="0"/>
        <pt x="1022" y="-29" on="0"/>
        <pt x="811" y="-29" on="1"/>
        <pt x="570" y="-29" on="0"/>
        <pt x="395" y="80" on="1"/>
        <pt x="224" y="-162" on="1"/>
        <pt x="181" y="-133" on="1"/>
        <pt x="352" y="109" on="1"/>
        <pt x="225" y="204" on="0"/>
        <pt x="88" y="512" on="0"/>
        <pt x="88" y="713" on="1"/>
        <pt x="88" y="939" on="0"/>
        <pt x="272" y="1287" on="0"/>
        <pt x="602" y="1479" on="0"/>
        <pt x="813" y="1479" on="1"/>
        <pt x="1041" y="1479" on="0"/>
        <pt x="1211" y="1381" on="1"/>
        <pt x="1357" y="1595" on="1"/>
        <pt x="1396" y="1569" on="1"/>
        <pt x="1251" y="1355" on="1"/>
      </contour>
      <contour>
        <pt x="691" y="1442" on="0"/>
        <pt x="521" y="1259" on="0"/>
        <pt x="428" y="932" on="0"/>
        <pt x="428" y="721" on="1"/>
        <pt x="428" y="472" on="0"/>
        <pt x="499" y="292" on="1"/>
        <pt x="1094" y="1226" on="1"/>
        <pt x="1040" y="1330" on="0"/>
        <pt x="890" y="1442" on="0"/>
        <pt x="804" y="1442" on="1"/>
      </contour>
      <contour>
        <pt x="932" y="8" on="0"/>
        <pt x="1103" y="191" on="0"/>
        <pt x="1196" y="518" on="0"/>
        <pt x="1196" y="729" on="1"/>
        <pt x="1196" y="988" on="0"/>
        <pt x="1118" y="1174" on="1"/>
        <pt x="524" y="236" on="1"/>
        <pt x="578" y="126" on="0"/>
        <pt x="731" y="8" on="0"/>
        <pt x="819" y="8" on="1"/>
      </contour>
    </TTGlyph>
    <TTGlyph name="Otilde" xMin="88" yMin="-29" xMax="1536" yMax="1892">
      <component glyphName=".ttfautohint" x="88" y="0" flags="0x0"/>
      <component glyphName="O" x="0" y="0" flags="0x0"/>
      <component glyphName="tilde.case" x="324" y="0" flags="0x0"/>
    </TTGlyph>
    <TTGlyph name="P" xMin="69" yMin="0" xMax="1269" yMax="1450">
      <contour>
        <pt x="548" y="229" on="1"/>
        <pt x="548" y="147" on="0"/>
        <pt x="582" y="72" on="0"/>
        <pt x="670" y="46" on="0"/>
        <pt x="767" y="45" on="1"/>
        <pt x="767" y="0" on="1"/>
        <pt x="599" y="6" on="0"/>
        <pt x="394" y="6" on="1"/>
        <pt x="247" y="6" on="0"/>
        <pt x="69" y="0" on="1"/>
        <pt x="69" y="41" on="1"/>
        <pt x="138" y="44" on="0"/>
        <pt x="199" y="70" on="0"/>
        <pt x="222" y="140" on="0"/>
        <pt x="222" y="217" on="1"/>
        <pt x="222" y="1233" on="1"/>
        <pt x="222" y="1310" on="0"/>
        <pt x="199" y="1380" on="0"/>
        <pt x="137" y="1406" on="0"/>
        <pt x="69" y="1409" on="1"/>
        <pt x="69" y="1450" on="1"/>
        <pt x="173" y="1444" on="0"/>
        <pt x="380" y="1444" on="1"/>
        <pt x="418" y="1444" on="0"/>
        <pt x="610" y="1447" on="1"/>
        <pt x="702" y="1448" on="1"/>
        <pt x="888" y="1448" on="0"/>
        <pt x="1142" y="1347" on="0"/>
        <pt x="1269" y="1165" on="0"/>
        <pt x="1269" y="1044" on="1"/>
        <pt x="1269" y="931" on="0"/>
        <pt x="1156" y="724" on="0"/>
        <pt x="883" y="586" on="0"/>
        <pt x="657" y="586" on="1"/>
        <pt x="548" y="586" on="1"/>
      </contour>
      <contour>
        <pt x="621" y="1409" on="0"/>
        <pt x="568" y="1380" on="0"/>
        <pt x="548" y="1306" on="0"/>
        <pt x="548" y="1233" on="1"/>
        <pt x="548" y="627" on="1"/>
        <pt x="636" y="627" on="1"/>
        <pt x="803" y="627" on="0"/>
        <pt x="929" y="840" on="0"/>
        <pt x="929" y="1022" on="1"/>
        <pt x="929" y="1221" on="0"/>
        <pt x="811" y="1409" on="0"/>
        <pt x="675" y="1409" on="1"/>
      </contour>
    </TTGlyph>
    <TTGlyph name="Q" xMin="88" yMin="-385" xMax="1601" yMax="1479">
      <contour>
        <pt x="1567" y="-218" on="0"/>
        <pt x="1459" y="-305" on="1"/>
        <pt x="1414" y="-342" on="0"/>
        <pt x="1278" y="-385" on="0"/>
        <pt x="1195" y="-385" on="1"/>
        <pt x="1118" y="-385" on="0"/>
        <pt x="964" y="-349" on="0"/>
        <pt x="824" y="-295" on="0"/>
        <pt x="714" y="-247" on="1"/>
        <pt x="568" y="-185" on="0"/>
        <pt x="523" y="-168" on="1"/>
        <pt x="487" y="-155" on="0"/>
        <pt x="474" y="-154" on="1"/>
        <pt x="383" y="-197" on="0"/>
        <pt x="303" y="-197" on="1"/>
        <pt x="259" y="-197" on="0"/>
        <pt x="208" y="-170" on="0"/>
        <pt x="208" y="-143" on="1"/>
        <pt x="208" y="-88" on="0"/>
        <pt x="319" y="-88" on="1"/>
        <pt x="392" y="-88" on="0"/>
        <pt x="474" y="-117" on="1"/>
        <pt x="534" y="-101" on="0"/>
        <pt x="629" y="-60" on="1"/>
        <pt x="671" y="-41" on="0"/>
        <pt x="716" y="-24" on="1"/>
        <pt x="525" y="-5" on="0"/>
        <pt x="242" y="180" on="0"/>
        <pt x="88" y="499" on="0"/>
        <pt x="88" y="713" on="1"/>
        <pt x="88" y="939" on="0"/>
        <pt x="272" y="1287" on="0"/>
        <pt x="602" y="1479" on="0"/>
        <pt x="813" y="1479" on="1"/>
        <pt x="1030" y="1479" on="0"/>
        <pt x="1356" y="1303" on="0"/>
        <pt x="1536" y="968" on="0"/>
        <pt x="1536" y="737" on="1"/>
        <pt x="1536" y="519" on="0"/>
        <pt x="1363" y="178" on="0"/>
        <pt x="1052" y="-19" on="0"/>
        <pt x="852" y="-28" on="1"/>
        <pt x="805" y="-34" on="0"/>
        <pt x="729" y="-58" on="0"/>
        <pt x="674" y="-81" on="1"/>
        <pt x="602" y="-111" on="0"/>
        <pt x="546" y="-127" on="1"/>
        <pt x="690" y="-139" on="1"/>
        <pt x="971" y="-163" on="0"/>
        <pt x="1088" y="-163" on="1"/>
        <pt x="1171" y="-163" on="0"/>
        <pt x="1242" y="-154" on="1"/>
        <pt x="1369" y="-139" on="0"/>
        <pt x="1516" y="-58" on="0"/>
        <pt x="1565" y="25" on="1"/>
        <pt x="1601" y="14" on="1"/>
      </contour>
      <contour>
        <pt x="428" y="509" on="0"/>
        <pt x="532" y="184" on="0"/>
        <pt x="711" y="8" on="0"/>
        <pt x="819" y="8" on="1"/>
        <pt x="932" y="8" on="0"/>
        <pt x="1103" y="191" on="0"/>
        <pt x="1196" y="518" on="0"/>
        <pt x="1196" y="729" on="1"/>
        <pt x="1196" y="942" on="0"/>
        <pt x="1092" y="1266" on="0"/>
        <pt x="913" y="1442" on="0"/>
        <pt x="804" y="1442" on="1"/>
        <pt x="691" y="1442" on="0"/>
        <pt x="521" y="1259" on="0"/>
        <pt x="428" y="932" on="0"/>
        <pt x="428" y="721" on="1"/>
      </contour>
    </TTGlyph>
    <TTGlyph name="R" xMin="69" yMin="-29" xMax="1457" yMax="1450">
      <contour>
        <pt x="1402" y="27" on="0"/>
        <pt x="1275" y="-29" on="0"/>
        <pt x="1185" y="-29" on="1"/>
        <pt x="1068" y="-29" on="0"/>
        <pt x="930" y="71" on="0"/>
        <pt x="908" y="193" on="1"/>
        <pt x="872" y="397" on="1"/>
        <pt x="855" y="497" on="0"/>
        <pt x="815" y="617" on="0"/>
        <pt x="742" y="688" on="0"/>
        <pt x="681" y="688" on="1"/>
        <pt x="548" y="688" on="1"/>
        <pt x="548" y="217" on="1"/>
        <pt x="548" y="140" on="0"/>
        <pt x="571" y="70" on="0"/>
        <pt x="633" y="44" on="0"/>
        <pt x="702" y="41" on="1"/>
        <pt x="702" y="0" on="1"/>
        <pt x="591" y="6" on="0"/>
        <pt x="392" y="6" on="1"/>
        <pt x="173" y="6" on="0"/>
        <pt x="69" y="0" on="1"/>
        <pt x="69" y="41" on="1"/>
        <pt x="138" y="44" on="0"/>
        <pt x="199" y="70" on="0"/>
        <pt x="222" y="140" on="0"/>
        <pt x="222" y="217" on="1"/>
        <pt x="222" y="1233" on="1"/>
        <pt x="222" y="1310" on="0"/>
        <pt x="199" y="1380" on="0"/>
        <pt x="137" y="1406" on="0"/>
        <pt x="69" y="1409" on="1"/>
        <pt x="69" y="1450" on="1"/>
        <pt x="173" y="1444" on="0"/>
        <pt x="380" y="1444" on="1"/>
        <pt x="418" y="1444" on="0"/>
        <pt x="610" y="1447" on="1"/>
        <pt x="702" y="1448" on="1"/>
        <pt x="984" y="1448" on="0"/>
        <pt x="1269" y="1263" on="0"/>
        <pt x="1269" y="1092" on="1"/>
        <pt x="1269" y="1000" on="0"/>
        <pt x="1183" y="836" on="0"/>
        <pt x="978" y="715" on="0"/>
        <pt x="809" y="696" on="1"/>
        <pt x="810" y="696" on="1"/>
        <pt x="934" y="685" on="0"/>
        <pt x="1094" y="623" on="0"/>
        <pt x="1185" y="512" on="0"/>
        <pt x="1203" y="426" on="1"/>
        <pt x="1249" y="215" on="1"/>
        <pt x="1266" y="132" on="0"/>
        <pt x="1308" y="68" on="0"/>
        <pt x="1346" y="68" on="1"/>
        <pt x="1371" y="68" on="0"/>
        <pt x="1408" y="90" on="0"/>
        <pt x="1429" y="115" on="1"/>
        <pt x="1457" y="90" on="1"/>
      </contour>
      <contour>
        <pt x="621" y="1409" on="0"/>
        <pt x="568" y="1380" on="0"/>
        <pt x="548" y="1306" on="0"/>
        <pt x="548" y="1233" on="1"/>
        <pt x="548" y="729" on="1"/>
        <pt x="636" y="729" on="1"/>
        <pt x="751" y="729" on="0"/>
        <pt x="880" y="817" on="0"/>
        <pt x="929" y="965" on="0"/>
        <pt x="929" y="1069" on="1"/>
        <pt x="929" y="1237" on="0"/>
        <pt x="810" y="1409" on="0"/>
        <pt x="675" y="1409" on="1"/>
      </contour>
    </TTGlyph>
    <TTGlyph name="Racute" xMin="69" yMin="-29" xMax="1457" yMax="1928">
      <component glyphName=".ttfautohint" x="69" y="0" flags="0x0"/>
      <component glyphName="R" x="0" y="0" flags="0x0"/>
      <component glyphName="acute.case" x="497" y="0" flags="0x0"/>
    </TTGlyph>
    <TTGlyph name="Rcaron" xMin="69" yMin="-29" xMax="1457" yMax="1921">
      <component glyphName=".ttfautohint" x="69" y="0" flags="0x0"/>
      <component glyphName="R" x="0" y="0" flags="0x0"/>
      <component glyphName="caron.case" x="225" y="0" flags="0x0"/>
    </TTGlyph>
    <TTGlyph name="Rcommaaccent" xMin="69" yMin="-498" xMax="1457" yMax="1450">
      <component glyphName=".ttfautohint" x="69" y="0" flags="0x0"/>
      <component glyphName="R" x="0" y="0" flags="0x0"/>
      <component glyphName="commaaccentcomb.case" x="532" y="0" flags="0x0"/>
    </TTGlyph>
    <TTGlyph name="S" xMin="112" yMin="-29" xMax="1111" yMax="1476">
      <contour>
        <pt x="688" y="1476" on="0"/>
        <pt x="816" y="1435" on="0"/>
        <pt x="880" y="1397" on="1"/>
        <pt x="928" y="1368" on="0"/>
        <pt x="949" y="1368" on="1"/>
        <pt x="968" y="1368" on="0"/>
        <pt x="988" y="1410" on="0"/>
        <pt x="995" y="1458" on="1"/>
        <pt x="1042" y="1458" on="1"/>
        <pt x="1031" y="1331" on="0"/>
        <pt x="1031" y="991" on="1"/>
        <pt x="984" y="991" on="1"/>
        <pt x="977" y="1103" on="0"/>
        <pt x="893" y="1302" on="0"/>
        <pt x="740" y="1427" on="0"/>
        <pt x="636" y="1427" on="1"/>
        <pt x="570" y="1427" on="0"/>
        <pt x="468" y="1376" on="0"/>
        <pt x="411" y="1282" on="0"/>
        <pt x="411" y="1218" on="1"/>
        <pt x="411" y="1146" on="0"/>
        <pt x="475" y="1040" on="0"/>
        <pt x="588" y="950" on="0"/>
        <pt x="706" y="871" on="1"/>
        <pt x="740" y="850" on="0"/>
        <pt x="765" y="832" on="1"/>
        <pt x="884" y="753" on="0"/>
        <pt x="1024" y="633" on="0"/>
        <pt x="1111" y="475" on="0"/>
        <pt x="1111" y="370" on="1"/>
        <pt x="1111" y="240" on="0"/>
        <pt x="975" y="60" on="0"/>
        <pt x="745" y="-29" on="0"/>
        <pt x="603" y="-29" on="1"/>
        <pt x="489" y="-29" on="0"/>
        <pt x="339" y="12" on="0"/>
        <pt x="274" y="47" on="1"/>
        <pt x="228" y="76" on="0"/>
        <pt x="204" y="76" on="1"/>
        <pt x="185" y="76" on="0"/>
        <pt x="165" y="33" on="0"/>
        <pt x="159" y="-14" on="1"/>
        <pt x="112" y="-14" on="1"/>
        <pt x="120" y="114" on="0"/>
        <pt x="120" y="539" on="1"/>
        <pt x="167" y="539" on="1"/>
        <pt x="181" y="310" on="0"/>
        <pt x="357" y="25" on="0"/>
        <pt x="540" y="25" on="1"/>
        <pt x="613" y="25" on="0"/>
        <pt x="728" y="77" on="0"/>
        <pt x="794" y="180" on="0"/>
        <pt x="794" y="254" on="1"/>
        <pt x="794" y="334" on="0"/>
        <pt x="719" y="462" on="0"/>
        <pt x="592" y="567" on="0"/>
        <pt x="487" y="635" on="1"/>
        <pt x="364" y="713" on="0"/>
        <pt x="217" y="832" on="0"/>
        <pt x="122" y="995" on="0"/>
        <pt x="122" y="1102" on="1"/>
        <pt x="122" y="1226" on="0"/>
        <pt x="248" y="1394" on="0"/>
        <pt x="456" y="1476" on="0"/>
        <pt x="581" y="1476" on="1"/>
      </contour>
    </TTGlyph>
    <TTGlyph name="Sacute" xMin="112" yMin="-29" xMax="1111" yMax="1928">
      <component glyphName=".ttfautohint" x="112" y="0" flags="0x0"/>
      <component glyphName="S" x="0" y="0" flags="0x0"/>
      <component glyphName="acute.case" x="444" y="0" flags="0x0"/>
    </TTGlyph>
    <TTGlyph name="Sacute.loclPLK" xMin="112" yMin="-29" xMax="1111" yMax="1964">
      <component glyphName=".ttfautohint" x="112" y="0" flags="0x0"/>
      <component glyphName="S" x="0" y="0" flags="0x0"/>
      <component glyphName="acute.loclPLK.case" x="501" y="0" flags="0x0"/>
    </TTGlyph>
    <TTGlyph name="Scaron" xMin="112" yMin="-29" xMax="1111" yMax="1921">
      <component glyphName=".ttfautohint" x="112" y="0" flags="0x0"/>
      <component glyphName="S" x="0" y="0" flags="0x0"/>
      <component glyphName="caron.case" x="172" y="0" flags="0x0"/>
    </TTGlyph>
    <TTGlyph name="Scedilla" xMin="112" yMin="-385" xMax="1111" yMax="1476">
      <contour>
        <pt x="1111" y="245" on="0"/>
        <pt x="984" y="68" on="0"/>
        <pt x="767" y="-24" on="0"/>
        <pt x="632" y="-29" on="1"/>
        <pt x="599" y="-133" on="1"/>
        <pt x="669" y="-109" on="0"/>
        <pt x="757" y="-109" on="1"/>
        <pt x="830" y="-109" on="0"/>
        <pt x="910" y="-168" on="0"/>
        <pt x="910" y="-218" on="1"/>
        <pt x="910" y="-301" on="0"/>
        <pt x="727" y="-385" on="0"/>
        <pt x="586" y="-385" on="1"/>
        <pt x="469" y="-385" on="0"/>
        <pt x="396" y="-360" on="1"/>
        <pt x="406" y="-323" on="1"/>
        <pt x="466" y="-332" on="0"/>
        <pt x="509" y="-332" on="1"/>
        <pt x="584" y="-332" on="0"/>
        <pt x="695" y="-291" on="0"/>
        <pt x="695" y="-248" on="1"/>
        <pt x="695" y="-195" on="0"/>
        <pt x="602" y="-195" on="1"/>
        <pt x="555" y="-195" on="0"/>
        <pt x="521" y="-209" on="1"/>
        <pt x="577" y="-29" on="1"/>
        <pt x="474" y="-26" on="0"/>
        <pt x="335" y="14" on="0"/>
        <pt x="274" y="47" on="1"/>
        <pt x="228" y="76" on="0"/>
        <pt x="204" y="76" on="1"/>
        <pt x="185" y="76" on="0"/>
        <pt x="165" y="33" on="0"/>
        <pt x="159" y="-14" on="1"/>
        <pt x="112" y="-14" on="1"/>
        <pt x="120" y="114" on="0"/>
        <pt x="120" y="539" on="1"/>
        <pt x="167" y="539" on="1"/>
        <pt x="181" y="310" on="0"/>
        <pt x="357" y="25" on="0"/>
        <pt x="540" y="25" on="1"/>
        <pt x="613" y="25" on="0"/>
        <pt x="728" y="77" on="0"/>
        <pt x="794" y="180" on="0"/>
        <pt x="794" y="254" on="1"/>
        <pt x="794" y="334" on="0"/>
        <pt x="719" y="462" on="0"/>
        <pt x="592" y="567" on="0"/>
        <pt x="487" y="635" on="1"/>
        <pt x="364" y="713" on="0"/>
        <pt x="217" y="832" on="0"/>
        <pt x="122" y="995" on="0"/>
        <pt x="122" y="1102" on="1"/>
        <pt x="122" y="1226" on="0"/>
        <pt x="248" y="1394" on="0"/>
        <pt x="456" y="1476" on="0"/>
        <pt x="581" y="1476" on="1"/>
        <pt x="688" y="1476" on="0"/>
        <pt x="816" y="1435" on="0"/>
        <pt x="880" y="1397" on="1"/>
        <pt x="928" y="1368" on="0"/>
        <pt x="949" y="1368" on="1"/>
        <pt x="968" y="1368" on="0"/>
        <pt x="988" y="1410" on="0"/>
        <pt x="995" y="1458" on="1"/>
        <pt x="1042" y="1458" on="1"/>
        <pt x="1031" y="1331" on="0"/>
        <pt x="1031" y="991" on="1"/>
        <pt x="984" y="991" on="1"/>
        <pt x="977" y="1103" on="0"/>
        <pt x="893" y="1302" on="0"/>
        <pt x="740" y="1427" on="0"/>
        <pt x="636" y="1427" on="1"/>
        <pt x="570" y="1427" on="0"/>
        <pt x="468" y="1376" on="0"/>
        <pt x="411" y="1282" on="0"/>
        <pt x="411" y="1218" on="1"/>
        <pt x="411" y="1146" on="0"/>
        <pt x="475" y="1040" on="0"/>
        <pt x="588" y="950" on="0"/>
        <pt x="706" y="871" on="1"/>
        <pt x="740" y="850" on="0"/>
        <pt x="765" y="832" on="1"/>
        <pt x="884" y="753" on="0"/>
        <pt x="1024" y="633" on="0"/>
        <pt x="1111" y="475" on="0"/>
        <pt x="1111" y="370" on="1"/>
      </contour>
    </TTGlyph>
    <TTGlyph name="Scircumflex" xMin="112" yMin="-29" xMax="1111" yMax="1925">
      <component glyphName=".ttfautohint" x="112" y="0" flags="0x0"/>
      <component glyphName="S" x="0" y="0" flags="0x0"/>
      <component glyphName="circumflex.case" x="178" y="0" flags="0x0"/>
    </TTGlyph>
    <TTGlyph name="Scommaaccent" xMin="112" yMin="-498" xMax="1111" yMax="1476">
      <component glyphName=".ttfautohint" x="112" y="0" flags="0x0"/>
      <component glyphName="S" x="0" y="0" flags="0x0"/>
      <component glyphName="commaaccentcomb.case" x="403" y="0" flags="0x0"/>
    </TTGlyph>
    <TTGlyph name="T" xMin="52" yMin="0" xMax="1316" yMax="1450">
      <contour>
        <pt x="1301" y="1260" on="0"/>
        <pt x="1301" y="1102" on="1"/>
        <pt x="1301" y="1003" on="0"/>
        <pt x="1307" y="946" on="1"/>
        <pt x="1260" y="946" on="1"/>
        <pt x="1226" y="1118" on="0"/>
        <pt x="1128" y="1317" on="0"/>
        <pt x="990" y="1403" on="0"/>
        <pt x="892" y="1403" on="1"/>
        <pt x="847" y="1403" on="1"/>
        <pt x="847" y="234" on="1"/>
        <pt x="847" y="148" on="0"/>
        <pt x="881" y="70" on="0"/>
        <pt x="970" y="42" on="0"/>
        <pt x="1066" y="41" on="1"/>
        <pt x="1066" y="0" on="1"/>
        <pt x="892" y="6" on="0"/>
        <pt x="676" y="6" on="1"/>
        <pt x="464" y="6" on="0"/>
        <pt x="302" y="0" on="1"/>
        <pt x="302" y="41" on="1"/>
        <pt x="398" y="42" on="0"/>
        <pt x="487" y="70" on="0"/>
        <pt x="521" y="148" on="0"/>
        <pt x="521" y="234" on="1"/>
        <pt x="521" y="1403" on="1"/>
        <pt x="476" y="1403" on="1"/>
        <pt x="377" y="1403" on="0"/>
        <pt x="240" y="1317" on="0"/>
        <pt x="142" y="1118" on="0"/>
        <pt x="107" y="946" on="1"/>
        <pt x="60" y="946" on="1"/>
        <pt x="66" y="1003" on="0"/>
        <pt x="66" y="1102" on="1"/>
        <pt x="66" y="1255" on="0"/>
        <pt x="52" y="1450" on="1"/>
        <pt x="237" y="1444" on="0"/>
        <pt x="685" y="1444" on="1"/>
        <pt x="1131" y="1444" on="0"/>
        <pt x="1316" y="1450" on="1"/>
      </contour>
    </TTGlyph>
    <TTGlyph name="Tbar" xMin="54" yMin="0" xMax="1318" yMax="1450">
      <contour>
        <pt x="1303" y="1260" on="0"/>
        <pt x="1303" y="1102" on="1"/>
        <pt x="1303" y="1003" on="0"/>
        <pt x="1309" y="946" on="1"/>
        <pt x="1262" y="946" on="1"/>
        <pt x="1228" y="1118" on="0"/>
        <pt x="1130" y="1317" on="0"/>
        <pt x="992" y="1403" on="0"/>
        <pt x="894" y="1403" on="1"/>
        <pt x="849" y="1403" on="1"/>
        <pt x="849" y="750" on="1"/>
        <pt x="1119" y="750" on="1"/>
        <pt x="1119" y="709" on="1"/>
        <pt x="849" y="709" on="1"/>
        <pt x="849" y="234" on="1"/>
        <pt x="849" y="148" on="0"/>
        <pt x="883" y="70" on="0"/>
        <pt x="972" y="42" on="0"/>
        <pt x="1068" y="41" on="1"/>
        <pt x="1068" y="0" on="1"/>
        <pt x="894" y="6" on="0"/>
        <pt x="678" y="6" on="1"/>
        <pt x="466" y="6" on="0"/>
        <pt x="304" y="0" on="1"/>
        <pt x="304" y="41" on="1"/>
        <pt x="400" y="42" on="0"/>
        <pt x="489" y="70" on="0"/>
        <pt x="523" y="148" on="0"/>
        <pt x="523" y="234" on="1"/>
        <pt x="523" y="709" on="1"/>
        <pt x="235" y="709" on="1"/>
        <pt x="235" y="750" on="1"/>
        <pt x="523" y="750" on="1"/>
        <pt x="523" y="1403" on="1"/>
        <pt x="478" y="1403" on="1"/>
        <pt x="379" y="1403" on="0"/>
        <pt x="242" y="1317" on="0"/>
        <pt x="144" y="1118" on="0"/>
        <pt x="109" y="946" on="1"/>
        <pt x="62" y="946" on="1"/>
        <pt x="68" y="1003" on="0"/>
        <pt x="68" y="1102" on="1"/>
        <pt x="68" y="1255" on="0"/>
        <pt x="54" y="1450" on="1"/>
        <pt x="239" y="1444" on="0"/>
        <pt x="687" y="1444" on="1"/>
        <pt x="1133" y="1444" on="0"/>
        <pt x="1318" y="1450" on="1"/>
      </contour>
    </TTGlyph>
    <TTGlyph name="Tcaron" xMin="52" yMin="0" xMax="1316" yMax="1921">
      <component glyphName=".ttfautohint" x="52" y="0" flags="0x0"/>
      <component glyphName="T" x="0" y="0" flags="0x0"/>
      <component glyphName="caron.case" x="247" y="0" flags="0x0"/>
    </TTGlyph>
    <TTGlyph name="Tcedilla" xMin="52" yMin="-385" xMax="1316" yMax="1450">
      <contour>
        <pt x="1301" y="1260" on="0"/>
        <pt x="1301" y="1102" on="1"/>
        <pt x="1301" y="1003" on="0"/>
        <pt x="1307" y="946" on="1"/>
        <pt x="1260" y="946" on="1"/>
        <pt x="1226" y="1118" on="0"/>
        <pt x="1128" y="1317" on="0"/>
        <pt x="990" y="1403" on="0"/>
        <pt x="892" y="1403" on="1"/>
        <pt x="847" y="1403" on="1"/>
        <pt x="847" y="234" on="1"/>
        <pt x="847" y="148" on="0"/>
        <pt x="881" y="70" on="0"/>
        <pt x="970" y="42" on="0"/>
        <pt x="1066" y="41" on="1"/>
        <pt x="1066" y="0" on="1"/>
        <pt x="904" y="6" on="0"/>
        <pt x="705" y="6" on="1"/>
        <pt x="661" y="-133" on="1"/>
        <pt x="732" y="-109" on="0"/>
        <pt x="819" y="-109" on="1"/>
        <pt x="892" y="-109" on="0"/>
        <pt x="972" y="-168" on="0"/>
        <pt x="972" y="-218" on="1"/>
        <pt x="972" y="-301" on="0"/>
        <pt x="789" y="-385" on="0"/>
        <pt x="648" y="-385" on="1"/>
        <pt x="531" y="-385" on="0"/>
        <pt x="458" y="-360" on="1"/>
        <pt x="468" y="-323" on="1"/>
        <pt x="528" y="-332" on="0"/>
        <pt x="571" y="-332" on="1"/>
        <pt x="646" y="-332" on="0"/>
        <pt x="757" y="-291" on="0"/>
        <pt x="757" y="-248" on="1"/>
        <pt x="757" y="-195" on="0"/>
        <pt x="664" y="-195" on="1"/>
        <pt x="617" y="-195" on="0"/>
        <pt x="583" y="-209" on="1"/>
        <pt x="650" y="6" on="1"/>
        <pt x="454" y="6" on="0"/>
        <pt x="302" y="0" on="1"/>
        <pt x="302" y="41" on="1"/>
        <pt x="398" y="42" on="0"/>
        <pt x="487" y="70" on="0"/>
        <pt x="521" y="148" on="0"/>
        <pt x="521" y="234" on="1"/>
        <pt x="521" y="1403" on="1"/>
        <pt x="476" y="1403" on="1"/>
        <pt x="377" y="1403" on="0"/>
        <pt x="240" y="1317" on="0"/>
        <pt x="142" y="1118" on="0"/>
        <pt x="107" y="946" on="1"/>
        <pt x="60" y="946" on="1"/>
        <pt x="66" y="1003" on="0"/>
        <pt x="66" y="1102" on="1"/>
        <pt x="66" y="1255" on="0"/>
        <pt x="52" y="1450" on="1"/>
        <pt x="237" y="1444" on="0"/>
        <pt x="685" y="1444" on="1"/>
        <pt x="1131" y="1444" on="0"/>
        <pt x="1316" y="1450" on="1"/>
      </contour>
    </TTGlyph>
    <TTGlyph name="Thorn" xMin="69" yMin="0" xMax="1230" yMax="1450">
      <contour>
        <pt x="548" y="217" on="1"/>
        <pt x="548" y="140" on="0"/>
        <pt x="571" y="70" on="0"/>
        <pt x="633" y="44" on="0"/>
        <pt x="702" y="41" on="1"/>
        <pt x="702" y="0" on="1"/>
        <pt x="591" y="6" on="0"/>
        <pt x="392" y="6" on="1"/>
        <pt x="173" y="6" on="0"/>
        <pt x="69" y="0" on="1"/>
        <pt x="69" y="41" on="1"/>
        <pt x="138" y="44" on="0"/>
        <pt x="199" y="70" on="0"/>
        <pt x="222" y="140" on="0"/>
        <pt x="222" y="217" on="1"/>
        <pt x="222" y="1233" on="1"/>
        <pt x="222" y="1310" on="0"/>
        <pt x="199" y="1380" on="0"/>
        <pt x="137" y="1406" on="0"/>
        <pt x="69" y="1409" on="1"/>
        <pt x="69" y="1450" on="1"/>
        <pt x="173" y="1444" on="0"/>
        <pt x="392" y="1444" on="1"/>
        <pt x="591" y="1444" on="0"/>
        <pt x="702" y="1450" on="1"/>
        <pt x="702" y="1409" on="1"/>
        <pt x="633" y="1406" on="0"/>
        <pt x="571" y="1380" on="0"/>
        <pt x="548" y="1310" on="0"/>
        <pt x="548" y="1233" on="1"/>
        <pt x="548" y="1160" on="1"/>
        <pt x="663" y="1162" on="1"/>
        <pt x="945" y="1162" on="0"/>
        <pt x="1230" y="959" on="0"/>
        <pt x="1230" y="769" on="1"/>
        <pt x="1230" y="641" on="0"/>
        <pt x="1119" y="431" on="0"/>
        <pt x="846" y="300" on="0"/>
        <pt x="618" y="300" on="1"/>
        <pt x="548" y="300" on="1"/>
      </contour>
      <contour>
        <pt x="548" y="1122" on="1"/>
        <pt x="548" y="341" on="1"/>
        <pt x="597" y="341" on="1"/>
        <pt x="764" y="341" on="0"/>
        <pt x="890" y="560" on="0"/>
        <pt x="890" y="750" on="1"/>
        <pt x="890" y="939" on="0"/>
        <pt x="761" y="1123" on="0"/>
        <pt x="612" y="1123" on="1"/>
      </contour>
    </TTGlyph>
    <TTGlyph name="U" xMin="38" yMin="-29" xMax="1373" yMax="1450">
      <contour>
        <pt x="1307" y="1400" on="0"/>
        <pt x="1243" y="1349" on="0"/>
        <pt x="1220" y="1243" on="0"/>
        <pt x="1220" y="1139" on="1"/>
        <pt x="1220" y="596" on="1"/>
        <pt x="1220" y="453" on="0"/>
        <pt x="1182" y="238" on="0"/>
        <pt x="1136" y="162" on="1"/>
        <pt x="1082" y="71" on="0"/>
        <pt x="874" y="-29" on="0"/>
        <pt x="722" y="-29" on="1"/>
        <pt x="483" y="-29" on="0"/>
        <pt x="353" y="75" on="1"/>
        <pt x="288" y="127" on="0"/>
        <pt x="218" y="264" on="0"/>
        <pt x="192" y="450" on="0"/>
        <pt x="192" y="590" on="1"/>
        <pt x="192" y="1233" on="1"/>
        <pt x="192" y="1310" on="0"/>
        <pt x="169" y="1380" on="0"/>
        <pt x="107" y="1406" on="0"/>
        <pt x="38" y="1409" on="1"/>
        <pt x="38" y="1450" on="1"/>
        <pt x="143" y="1444" on="0"/>
        <pt x="359" y="1444" on="1"/>
        <pt x="569" y="1444" on="0"/>
        <pt x="683" y="1450" on="1"/>
        <pt x="683" y="1409" on="1"/>
        <pt x="609" y="1406" on="0"/>
        <pt x="542" y="1380" on="0"/>
        <pt x="517" y="1310" on="0"/>
        <pt x="517" y="1233" on="1"/>
        <pt x="517" y="460" on="1"/>
        <pt x="517" y="317" on="0"/>
        <pt x="569" y="136" on="0"/>
        <pt x="693" y="43" on="0"/>
        <pt x="800" y="43" on="1"/>
        <pt x="1004" y="43" on="0"/>
        <pt x="1173" y="319" on="0"/>
        <pt x="1173" y="573" on="1"/>
        <pt x="1173" y="1114" on="1"/>
        <pt x="1173" y="1233" on="0"/>
        <pt x="1144" y="1348" on="0"/>
        <pt x="1062" y="1400" on="0"/>
        <pt x="974" y="1409" on="1"/>
        <pt x="974" y="1450" on="1"/>
        <pt x="1054" y="1444" on="0"/>
        <pt x="1195" y="1444" on="1"/>
        <pt x="1310" y="1444" on="0"/>
        <pt x="1373" y="1450" on="1"/>
        <pt x="1373" y="1409" on="1"/>
      </contour>
    </TTGlyph>
    <TTGlyph name="Uacute" xMin="38" yMin="-29" xMax="1373" yMax="1928">
      <component glyphName=".ttfautohint" x="38" y="0" flags="0x0"/>
      <component glyphName="U" x="0" y="0" flags="0x0"/>
      <component glyphName="acute.case" x="566" y="0" flags="0x0"/>
    </TTGlyph>
    <TTGlyph name="Ubreve" xMin="38" yMin="-29" xMax="1373" yMax="1875">
      <component glyphName=".ttfautohint" x="38" y="0" flags="0x0"/>
      <component glyphName="U" x="0" y="0" flags="0x0"/>
      <component glyphName="breve.case" x="273" y="0" flags="0x0"/>
    </TTGlyph>
    <TTGlyph name="Ucircumflex" xMin="38" yMin="-29" xMax="1373" yMax="1925">
      <component glyphName=".ttfautohint" x="38" y="0" flags="0x0"/>
      <component glyphName="U" x="0" y="0" flags="0x0"/>
      <component glyphName="circumflex.case" x="300" y="0" flags="0x0"/>
    </TTGlyph>
    <TTGlyph name="Udieresis" xMin="38" yMin="-29" xMax="1373" yMax="1878">
      <component glyphName=".ttfautohint" x="38" y="0" flags="0x0"/>
      <component glyphName="U" x="0" y="0" flags="0x0"/>
      <component glyphName="dieresis.case" x="345" y="0" flags="0x0"/>
    </TTGlyph>
    <TTGlyph name="Ugrave" xMin="38" yMin="-29" xMax="1373" yMax="1928">
      <component glyphName=".ttfautohint" x="38" y="0" flags="0x0"/>
      <component glyphName="U" x="0" y="0" flags="0x0"/>
      <component glyphName="grave.case" x="347" y="0" flags="0x0"/>
    </TTGlyph>
    <TTGlyph name="Uhungarumlaut" xMin="38" yMin="-29" xMax="1373" yMax="1940">
      <component glyphName=".ttfautohint" x="38" y="0" flags="0x0"/>
      <component glyphName="U" x="0" y="0" flags="0x0"/>
      <component glyphName="hungarumlaut.case" x="316" y="0" flags="0x0"/>
    </TTGlyph>
    <TTGlyph name="Umacron" xMin="38" yMin="-29" xMax="1373" yMax="1729">
      <component glyphName=".ttfautohint" x="38" y="0" flags="0x0"/>
      <component glyphName="U" x="0" y="0" flags="0x0"/>
      <component glyphName="macron.case" x="320" y="0" flags="0x0"/>
    </TTGlyph>
    <TTGlyph name="Uogonek" xMin="38" yMin="-385" xMax="1373" yMax="1450">
      <contour>
        <pt x="1310" y="1444" on="0"/>
        <pt x="1373" y="1450" on="1"/>
        <pt x="1373" y="1409" on="1"/>
        <pt x="1307" y="1400" on="0"/>
        <pt x="1243" y="1349" on="0"/>
        <pt x="1220" y="1243" on="0"/>
        <pt x="1220" y="1139" on="1"/>
        <pt x="1220" y="596" on="1"/>
        <pt x="1220" y="453" on="0"/>
        <pt x="1182" y="238" on="0"/>
        <pt x="1136" y="162" on="1"/>
        <pt x="1061" y="38" on="0"/>
        <pt x="904" y="-6" on="1"/>
        <pt x="808" y="-42" on="0"/>
        <pt x="717" y="-141" on="0"/>
        <pt x="717" y="-189" on="1"/>
        <pt x="717" y="-272" on="0"/>
        <pt x="801" y="-272" on="1"/>
        <pt x="836" y="-272" on="0"/>
        <pt x="910" y="-240" on="0"/>
        <pt x="932" y="-217" on="1"/>
        <pt x="961" y="-246" on="1"/>
        <pt x="906" y="-319" on="0"/>
        <pt x="772" y="-385" on="0"/>
        <pt x="680" y="-385" on="1"/>
        <pt x="591" y="-385" on="0"/>
        <pt x="494" y="-311" on="0"/>
        <pt x="494" y="-245" on="1"/>
        <pt x="494" y="-178" on="0"/>
        <pt x="617" y="-68" on="0"/>
        <pt x="732" y="-29" on="1"/>
        <pt x="722" y="-29" on="1"/>
        <pt x="483" y="-29" on="0"/>
        <pt x="353" y="75" on="1"/>
        <pt x="288" y="127" on="0"/>
        <pt x="218" y="264" on="0"/>
        <pt x="192" y="450" on="0"/>
        <pt x="192" y="590" on="1"/>
        <pt x="192" y="1233" on="1"/>
        <pt x="192" y="1310" on="0"/>
        <pt x="169" y="1380" on="0"/>
        <pt x="107" y="1406" on="0"/>
        <pt x="38" y="1409" on="1"/>
        <pt x="38" y="1450" on="1"/>
        <pt x="143" y="1444" on="0"/>
        <pt x="359" y="1444" on="1"/>
        <pt x="569" y="1444" on="0"/>
        <pt x="683" y="1450" on="1"/>
        <pt x="683" y="1409" on="1"/>
        <pt x="609" y="1406" on="0"/>
        <pt x="542" y="1380" on="0"/>
        <pt x="517" y="1310" on="0"/>
        <pt x="517" y="1233" on="1"/>
        <pt x="517" y="460" on="1"/>
        <pt x="517" y="317" on="0"/>
        <pt x="569" y="136" on="0"/>
        <pt x="693" y="43" on="0"/>
        <pt x="800" y="43" on="1"/>
        <pt x="1004" y="43" on="0"/>
        <pt x="1173" y="319" on="0"/>
        <pt x="1173" y="573" on="1"/>
        <pt x="1173" y="1114" on="1"/>
        <pt x="1173" y="1233" on="0"/>
        <pt x="1144" y="1348" on="0"/>
        <pt x="1062" y="1400" on="0"/>
        <pt x="974" y="1409" on="1"/>
        <pt x="974" y="1450" on="1"/>
        <pt x="1054" y="1444" on="0"/>
        <pt x="1195" y="1444" on="1"/>
      </contour>
    </TTGlyph>
    <TTGlyph name="Uring" xMin="38" yMin="-29" xMax="1373" yMax="2029">
      <component glyphName=".ttfautohint" x="38" y="0" flags="0x0"/>
      <component glyphName="U" x="0" y="0" flags="0x0"/>
      <component glyphName="ring" x="464" y="397" flags="0x0"/>
    </TTGlyph>
    <TTGlyph name="Utilde" xMin="38" yMin="-29" xMax="1373" yMax="1892">
      <component glyphName=".ttfautohint" x="38" y="0" flags="0x0"/>
      <component glyphName="U" x="0" y="0" flags="0x0"/>
      <component glyphName="tilde.case" x="247" y="0" flags="0x0"/>
    </TTGlyph>
    <TTGlyph name="V" xMin="-25" yMin="-4" xMax="1388" yMax="1450">
      <contour>
        <pt x="1327" y="1444" on="0"/>
        <pt x="1388" y="1450" on="1"/>
        <pt x="1388" y="1409" on="1"/>
        <pt x="1338" y="1389" on="0"/>
        <pt x="1239" y="1272" on="0"/>
        <pt x="1201" y="1166" on="1"/>
        <pt x="768" y="-4" on="1"/>
        <pt x="724" y="-2" on="0"/>
        <pt x="697" y="-2" on="1"/>
        <pt x="670" y="-2" on="0"/>
        <pt x="626" y="-4" on="1"/>
        <pt x="104" y="1278" on="1"/>
        <pt x="53" y="1405" on="0"/>
        <pt x="-25" y="1409" on="1"/>
        <pt x="-25" y="1450" on="1"/>
        <pt x="98" y="1444" on="0"/>
        <pt x="287" y="1444" on="1"/>
        <pt x="498" y="1444" on="0"/>
        <pt x="598" y="1450" on="1"/>
        <pt x="598" y="1409" on="1"/>
        <pt x="521" y="1406" on="0"/>
        <pt x="454" y="1375" on="0"/>
        <pt x="454" y="1333" on="1"/>
        <pt x="454" y="1299" on="0"/>
        <pt x="478" y="1237" on="1"/>
        <pt x="840" y="320" on="1"/>
        <pt x="1092" y="1000" on="1"/>
        <pt x="1149" y="1155" on="0"/>
        <pt x="1149" y="1248" on="1"/>
        <pt x="1149" y="1331" on="0"/>
        <pt x="1062" y="1407" on="0"/>
        <pt x="977" y="1409" on="1"/>
        <pt x="977" y="1450" on="1"/>
        <pt x="1115" y="1444" on="0"/>
        <pt x="1232" y="1444" on="1"/>
      </contour>
    </TTGlyph>
    <TTGlyph name="W" xMin="-24" yMin="-4" xMax="1994" yMax="1450">
      <contour>
        <pt x="1932" y="1444" on="0"/>
        <pt x="1994" y="1450" on="1"/>
        <pt x="1994" y="1409" on="1"/>
        <pt x="1942" y="1389" on="0"/>
        <pt x="1847" y="1273" on="0"/>
        <pt x="1815" y="1166" on="1"/>
        <pt x="1454" y="-4" on="1"/>
        <pt x="1410" y="-2" on="0"/>
        <pt x="1382" y="-2" on="1"/>
        <pt x="1356" y="-2" on="0"/>
        <pt x="1312" y="-4" on="1"/>
        <pt x="1010" y="907" on="1"/>
        <pt x="706" y="-4" on="1"/>
        <pt x="662" y="-2" on="0"/>
        <pt x="634" y="-2" on="1"/>
        <pt x="608" y="-2" on="0"/>
        <pt x="564" y="-4" on="1"/>
        <pt x="105" y="1278" on="1"/>
        <pt x="80" y="1346" on="0"/>
        <pt x="11" y="1407" on="0"/>
        <pt x="-24" y="1409" on="1"/>
        <pt x="-24" y="1450" on="1"/>
        <pt x="97" y="1444" on="0"/>
        <pt x="281" y="1444" on="1"/>
        <pt x="452" y="1444" on="0"/>
        <pt x="533" y="1450" on="1"/>
        <pt x="533" y="1409" on="1"/>
        <pt x="461" y="1399" on="0"/>
        <pt x="461" y="1329" on="1"/>
        <pt x="461" y="1291" on="0"/>
        <pt x="480" y="1237" on="1"/>
        <pt x="777" y="371" on="1"/>
        <pt x="986" y="980" on="1"/>
        <pt x="880" y="1299" on="1"/>
        <pt x="860" y="1358" on="0"/>
        <pt x="805" y="1406" on="0"/>
        <pt x="769" y="1409" on="1"/>
        <pt x="769" y="1450" on="1"/>
        <pt x="881" y="1444" on="0"/>
        <pt x="1061" y="1444" on="1"/>
        <pt x="1259" y="1444" on="0"/>
        <pt x="1356" y="1450" on="1"/>
        <pt x="1356" y="1409" on="1"/>
        <pt x="1280" y="1406" on="0"/>
        <pt x="1216" y="1377" on="0"/>
        <pt x="1216" y="1333" on="1"/>
        <pt x="1216" y="1299" on="0"/>
        <pt x="1237" y="1237" on="1"/>
        <pt x="1518" y="380" on="1"/>
        <pt x="1713" y="1000" on="1"/>
        <pt x="1759" y="1148" on="0"/>
        <pt x="1759" y="1238" on="1"/>
        <pt x="1759" y="1327" on="0"/>
        <pt x="1671" y="1407" on="0"/>
        <pt x="1583" y="1409" on="1"/>
        <pt x="1583" y="1450" on="1"/>
        <pt x="1721" y="1444" on="0"/>
        <pt x="1838" y="1444" on="1"/>
      </contour>
    </TTGlyph>
    <TTGlyph name="Wacute" xMin="-24" yMin="-4" xMax="1994" yMax="1928">
      <component glyphName=".ttfautohint" x="0" y="0" flags="0x0"/>
      <component glyphName="W" x="0" y="0" flags="0x0"/>
      <component glyphName="acute.case" x="859" y="0" flags="0x0"/>
    </TTGlyph>
    <TTGlyph name="Wcircumflex" xMin="-24" yMin="-4" xMax="1994" yMax="1925">
      <component glyphName=".ttfautohint" x="0" y="0" flags="0x0"/>
      <component glyphName="W" x="0" y="0" flags="0x0"/>
      <component glyphName="circumflex.case" x="593" y="0" flags="0x0"/>
    </TTGlyph>
    <TTGlyph name="Wdieresis" xMin="-24" yMin="-4" xMax="1994" yMax="1878">
      <component glyphName=".ttfautohint" x="0" y="0" flags="0x0"/>
      <component glyphName="W" x="0" y="0" flags="0x0"/>
      <component glyphName="dieresis.case" x="638" y="0" flags="0x0"/>
    </TTGlyph>
    <TTGlyph name="Wgrave" xMin="-24" yMin="-4" xMax="1994" yMax="1928">
      <component glyphName=".ttfautohint" x="0" y="0" flags="0x0"/>
      <component glyphName="W" x="0" y="0" flags="0x0"/>
      <component glyphName="grave.case" x="640" y="0" flags="0x0"/>
    </TTGlyph>
    <TTGlyph name="X" xMin="7" yMin="0" xMax="1440" yMax="1451">
      <contour>
        <pt x="1338" y="103" on="0"/>
        <pt x="1374" y="63" on="0"/>
        <pt x="1412" y="45" on="0"/>
        <pt x="1440" y="43" on="1"/>
        <pt x="1440" y="0" on="1"/>
        <pt x="1432" y="0" on="0"/>
        <pt x="1402" y="2" on="1"/>
        <pt x="1219" y="8" on="0"/>
        <pt x="1160" y="8" on="1"/>
        <pt x="1042" y="8" on="0"/>
        <pt x="872" y="1" on="1"/>
        <pt x="830" y="0" on="1"/>
        <pt x="830" y="43" on="1"/>
        <pt x="902" y="43" on="0"/>
        <pt x="965" y="57" on="0"/>
        <pt x="965" y="77" on="1"/>
        <pt x="965" y="91" on="0"/>
        <pt x="950" y="113" on="1"/>
        <pt x="606" y="618" on="1"/>
        <pt x="442" y="394" on="1"/>
        <pt x="348" y="268" on="0"/>
        <pt x="348" y="180" on="1"/>
        <pt x="348" y="117" on="0"/>
        <pt x="441" y="46" on="0"/>
        <pt x="523" y="41" on="1"/>
        <pt x="523" y="0" on="1"/>
        <pt x="406" y="6" on="0"/>
        <pt x="199" y="6" on="1"/>
        <pt x="76" y="6" on="0"/>
        <pt x="11" y="0" on="1"/>
        <pt x="11" y="41" on="1"/>
        <pt x="151" y="87" on="0"/>
        <pt x="307" y="291" on="1"/>
        <pt x="579" y="658" on="1"/>
        <pt x="138" y="1306" on="1"/>
        <pt x="109" y="1348" on="0"/>
        <pt x="73" y="1388" on="0"/>
        <pt x="35" y="1406" on="0"/>
        <pt x="7" y="1408" on="1"/>
        <pt x="7" y="1451" on="1"/>
        <pt x="16" y="1451" on="0"/>
        <pt x="46" y="1449" on="1"/>
        <pt x="235" y="1443" on="0"/>
        <pt x="299" y="1443" on="1"/>
        <pt x="429" y="1443" on="0"/>
        <pt x="613" y="1451" on="1"/>
        <pt x="613" y="1408" on="1"/>
        <pt x="544" y="1408" on="0"/>
        <pt x="482" y="1390" on="0"/>
        <pt x="482" y="1369" on="1"/>
        <pt x="482" y="1353" on="0"/>
        <pt x="498" y="1330" on="1"/>
        <pt x="803" y="885" on="1"/>
        <pt x="954" y="1089" on="1"/>
        <pt x="1051" y="1212" on="0"/>
        <pt x="1051" y="1296" on="1"/>
        <pt x="1051" y="1347" on="0"/>
        <pt x="974" y="1404" on="0"/>
        <pt x="902" y="1409" on="1"/>
        <pt x="902" y="1450" on="1"/>
        <pt x="1018" y="1444" on="0"/>
        <pt x="1159" y="1444" on="1"/>
        <pt x="1283" y="1444" on="0"/>
        <pt x="1348" y="1450" on="1"/>
        <pt x="1348" y="1409" on="1"/>
        <pt x="1284" y="1390" on="0"/>
        <pt x="1150" y="1276" on="0"/>
        <pt x="1090" y="1195" on="1"/>
        <pt x="828" y="847" on="1"/>
        <pt x="1309" y="145" on="1"/>
      </contour>
    </TTGlyph>
    <TTGlyph name="Y" xMin="-14" yMin="0" xMax="1263" yMax="1451">
      <contour>
        <pt x="1202" y="1445" on="0"/>
        <pt x="1263" y="1451" on="1"/>
        <pt x="1263" y="1410" on="1"/>
        <pt x="1168" y="1373" on="0"/>
        <pt x="1067" y="1174" on="1"/>
        <pt x="825" y="694" on="1"/>
        <pt x="825" y="217" on="1"/>
        <pt x="825" y="140" on="0"/>
        <pt x="848" y="70" on="0"/>
        <pt x="910" y="44" on="0"/>
        <pt x="978" y="41" on="1"/>
        <pt x="978" y="0" on="1"/>
        <pt x="869" y="6" on="0"/>
        <pt x="663" y="6" on="1"/>
        <pt x="446" y="6" on="0"/>
        <pt x="345" y="0" on="1"/>
        <pt x="345" y="41" on="1"/>
        <pt x="414" y="44" on="0"/>
        <pt x="476" y="70" on="0"/>
        <pt x="499" y="140" on="0"/>
        <pt x="499" y="217" on="1"/>
        <pt x="499" y="565" on="1"/>
        <pt x="105" y="1294" on="1"/>
        <pt x="42" y="1408" on="0"/>
        <pt x="-14" y="1408" on="1"/>
        <pt x="-14" y="1451" on="1"/>
        <pt x="106" y="1441" on="0"/>
        <pt x="228" y="1441" on="1"/>
        <pt x="418" y="1441" on="0"/>
        <pt x="613" y="1451" on="1"/>
        <pt x="613" y="1408" on="1"/>
        <pt x="540" y="1408" on="0"/>
        <pt x="458" y="1383" on="0"/>
        <pt x="458" y="1347" on="1"/>
        <pt x="458" y="1328" on="0"/>
        <pt x="471" y="1302" on="1"/>
        <pt x="783" y="704" on="1"/>
        <pt x="942" y="1022" on="1"/>
        <pt x="1023" y="1183" on="0"/>
        <pt x="1023" y="1274" on="1"/>
        <pt x="1023" y="1405" on="0"/>
        <pt x="852" y="1410" on="1"/>
        <pt x="852" y="1451" on="1"/>
        <pt x="992" y="1445" on="0"/>
        <pt x="1107" y="1445" on="1"/>
      </contour>
    </TTGlyph>
    <TTGlyph name="Yacute" xMin="-14" yMin="0" xMax="1263" yMax="1928">
      <component glyphName=".ttfautohint" x="0" y="0" flags="0x0"/>
      <component glyphName="Y" x="0" y="0" flags="0x0"/>
      <component glyphName="acute.case" x="511" y="0" flags="0x0"/>
    </TTGlyph>
    <TTGlyph name="Ycircumflex" xMin="-14" yMin="0" xMax="1263" yMax="1925">
      <component glyphName=".ttfautohint" x="0" y="0" flags="0x0"/>
      <component glyphName="Y" x="0" y="0" flags="0x0"/>
      <component glyphName="circumflex.case" x="245" y="0" flags="0x0"/>
    </TTGlyph>
    <TTGlyph name="Ydieresis" xMin="-14" yMin="0" xMax="1263" yMax="1878">
      <component glyphName=".ttfautohint" x="0" y="0" flags="0x0"/>
      <component glyphName="Y" x="0" y="0" flags="0x0"/>
      <component glyphName="dieresis.case" x="290" y="0" flags="0x0"/>
    </TTGlyph>
    <TTGlyph name="Ygrave" xMin="-14" yMin="0" xMax="1263" yMax="1928">
      <component glyphName=".ttfautohint" x="0" y="0" flags="0x0"/>
      <component glyphName="Y" x="0" y="0" flags="0x0"/>
      <component glyphName="grave.case" x="292" y="0" flags="0x0"/>
    </TTGlyph>
    <TTGlyph name="Z" xMin="80" yMin="0" xMax="1140" yMax="1450">
      <contour>
        <pt x="428" y="47" on="1"/>
        <pt x="653" y="47" on="1"/>
        <pt x="754" y="47" on="0"/>
        <pt x="937" y="134" on="0"/>
        <pt x="1068" y="333" on="0"/>
        <pt x="1085" y="492" on="1"/>
        <pt x="1132" y="492" on="1"/>
        <pt x="1126" y="422" on="0"/>
        <pt x="1126" y="311" on="1"/>
        <pt x="1126" y="132" on="0"/>
        <pt x="1140" y="0" on="1"/>
        <pt x="988" y="6" on="0"/>
        <pt x="630" y="6" on="1"/>
        <pt x="250" y="6" on="0"/>
        <pt x="80" y="0" on="1"/>
        <pt x="80" y="41" on="1"/>
        <pt x="794" y="1403" on="1"/>
        <pt x="560" y="1403" on="1"/>
        <pt x="393" y="1403" on="0"/>
        <pt x="178" y="1210" on="0"/>
        <pt x="151" y="983" on="1"/>
        <pt x="104" y="983" on="1"/>
        <pt x="110" y="1040" on="0"/>
        <pt x="110" y="1139" on="1"/>
        <pt x="110" y="1281" on="0"/>
        <pt x="95" y="1450" on="1"/>
        <pt x="232" y="1444" on="0"/>
        <pt x="556" y="1444" on="1"/>
        <pt x="961" y="1444" on="0"/>
        <pt x="1140" y="1450" on="1"/>
        <pt x="1140" y="1409" on="1"/>
      </contour>
    </TTGlyph>
    <TTGlyph name="Zacute" xMin="80" yMin="0" xMax="1140" yMax="1928">
      <component glyphName=".ttfautohint" x="80" y="0" flags="0x0"/>
      <component glyphName="Z" x="0" y="0" flags="0x0"/>
      <component glyphName="acute.case" x="452" y="0" flags="0x0"/>
    </TTGlyph>
    <TTGlyph name="Zacute.loclPLK" xMin="80" yMin="0" xMax="1140" yMax="1964">
      <component glyphName=".ttfautohint" x="80" y="0" flags="0x0"/>
      <component glyphName="Z" x="0" y="0" flags="0x0"/>
      <component glyphName="acute.loclPLK.case" x="509" y="0" flags="0x0"/>
    </TTGlyph>
    <TTGlyph name="Zcaron" xMin="80" yMin="0" xMax="1140" yMax="1921">
      <component glyphName=".ttfautohint" x="80" y="0" flags="0x0"/>
      <component glyphName="Z" x="0" y="0" flags="0x0"/>
      <component glyphName="caron.case" x="180" y="0" flags="0x0"/>
    </TTGlyph>
    <TTGlyph name="Zdotaccent" xMin="80" yMin="0" xMax="1140" yMax="1985">
      <component glyphName=".ttfautohint" x="80" y="0" flags="0x0"/>
      <component glyphName="Z" x="0" y="0" flags="0x0"/>
      <component glyphName="dotaccent" x="415" y="397" flags="0x0"/>
    </TTGlyph>
    <TTGlyph name="a" xMin="-23" yMin="0" xMax="1300" yMax="1249">
      <contour>
        <pt x="1230" y="44" on="0"/>
        <pt x="1300" y="41" on="1"/>
        <pt x="1300" y="0" on="1"/>
        <pt x="1204" y="6" on="0"/>
        <pt x="1031" y="6" on="1"/>
        <pt x="812" y="6" on="0"/>
        <pt x="708" y="0" on="1"/>
        <pt x="708" y="41" on="1"/>
        <pt x="776" y="44" on="0"/>
        <pt x="841" y="79" on="0"/>
        <pt x="841" y="119" on="1"/>
        <pt x="841" y="155" on="0"/>
        <pt x="814" y="213" on="1"/>
        <pt x="712" y="446" on="1"/>
        <pt x="282" y="446" on="1"/>
        <pt x="258" y="391" on="1"/>
        <pt x="200" y="259" on="0"/>
        <pt x="200" y="180" on="1"/>
        <pt x="200" y="109" on="0"/>
        <pt x="290" y="46" on="0"/>
        <pt x="378" y="41" on="1"/>
        <pt x="378" y="0" on="1"/>
        <pt x="261" y="6" on="0"/>
        <pt x="143" y="6" on="1"/>
        <pt x="34" y="6" on="0"/>
        <pt x="-23" y="0" on="1"/>
        <pt x="-23" y="41" on="1"/>
        <pt x="28" y="51" on="0"/>
        <pt x="110" y="154" on="0"/>
        <pt x="157" y="261" on="1"/>
        <pt x="590" y="1249" on="1"/>
        <pt x="622" y="1247" on="0"/>
        <pt x="637" y="1247" on="1"/>
        <pt x="654" y="1247" on="0"/>
        <pt x="684" y="1249" on="1"/>
        <pt x="1171" y="172" on="1"/>
      </contour>
      <contour>
        <pt x="498" y="936" on="1"/>
        <pt x="300" y="487" on="1"/>
        <pt x="694" y="487" on="1"/>
      </contour>
    </TTGlyph>
    <TTGlyph name="aacute" xMin="-23" yMin="0" xMax="1300" yMax="1760">
      <component glyphName=".ttfautohint" x="0" y="0" flags="0x0"/>
      <component glyphName="a" x="0" y="0" flags="0x0"/>
      <component glyphName="acute.smcp" x="281" y="0" flags="0x0"/>
    </TTGlyph>
    <TTGlyph name="abreve" xMin="-23" yMin="0" xMax="1300" yMax="1697">
      <component glyphName=".ttfautohint" x="0" y="0" flags="0x0"/>
      <component glyphName="a" x="0" y="0" flags="0x0"/>
      <component glyphName="breve.smcp" x="176" y="0" flags="0x0"/>
    </TTGlyph>
    <TTGlyph name="acircumflex" xMin="-23" yMin="0" xMax="1300" yMax="1749">
      <component glyphName=".ttfautohint" x="0" y="0" flags="0x0"/>
      <component glyphName="a" x="0" y="0" flags="0x0"/>
      <component glyphName="circumflex.smcp" x="207" y="0" flags="0x0"/>
    </TTGlyph>
    <TTGlyph name="acute" xMin="41" yMin="1227" xMax="441" yMax="1700">
      <contour>
        <pt x="441" y="1644" on="0"/>
        <pt x="441" y="1595" on="1"/>
        <pt x="441" y="1550" on="0"/>
        <pt x="409" y="1511" on="1"/>
        <pt x="387" y="1484" on="0"/>
        <pt x="332" y="1439" on="0"/>
        <pt x="282" y="1403" on="1"/>
        <pt x="150" y="1306" on="0"/>
        <pt x="63" y="1227" on="1"/>
        <pt x="41" y="1245" on="1"/>
        <pt x="99" y="1350" on="0"/>
        <pt x="157" y="1499" on="1"/>
        <pt x="181" y="1561" on="0"/>
        <pt x="212" y="1625" on="0"/>
        <pt x="235" y="1652" on="1"/>
        <pt x="274" y="1700" on="0"/>
        <pt x="333" y="1700" on="1"/>
        <pt x="374" y="1700" on="0"/>
        <pt x="404" y="1674" on="1"/>
      </contour>
    </TTGlyph>
    <TTGlyph name="acute.case" xMin="16" yMin="1581" xMax="525" yMax="1928">
      <contour>
        <pt x="377" y="1928" on="0"/>
        <pt x="412" y="1928" on="1"/>
        <pt x="444" y="1928" on="0"/>
        <pt x="499" y="1897" on="0"/>
        <pt x="514" y="1869" on="1"/>
        <pt x="525" y="1848" on="0"/>
        <pt x="525" y="1822" on="1"/>
        <pt x="525" y="1791" on="0"/>
        <pt x="489" y="1735" on="0"/>
        <pt x="457" y="1717" on="1"/>
        <pt x="427" y="1700" on="0"/>
        <pt x="363" y="1680" on="0"/>
        <pt x="298" y="1663" on="1"/>
        <pt x="145" y="1624" on="0"/>
        <pt x="31" y="1581" on="1"/>
        <pt x="16" y="1606" on="1"/>
        <pt x="117" y="1688" on="0"/>
        <pt x="220" y="1800" on="1"/>
        <pt x="265" y="1848" on="0"/>
        <pt x="316" y="1895" on="0"/>
        <pt x="348" y="1912" on="1"/>
      </contour>
    </TTGlyph>
    <TTGlyph name="acute.loclPLK" xMin="52" yMin="1221" xMax="316" yMax="1692">
      <contour>
        <pt x="282" y="1670" on="0"/>
        <pt x="316" y="1618" on="0"/>
        <pt x="316" y="1585" on="1"/>
        <pt x="316" y="1558" on="0"/>
        <pt x="304" y="1528" on="1"/>
        <pt x="292" y="1501" on="0"/>
        <pt x="258" y="1456" on="0"/>
        <pt x="227" y="1420" on="1"/>
        <pt x="142" y="1319" on="0"/>
        <pt x="80" y="1221" on="1"/>
        <pt x="52" y="1231" on="1"/>
        <pt x="74" y="1347" on="0"/>
        <pt x="76" y="1475" on="1"/>
        <pt x="78" y="1531" on="0"/>
        <pt x="84" y="1584" on="0"/>
        <pt x="95" y="1612" on="1"/>
        <pt x="109" y="1649" on="0"/>
        <pt x="170" y="1692" on="0"/>
        <pt x="206" y="1692" on="1"/>
        <pt x="229" y="1692" on="0"/>
        <pt x="252" y="1683" on="1"/>
      </contour>
    </TTGlyph>
    <TTGlyph name="acute.loclPLK.case" xMin="51" yMin="1554" xMax="300" yMax="1964">
      <contour>
        <pt x="265" y="1941" on="0"/>
        <pt x="300" y="1889" on="0"/>
        <pt x="300" y="1858" on="1"/>
        <pt x="300" y="1835" on="0"/>
        <pt x="289" y="1808" on="1"/>
        <pt x="277" y="1781" on="0"/>
        <pt x="240" y="1735" on="0"/>
        <pt x="203" y="1697" on="1"/>
        <pt x="117" y="1606" on="0"/>
        <pt x="78" y="1554" on="1"/>
        <pt x="51" y="1567" on="1"/>
        <pt x="63" y="1644" on="0"/>
        <pt x="68" y="1760" on="1"/>
        <pt x="69" y="1811" on="0"/>
        <pt x="75" y="1869" on="0"/>
        <pt x="86" y="1895" on="1"/>
        <pt x="100" y="1928" on="0"/>
        <pt x="153" y="1964" on="0"/>
        <pt x="186" y="1964" on="1"/>
        <pt x="209" y="1964" on="0"/>
        <pt x="233" y="1955" on="1"/>
      </contour>
    </TTGlyph>
    <TTGlyph name="acute.loclPLK.smcp" xMin="51" yMin="1432" xMax="300" yMax="1841">
      <contour>
        <pt x="265" y="1818" on="0"/>
        <pt x="300" y="1767" on="0"/>
        <pt x="300" y="1736" on="1"/>
        <pt x="300" y="1713" on="0"/>
        <pt x="289" y="1686" on="1"/>
        <pt x="277" y="1658" on="0"/>
        <pt x="238" y="1610" on="0"/>
        <pt x="201" y="1573" on="1"/>
        <pt x="129" y="1499" on="0"/>
        <pt x="78" y="1432" on="1"/>
        <pt x="51" y="1444" on="1"/>
        <pt x="63" y="1521" on="0"/>
        <pt x="68" y="1637" on="1"/>
        <pt x="69" y="1688" on="0"/>
        <pt x="75" y="1746" on="0"/>
        <pt x="86" y="1772" on="1"/>
        <pt x="100" y="1805" on="0"/>
        <pt x="153" y="1841" on="0"/>
        <pt x="186" y="1841" on="1"/>
        <pt x="209" y="1841" on="0"/>
        <pt x="233" y="1832" on="1"/>
      </contour>
    </TTGlyph>
    <TTGlyph name="acute.smcp" xMin="176" yMin="1413" xMax="685" yMax="1760">
      <contour>
        <pt x="537" y="1760" on="0"/>
        <pt x="571" y="1760" on="1"/>
        <pt x="604" y="1760" on="0"/>
        <pt x="658" y="1729" on="0"/>
        <pt x="673" y="1701" on="1"/>
        <pt x="685" y="1677" on="0"/>
        <pt x="685" y="1653" on="1"/>
        <pt x="685" y="1622" on="0"/>
        <pt x="649" y="1567" on="0"/>
        <pt x="617" y="1549" on="1"/>
        <pt x="587" y="1532" on="0"/>
        <pt x="523" y="1512" on="0"/>
        <pt x="458" y="1495" on="1"/>
        <pt x="301" y="1455" on="0"/>
        <pt x="190" y="1413" on="1"/>
        <pt x="176" y="1439" on="1"/>
        <pt x="277" y="1521" on="0"/>
        <pt x="379" y="1632" on="1"/>
        <pt x="424" y="1680" on="0"/>
        <pt x="476" y="1727" on="0"/>
        <pt x="508" y="1744" on="1"/>
      </contour>
    </TTGlyph>
    <TTGlyph name="adieresis" xMin="-23" yMin="0" xMax="1300" yMax="1740">
      <component glyphName=".ttfautohint" x="0" y="0" flags="0x0"/>
      <component glyphName="a" x="0" y="0" flags="0x0"/>
      <component glyphName="dieresis.smcp" x="250" y="0" flags="0x0"/>
    </TTGlyph>
    <TTGlyph name="ae" xMin="-21" yMin="0" xMax="1607" yMax="1350">
      <contour>
        <pt x="1593" y="148" on="0"/>
        <pt x="1607" y="0" on="1"/>
        <pt x="1479" y="6" on="0"/>
        <pt x="1175" y="6" on="1"/>
        <pt x="802" y="6" on="0"/>
        <pt x="610" y="0" on="1"/>
        <pt x="610" y="41" on="1"/>
        <pt x="672" y="44" on="0"/>
        <pt x="727" y="70" on="0"/>
        <pt x="747" y="140" on="0"/>
        <pt x="747" y="217" on="1"/>
        <pt x="747" y="606" on="1"/>
        <pt x="427" y="606" on="1"/>
        <pt x="196" y="213" on="1"/>
        <pt x="160" y="152" on="0"/>
        <pt x="160" y="115" on="1"/>
        <pt x="160" y="78" on="0"/>
        <pt x="230" y="44" on="0"/>
        <pt x="303" y="41" on="1"/>
        <pt x="303" y="0" on="1"/>
        <pt x="242" y="6" on="0"/>
        <pt x="116" y="6" on="1"/>
        <pt x="32" y="6" on="0"/>
        <pt x="-21" y="0" on="1"/>
        <pt x="-21" y="41" on="1"/>
        <pt x="44" y="44" on="0"/>
        <pt x="120" y="172" on="1"/>
        <pt x="714" y="1175" on="1"/>
        <pt x="698" y="1189" on="0"/>
        <pt x="642" y="1202" on="0"/>
        <pt x="594" y="1204" on="1"/>
        <pt x="594" y="1245" on="1"/>
        <pt x="669" y="1242" on="0"/>
        <pt x="753" y="1242" on="1"/>
        <pt x="817" y="1350" on="1"/>
        <pt x="864" y="1350" on="1"/>
        <pt x="800" y="1241" on="1"/>
        <pt x="947" y="1239" on="0"/>
        <pt x="1175" y="1239" on="1"/>
        <pt x="1450" y="1239" on="0"/>
        <pt x="1566" y="1245" on="1"/>
        <pt x="1552" y="1108" on="0"/>
        <pt x="1552" y="999" on="1"/>
        <pt x="1552" y="919" on="0"/>
        <pt x="1558" y="872" on="1"/>
        <pt x="1511" y="872" on="1"/>
        <pt x="1494" y="994" on="0"/>
        <pt x="1433" y="1136" on="0"/>
        <pt x="1336" y="1198" on="0"/>
        <pt x="1261" y="1198" on="1"/>
        <pt x="1202" y="1198" on="1"/>
        <pt x="1144" y="1198" on="0"/>
        <pt x="1086" y="1174" on="0"/>
        <pt x="1060" y="1103" on="0"/>
        <pt x="1060" y="1028" on="1"/>
        <pt x="1060" y="647" on="1"/>
        <pt x="1136" y="647" on="1"/>
        <pt x="1189" y="647" on="0"/>
        <pt x="1250" y="695" on="0"/>
        <pt x="1277" y="762" on="0"/>
        <pt x="1289" y="816" on="1"/>
        <pt x="1298" y="856" on="1"/>
        <pt x="1345" y="856" on="1"/>
        <pt x="1338" y="776" on="0"/>
        <pt x="1338" y="704" on="1"/>
        <pt x="1339" y="627" on="1"/>
        <pt x="1339" y="547" on="0"/>
        <pt x="1351" y="397" on="1"/>
        <pt x="1304" y="397" on="1"/>
        <pt x="1288" y="477" on="0"/>
        <pt x="1263" y="553" on="0"/>
        <pt x="1198" y="606" on="0"/>
        <pt x="1136" y="606" on="1"/>
        <pt x="1060" y="606" on="1"/>
        <pt x="1060" y="217" on="1"/>
        <pt x="1060" y="142" on="0"/>
        <pt x="1086" y="71" on="0"/>
        <pt x="1144" y="47" on="0"/>
        <pt x="1202" y="47" on="1"/>
        <pt x="1282" y="47" on="1"/>
        <pt x="1374" y="47" on="0"/>
        <pt x="1477" y="116" on="0"/>
        <pt x="1533" y="270" on="0"/>
        <pt x="1552" y="414" on="1"/>
        <pt x="1599" y="414" on="1"/>
        <pt x="1593" y="357" on="0"/>
        <pt x="1593" y="266" on="1"/>
      </contour>
      <contour>
        <pt x="747" y="1028" on="1"/>
        <pt x="747" y="1103" on="0"/>
        <pt x="737" y="1134" on="1"/>
        <pt x="451" y="647" on="1"/>
        <pt x="747" y="647" on="1"/>
      </contour>
    </TTGlyph>
    <TTGlyph name="agrave" xMin="-23" yMin="0" xMax="1300" yMax="1760">
      <component glyphName=".ttfautohint" x="0" y="0" flags="0x0"/>
      <component glyphName="a" x="0" y="0" flags="0x0"/>
      <component glyphName="grave.smcp" x="248" y="0" flags="0x0"/>
    </TTGlyph>
    <TTGlyph name="amacron" xMin="-23" yMin="0" xMax="1300" yMax="1581">
      <component glyphName=".ttfautohint" x="0" y="0" flags="0x0"/>
      <component glyphName="a" x="0" y="0" flags="0x0"/>
      <component glyphName="macron.smcp" x="221" y="0" flags="0x0"/>
    </TTGlyph>
    <TTGlyph name="ampersand" xMin="85" yMin="-29" xMax="1807" yMax="1479">
      <contour>
        <pt x="1807" y="1039" on="0"/>
        <pt x="1594" y="867" on="0"/>
        <pt x="1391" y="825" on="1"/>
        <pt x="1353" y="812" on="1"/>
        <pt x="1445" y="771" on="0"/>
        <pt x="1545" y="591" on="0"/>
        <pt x="1545" y="473" on="1"/>
        <pt x="1545" y="331" on="0"/>
        <pt x="1368" y="102" on="0"/>
        <pt x="1046" y="-29" on="0"/>
        <pt x="838" y="-29" on="1"/>
        <pt x="613" y="-29" on="0"/>
        <pt x="272" y="95" on="0"/>
        <pt x="85" y="325" on="0"/>
        <pt x="85" y="481" on="1"/>
        <pt x="85" y="620" on="0"/>
        <pt x="232" y="811" on="0"/>
        <pt x="420" y="910" on="0"/>
        <pt x="501" y="930" on="1"/>
        <pt x="269" y="1021" on="0"/>
        <pt x="269" y="1188" on="1"/>
        <pt x="269" y="1272" on="0"/>
        <pt x="384" y="1393" on="0"/>
        <pt x="571" y="1454" on="0"/>
        <pt x="677" y="1454" on="1"/>
        <pt x="806" y="1454" on="0"/>
        <pt x="890" y="1412" on="1"/>
        <pt x="943" y="1385" on="0"/>
        <pt x="1013" y="1302" on="0"/>
        <pt x="1013" y="1246" on="1"/>
        <pt x="1013" y="1205" on="0"/>
        <pt x="970" y="1143" on="0"/>
        <pt x="898" y="1109" on="0"/>
        <pt x="856" y="1109" on="1"/>
        <pt x="792" y="1109" on="0"/>
        <pt x="707" y="1175" on="0"/>
        <pt x="707" y="1236" on="1"/>
        <pt x="707" y="1288" on="0"/>
        <pt x="780" y="1371" on="0"/>
        <pt x="838" y="1383" on="1"/>
        <pt x="821" y="1398" on="0"/>
        <pt x="747" y="1419" on="0"/>
        <pt x="703" y="1419" on="1"/>
        <pt x="630" y="1419" on="0"/>
        <pt x="514" y="1359" on="0"/>
        <pt x="447" y="1238" on="0"/>
        <pt x="447" y="1151" on="1"/>
        <pt x="447" y="1033" on="0"/>
        <pt x="527" y="942" on="1"/>
        <pt x="594" y="958" on="0"/>
        <pt x="642" y="958" on="1"/>
        <pt x="678" y="958" on="0"/>
        <pt x="718" y="929" on="0"/>
        <pt x="718" y="904" on="1"/>
        <pt x="718" y="884" on="0"/>
        <pt x="685" y="861" on="0"/>
        <pt x="660" y="861" on="1"/>
        <pt x="608" y="861" on="0"/>
        <pt x="529" y="913" on="1"/>
        <pt x="425" y="860" on="0"/>
        <pt x="312" y="703" on="0"/>
        <pt x="312" y="582" on="1"/>
        <pt x="312" y="384" on="0"/>
        <pt x="628" y="184" on="0"/>
        <pt x="909" y="184" on="1"/>
        <pt x="1051" y="184" on="0"/>
        <pt x="1310" y="267" on="0"/>
        <pt x="1473" y="429" on="0"/>
        <pt x="1473" y="541" on="1"/>
        <pt x="1473" y="728" on="0"/>
        <pt x="1318" y="801" on="1"/>
        <pt x="1245" y="780" on="0"/>
        <pt x="1197" y="767" on="1"/>
        <pt x="1069" y="730" on="0"/>
        <pt x="1070" y="730" on="1"/>
        <pt x="957" y="705" on="0"/>
        <pt x="814" y="653" on="0"/>
        <pt x="739" y="582" on="0"/>
        <pt x="739" y="532" on="1"/>
        <pt x="739" y="483" on="0"/>
        <pt x="805" y="408" on="0"/>
        <pt x="908" y="367" on="0"/>
        <pt x="961" y="367" on="1"/>
        <pt x="984" y="367" on="0"/>
        <pt x="1034" y="378" on="0"/>
        <pt x="1043" y="388" on="1"/>
        <pt x="992" y="404" on="0"/>
        <pt x="939" y="474" on="0"/>
        <pt x="939" y="522" on="1"/>
        <pt x="939" y="585" on="0"/>
        <pt x="1031" y="657" on="0"/>
        <pt x="1103" y="657" on="1"/>
        <pt x="1177" y="657" on="0"/>
        <pt x="1261" y="582" on="0"/>
        <pt x="1261" y="518" on="1"/>
        <pt x="1261" y="426" on="0"/>
        <pt x="1099" y="332" on="0"/>
        <pt x="971" y="332" on="1"/>
        <pt x="886" y="332" on="0"/>
        <pt x="748" y="390" on="0"/>
        <pt x="666" y="509" on="0"/>
        <pt x="666" y="595" on="1"/>
        <pt x="666" y="748" on="0"/>
        <pt x="900" y="927" on="0"/>
        <pt x="1124" y="971" on="1"/>
        <pt x="1181" y="984" on="0"/>
        <pt x="1179" y="984" on="1"/>
        <pt x="1342" y="1024" on="0"/>
        <pt x="1430" y="1053" on="1"/>
        <pt x="1589" y="1092" on="0"/>
        <pt x="1738" y="1183" on="0"/>
        <pt x="1738" y="1256" on="1"/>
        <pt x="1738" y="1309" on="0"/>
        <pt x="1672" y="1394" on="0"/>
        <pt x="1565" y="1442" on="0"/>
        <pt x="1507" y="1442" on="1"/>
        <pt x="1469" y="1442" on="0"/>
        <pt x="1449" y="1432" on="1"/>
        <pt x="1496" y="1413" on="0"/>
        <pt x="1548" y="1341" on="0"/>
        <pt x="1548" y="1302" on="1"/>
        <pt x="1548" y="1241" on="0"/>
        <pt x="1456" y="1171" on="0"/>
        <pt x="1385" y="1171" on="1"/>
        <pt x="1313" y="1171" on="0"/>
        <pt x="1225" y="1244" on="0"/>
        <pt x="1225" y="1307" on="1"/>
        <pt x="1225" y="1388" on="0"/>
        <pt x="1363" y="1479" on="0"/>
        <pt x="1481" y="1479" on="1"/>
        <pt x="1577" y="1479" on="0"/>
        <pt x="1724" y="1410" on="0"/>
        <pt x="1807" y="1280" on="0"/>
        <pt x="1807" y="1190" on="1"/>
      </contour>
    </TTGlyph>
    <TTGlyph name="ampersand.smcp" xMin="83" yMin="-29" xMax="1758" yMax="1348">
      <contour>
        <pt x="1758" y="927" on="0"/>
        <pt x="1579" y="773" on="0"/>
        <pt x="1443" y="736" on="1"/>
        <pt x="1400" y="723" on="1"/>
        <pt x="1475" y="690" on="0"/>
        <pt x="1550" y="547" on="0"/>
        <pt x="1550" y="462" on="1"/>
        <pt x="1550" y="315" on="0"/>
        <pt x="1368" y="93" on="0"/>
        <pt x="1027" y="-29" on="0"/>
        <pt x="795" y="-29" on="1"/>
        <pt x="587" y="-29" on="0"/>
        <pt x="264" y="71" on="0"/>
        <pt x="83" y="259" on="0"/>
        <pt x="83" y="387" on="1"/>
        <pt x="83" y="512" on="0"/>
        <pt x="228" y="688" on="0"/>
        <pt x="416" y="783" on="0"/>
        <pt x="494" y="799" on="1"/>
        <pt x="377" y="835" on="0"/>
        <pt x="238" y="953" on="0"/>
        <pt x="238" y="1038" on="1"/>
        <pt x="238" y="1114" on="0"/>
        <pt x="354" y="1221" on="0"/>
        <pt x="542" y="1274" on="0"/>
        <pt x="650" y="1274" on="1"/>
        <pt x="764" y="1274" on="0"/>
        <pt x="848" y="1232" on="1"/>
        <pt x="970" y="1167" on="0"/>
        <pt x="970" y="1067" on="1"/>
        <pt x="970" y="1004" on="0"/>
        <pt x="879" y="929" on="0"/>
        <pt x="811" y="929" on="1"/>
        <pt x="748" y="929" on="0"/>
        <pt x="664" y="995" on="0"/>
        <pt x="664" y="1055" on="1"/>
        <pt x="664" y="1108" on="0"/>
        <pt x="735" y="1191" on="0"/>
        <pt x="795" y="1203" on="1"/>
        <pt x="782" y="1218" on="0"/>
        <pt x="721" y="1239" on="0"/>
        <pt x="684" y="1239" on="1"/>
        <pt x="623" y="1239" on="0"/>
        <pt x="517" y="1182" on="0"/>
        <pt x="453" y="1072" on="0"/>
        <pt x="453" y="997" on="1"/>
        <pt x="453" y="941" on="0"/>
        <pt x="481" y="852" on="0"/>
        <pt x="521" y="811" on="1"/>
        <pt x="570" y="827" on="0"/>
        <pt x="636" y="827" on="1"/>
        <pt x="672" y="827" on="0"/>
        <pt x="711" y="797" on="0"/>
        <pt x="711" y="774" on="1"/>
        <pt x="711" y="752" on="0"/>
        <pt x="679" y="730" on="0"/>
        <pt x="654" y="730" on="1"/>
        <pt x="600" y="730" on="0"/>
        <pt x="523" y="783" on="1"/>
        <pt x="469" y="742" on="0"/>
        <pt x="408" y="625" on="0"/>
        <pt x="408" y="536" on="1"/>
        <pt x="408" y="339" on="0"/>
        <pt x="684" y="143" on="0"/>
        <pt x="933" y="143" on="1"/>
        <pt x="1087" y="143" on="0"/>
        <pt x="1340" y="216" on="0"/>
        <pt x="1495" y="377" on="0"/>
        <pt x="1495" y="503" on="1"/>
        <pt x="1495" y="656" on="0"/>
        <pt x="1367" y="713" on="1"/>
        <pt x="1129" y="640" on="1"/>
        <pt x="1013" y="613" on="0"/>
        <pt x="870" y="564" on="0"/>
        <pt x="787" y="493" on="0"/>
        <pt x="787" y="441" on="1"/>
        <pt x="787" y="395" on="0"/>
        <pt x="845" y="324" on="0"/>
        <pt x="939" y="285" on="0"/>
        <pt x="991" y="285" on="1"/>
        <pt x="1053" y="285" on="0"/>
        <pt x="1074" y="306" on="1"/>
        <pt x="1023" y="322" on="0"/>
        <pt x="970" y="392" on="0"/>
        <pt x="970" y="439" on="1"/>
        <pt x="970" y="503" on="0"/>
        <pt x="1062" y="575" on="0"/>
        <pt x="1134" y="575" on="1"/>
        <pt x="1208" y="575" on="0"/>
        <pt x="1292" y="500" on="0"/>
        <pt x="1292" y="436" on="1"/>
        <pt x="1292" y="375" on="0"/>
        <pt x="1214" y="291" on="0"/>
        <pt x="1087" y="250" on="0"/>
        <pt x="1011" y="250" on="1"/>
        <pt x="874" y="250" on="0"/>
        <pt x="722" y="376" on="0"/>
        <pt x="722" y="497" on="1"/>
        <pt x="722" y="644" on="0"/>
        <pt x="938" y="810" on="0"/>
        <pt x="1115" y="858" on="1"/>
        <pt x="1285" y="904" on="0"/>
        <pt x="1407" y="949" on="1"/>
        <pt x="1421" y="953" on="0"/>
        <pt x="1428" y="956" on="1"/>
        <pt x="1514" y="982" on="0"/>
        <pt x="1619" y="1025" on="0"/>
        <pt x="1691" y="1095" on="0"/>
        <pt x="1691" y="1146" on="1"/>
        <pt x="1691" y="1196" on="0"/>
        <pt x="1632" y="1272" on="0"/>
        <pt x="1536" y="1312" on="0"/>
        <pt x="1482" y="1312" on="1"/>
        <pt x="1450" y="1312" on="0"/>
        <pt x="1426" y="1301" on="1"/>
        <pt x="1472" y="1282" on="0"/>
        <pt x="1525" y="1212" on="0"/>
        <pt x="1525" y="1169" on="1"/>
        <pt x="1525" y="1110" on="0"/>
        <pt x="1433" y="1040" on="0"/>
        <pt x="1364" y="1040" on="1"/>
        <pt x="1290" y="1040" on="0"/>
        <pt x="1203" y="1113" on="0"/>
        <pt x="1203" y="1175" on="1"/>
        <pt x="1203" y="1256" on="0"/>
        <pt x="1342" y="1348" on="0"/>
        <pt x="1459" y="1348" on="1"/>
        <pt x="1595" y="1348" on="0"/>
        <pt x="1758" y="1206" on="0"/>
        <pt x="1758" y="1073" on="1"/>
      </contour>
    </TTGlyph>
    <TTGlyph name="aogonek" xMin="-23" yMin="-385" xMax="1300" yMax="1249">
      <contour>
        <pt x="1106" y="-32" on="0"/>
        <pt x="1002" y="-137" on="0"/>
        <pt x="1002" y="-189" on="1"/>
        <pt x="1002" y="-272" on="0"/>
        <pt x="1087" y="-272" on="1"/>
        <pt x="1121" y="-272" on="0"/>
        <pt x="1196" y="-240" on="0"/>
        <pt x="1218" y="-217" on="1"/>
        <pt x="1246" y="-246" on="1"/>
        <pt x="1191" y="-319" on="0"/>
        <pt x="1057" y="-385" on="0"/>
        <pt x="965" y="-385" on="1"/>
        <pt x="876" y="-385" on="0"/>
        <pt x="779" y="-311" on="0"/>
        <pt x="779" y="-245" on="1"/>
        <pt x="779" y="-161" on="0"/>
        <pt x="970" y="-32" on="0"/>
        <pt x="1144" y="5" on="1"/>
        <pt x="1031" y="6" on="1"/>
        <pt x="811" y="6" on="0"/>
        <pt x="708" y="0" on="1"/>
        <pt x="708" y="41" on="1"/>
        <pt x="776" y="44" on="0"/>
        <pt x="841" y="79" on="0"/>
        <pt x="841" y="119" on="1"/>
        <pt x="841" y="155" on="0"/>
        <pt x="814" y="213" on="1"/>
        <pt x="712" y="446" on="1"/>
        <pt x="282" y="446" on="1"/>
        <pt x="258" y="391" on="1"/>
        <pt x="200" y="259" on="0"/>
        <pt x="200" y="180" on="1"/>
        <pt x="200" y="109" on="0"/>
        <pt x="290" y="46" on="0"/>
        <pt x="378" y="41" on="1"/>
        <pt x="378" y="0" on="1"/>
        <pt x="261" y="6" on="0"/>
        <pt x="143" y="6" on="1"/>
        <pt x="34" y="6" on="0"/>
        <pt x="-23" y="0" on="1"/>
        <pt x="-23" y="41" on="1"/>
        <pt x="28" y="51" on="0"/>
        <pt x="110" y="154" on="0"/>
        <pt x="157" y="261" on="1"/>
        <pt x="590" y="1249" on="1"/>
        <pt x="605" y="1247" on="0"/>
        <pt x="637" y="1247" on="1"/>
        <pt x="668" y="1247" on="0"/>
        <pt x="684" y="1249" on="1"/>
        <pt x="1171" y="172" on="1"/>
        <pt x="1230" y="44" on="0"/>
        <pt x="1300" y="41" on="1"/>
        <pt x="1300" y="0" on="1"/>
        <pt x="1185" y="5" on="0"/>
        <pt x="1217" y="4" on="1"/>
      </contour>
      <contour>
        <pt x="498" y="936" on="1"/>
        <pt x="300" y="487" on="1"/>
        <pt x="694" y="487" on="1"/>
      </contour>
    </TTGlyph>
    <TTGlyph name="approxequal" xMin="121" yMin="346" xMax="1241" yMax="1114">
      <contour>
        <pt x="507" y="1114" on="0"/>
        <pt x="637" y="1064" on="0"/>
        <pt x="727" y="1016" on="1"/>
        <pt x="815" y="970" on="0"/>
        <pt x="932" y="924" on="0"/>
        <pt x="997" y="924" on="1"/>
        <pt x="1145" y="924" on="0"/>
        <pt x="1205" y="1083" on="1"/>
        <pt x="1241" y="1076" on="1"/>
        <pt x="1229" y="965" on="0"/>
        <pt x="1150" y="797" on="0"/>
        <pt x="1029" y="705" on="0"/>
        <pt x="954" y="705" on="1"/>
        <pt x="882" y="705" on="0"/>
        <pt x="757" y="753" on="0"/>
        <pt x="667" y="802" on="1"/>
        <pt x="582" y="848" on="0"/>
        <pt x="466" y="894" on="0"/>
        <pt x="402" y="894" on="1"/>
        <pt x="227" y="894" on="0"/>
        <pt x="157" y="723" on="1"/>
        <pt x="121" y="731" on="1"/>
        <pt x="135" y="846" on="0"/>
        <pt x="220" y="1019" on="0"/>
        <pt x="352" y="1114" on="0"/>
        <pt x="433" y="1114" on="1"/>
      </contour>
      <contour>
        <pt x="480" y="756" on="0"/>
        <pt x="607" y="706" on="0"/>
        <pt x="696" y="657" on="1"/>
        <pt x="782" y="611" on="0"/>
        <pt x="897" y="565" on="0"/>
        <pt x="960" y="565" on="1"/>
        <pt x="1134" y="565" on="0"/>
        <pt x="1205" y="737" on="1"/>
        <pt x="1241" y="729" on="1"/>
        <pt x="1228" y="614" on="0"/>
        <pt x="1143" y="441" on="0"/>
        <pt x="1011" y="346" on="0"/>
        <pt x="930" y="346" on="1"/>
        <pt x="857" y="346" on="0"/>
        <pt x="726" y="396" on="0"/>
        <pt x="636" y="444" on="1"/>
        <pt x="548" y="490" on="0"/>
        <pt x="430" y="536" on="0"/>
        <pt x="365" y="536" on="1"/>
        <pt x="218" y="536" on="0"/>
        <pt x="157" y="377" on="1"/>
        <pt x="121" y="385" on="1"/>
        <pt x="133" y="496" on="0"/>
        <pt x="212" y="664" on="0"/>
        <pt x="333" y="756" on="0"/>
        <pt x="408" y="756" on="1"/>
      </contour>
    </TTGlyph>
    <TTGlyph name="aring" xMin="-23" yMin="0" xMax="1300" yMax="1784">
      <component glyphName=".ttfautohint" x="0" y="0" flags="0x0"/>
      <component glyphName="a" x="0" y="0" flags="0x0"/>
      <component glyphName="ring.smcp" x="369" y="0" flags="0x0"/>
    </TTGlyph>
    <TTGlyph name="arrowboth" xMin="51" yMin="158" xMax="1331" yMax="924">
      <contour>
        <pt x="977" y="770" on="0"/>
        <pt x="1184" y="584" on="0"/>
        <pt x="1331" y="541" on="1"/>
        <pt x="1184" y="497" on="0"/>
        <pt x="977" y="312" on="0"/>
        <pt x="907" y="158" on="1"/>
        <pt x="872" y="158" on="1"/>
        <pt x="957" y="337" on="0"/>
        <pt x="961" y="524" on="1"/>
        <pt x="422" y="524" on="1"/>
        <pt x="426" y="339" on="0"/>
        <pt x="510" y="158" on="1"/>
        <pt x="475" y="158" on="1"/>
        <pt x="405" y="312" on="0"/>
        <pt x="198" y="497" on="0"/>
        <pt x="51" y="541" on="1"/>
        <pt x="198" y="584" on="0"/>
        <pt x="405" y="770" on="0"/>
        <pt x="475" y="924" on="1"/>
        <pt x="510" y="924" on="1"/>
        <pt x="425" y="742" on="0"/>
        <pt x="422" y="557" on="1"/>
        <pt x="961" y="557" on="1"/>
        <pt x="958" y="743" on="0"/>
        <pt x="872" y="924" on="1"/>
        <pt x="907" y="924" on="1"/>
      </contour>
    </TTGlyph>
    <TTGlyph name="arrowdown" xMin="123" yMin="-20" xMax="889" yMax="1200">
      <contour>
        <pt x="552" y="952" on="0"/>
        <pt x="734" y="1128" on="0"/>
        <pt x="889" y="1200" on="1"/>
        <pt x="889" y="1165" on="1"/>
        <pt x="735" y="1095" on="0"/>
        <pt x="549" y="888" on="0"/>
        <pt x="506" y="741" on="1"/>
        <pt x="463" y="888" on="0"/>
        <pt x="277" y="1095" on="0"/>
        <pt x="123" y="1165" on="1"/>
        <pt x="123" y="1200" on="1"/>
        <pt x="278" y="1128" on="0"/>
        <pt x="459" y="952" on="0"/>
        <pt x="506" y="829" on="1"/>
      </contour>
      <contour>
        <pt x="552" y="768" on="0"/>
        <pt x="734" y="944" on="0"/>
        <pt x="889" y="1016" on="1"/>
        <pt x="889" y="981" on="1"/>
        <pt x="748" y="917" on="0"/>
        <pt x="569" y="733" on="0"/>
        <pt x="522" y="606" on="1"/>
        <pt x="522" y="350" on="1"/>
        <pt x="707" y="353" on="0"/>
        <pt x="889" y="438" on="1"/>
        <pt x="889" y="403" on="1"/>
        <pt x="735" y="333" on="0"/>
        <pt x="549" y="127" on="0"/>
        <pt x="506" y="-20" on="1"/>
        <pt x="463" y="127" on="0"/>
        <pt x="277" y="333" on="0"/>
        <pt x="123" y="403" on="1"/>
        <pt x="123" y="438" on="1"/>
        <pt x="304" y="354" on="0"/>
        <pt x="489" y="350" on="1"/>
        <pt x="489" y="608" on="1"/>
        <pt x="442" y="734" on="0"/>
        <pt x="264" y="917" on="0"/>
        <pt x="123" y="981" on="1"/>
        <pt x="123" y="1016" on="1"/>
        <pt x="278" y="944" on="0"/>
        <pt x="459" y="768" on="0"/>
        <pt x="506" y="645" on="1"/>
      </contour>
    </TTGlyph>
    <TTGlyph name="arrowdownleft" xMin="133" yMin="-20" xMax="1268" yMax="1114">
      <contour>
        <pt x="851" y="633" on="0"/>
        <pt x="970" y="633" on="1"/>
        <pt x="1103" y="633" on="0"/>
        <pt x="1268" y="571" on="1"/>
        <pt x="1243" y="547" on="1"/>
        <pt x="1103" y="600" on="0"/>
        <pt x="976" y="600" on="1"/>
        <pt x="822" y="600" on="0"/>
        <pt x="672" y="518" on="1"/>
        <pt x="754" y="667" on="0"/>
        <pt x="754" y="821" on="1"/>
        <pt x="754" y="948" on="0"/>
        <pt x="700" y="1090" on="1"/>
        <pt x="725" y="1114" on="1"/>
        <pt x="787" y="949" on="0"/>
        <pt x="787" y="817" on="1"/>
        <pt x="787" y="695" on="0"/>
        <pt x="735" y="582" on="1"/>
      </contour>
      <contour>
        <pt x="720" y="502" on="0"/>
        <pt x="841" y="502" on="1"/>
        <pt x="972" y="502" on="0"/>
        <pt x="1137" y="442" on="1"/>
        <pt x="1112" y="418" on="1"/>
        <pt x="972" y="470" on="0"/>
        <pt x="848" y="470" on="1"/>
        <pt x="716" y="470" on="0"/>
        <pt x="590" y="413" on="1"/>
        <pt x="407" y="231" on="1"/>
        <pt x="541" y="103" on="0"/>
        <pt x="729" y="33" on="1"/>
        <pt x="705" y="8" on="1"/>
        <pt x="563" y="62" on="0"/>
        <pt x="436" y="62" on="1"/>
        <pt x="282" y="62" on="0"/>
        <pt x="133" y="-20" on="1"/>
        <pt x="215" y="130" on="0"/>
        <pt x="215" y="284" on="1"/>
        <pt x="215" y="411" on="0"/>
        <pt x="162" y="551" on="1"/>
        <pt x="186" y="575" on="1"/>
        <pt x="257" y="389" on="0"/>
        <pt x="384" y="253" on="1"/>
        <pt x="567" y="438" on="1"/>
        <pt x="624" y="563" on="0"/>
        <pt x="624" y="692" on="1"/>
        <pt x="624" y="816" on="0"/>
        <pt x="571" y="958" on="1"/>
        <pt x="596" y="983" on="1"/>
        <pt x="656" y="818" on="0"/>
        <pt x="656" y="688" on="1"/>
        <pt x="656" y="565" on="0"/>
        <pt x="604" y="451" on="1"/>
      </contour>
    </TTGlyph>
    <TTGlyph name="arrowdownright" xMin="264" yMin="195" xMax="1052" yMax="983">
      <component glyphName=".ttfautohint" x="264" y="195" flags="0x0"/>
      <component glyphName="arrowupleft" x="1401" y="1094" scale="-1.0" flags="0x0"/>
    </TTGlyph>
    <TTGlyph name="arrowleft" xMin="51" yMin="158" xMax="1272" yMax="924">
      <contour>
        <pt x="840" y="495" on="0"/>
        <pt x="1015" y="313" on="0"/>
        <pt x="1087" y="158" on="1"/>
        <pt x="1053" y="158" on="1"/>
        <pt x="988" y="299" on="0"/>
        <pt x="806" y="476" on="0"/>
        <pt x="680" y="524" on="1"/>
        <pt x="422" y="524" on="1"/>
        <pt x="426" y="339" on="0"/>
        <pt x="510" y="158" on="1"/>
        <pt x="475" y="158" on="1"/>
        <pt x="405" y="312" on="0"/>
        <pt x="198" y="497" on="0"/>
        <pt x="51" y="541" on="1"/>
        <pt x="198" y="584" on="0"/>
        <pt x="405" y="770" on="0"/>
        <pt x="475" y="924" on="1"/>
        <pt x="510" y="924" on="1"/>
        <pt x="425" y="742" on="0"/>
        <pt x="422" y="557" on="1"/>
        <pt x="677" y="557" on="1"/>
        <pt x="804" y="604" on="0"/>
        <pt x="988" y="783" on="0"/>
        <pt x="1053" y="924" on="1"/>
        <pt x="1087" y="924" on="1"/>
        <pt x="1015" y="768" on="0"/>
        <pt x="840" y="587" on="0"/>
        <pt x="717" y="541" on="1"/>
      </contour>
      <contour>
        <pt x="1024" y="494" on="0"/>
        <pt x="1200" y="313" on="0"/>
        <pt x="1272" y="158" on="1"/>
        <pt x="1237" y="158" on="1"/>
        <pt x="1167" y="312" on="0"/>
        <pt x="960" y="497" on="0"/>
        <pt x="813" y="541" on="1"/>
        <pt x="960" y="584" on="0"/>
        <pt x="1167" y="770" on="0"/>
        <pt x="1237" y="924" on="1"/>
        <pt x="1272" y="924" on="1"/>
        <pt x="1200" y="769" on="0"/>
        <pt x="1024" y="587" on="0"/>
        <pt x="901" y="541" on="1"/>
      </contour>
    </TTGlyph>
    <TTGlyph name="arrowright" xMin="123" yMin="158" xMax="1344" yMax="924">
      <component glyphName=".ttfautohint" x="123" y="158" flags="0x0"/>
      <component glyphName="arrowleft" x="1395" y="0" scalex="-1.0" scaley="1.0" flags="0x0"/>
    </TTGlyph>
    <TTGlyph name="arrowup" xMin="123" yMin="-20" xMax="889" yMax="1200">
      <contour>
        <pt x="710" y="826" on="0"/>
        <pt x="522" y="829" on="1"/>
        <pt x="522" y="574" on="1"/>
        <pt x="569" y="447" on="0"/>
        <pt x="748" y="263" on="0"/>
        <pt x="889" y="199" on="1"/>
        <pt x="889" y="164" on="1"/>
        <pt x="734" y="236" on="0"/>
        <pt x="552" y="412" on="0"/>
        <pt x="506" y="535" on="1"/>
        <pt x="459" y="412" on="0"/>
        <pt x="278" y="236" on="0"/>
        <pt x="123" y="164" on="1"/>
        <pt x="123" y="199" on="1"/>
        <pt x="264" y="263" on="0"/>
        <pt x="442" y="446" on="0"/>
        <pt x="489" y="572" on="1"/>
        <pt x="489" y="829" on="1"/>
        <pt x="304" y="826" on="0"/>
        <pt x="123" y="741" on="1"/>
        <pt x="123" y="776" on="1"/>
        <pt x="277" y="846" on="0"/>
        <pt x="463" y="1053" on="0"/>
        <pt x="506" y="1200" on="1"/>
        <pt x="549" y="1053" on="0"/>
        <pt x="735" y="846" on="0"/>
        <pt x="889" y="776" on="1"/>
        <pt x="889" y="741" on="1"/>
      </contour>
      <contour>
        <pt x="549" y="292" on="0"/>
        <pt x="735" y="85" on="0"/>
        <pt x="889" y="14" on="1"/>
        <pt x="889" y="-20" on="1"/>
        <pt x="733" y="52" on="0"/>
        <pt x="552" y="227" on="0"/>
        <pt x="506" y="350" on="1"/>
        <pt x="460" y="227" on="0"/>
        <pt x="278" y="52" on="0"/>
        <pt x="123" y="-20" on="1"/>
        <pt x="123" y="14" on="1"/>
        <pt x="277" y="85" on="0"/>
        <pt x="463" y="292" on="0"/>
        <pt x="506" y="438" on="1"/>
      </contour>
    </TTGlyph>
    <TTGlyph name="arrowupleft" xMin="349" yMin="111" xMax="1137" yMax="899">
      <contour>
        <pt x="972" y="591" on="0"/>
        <pt x="842" y="591" on="1"/>
        <pt x="718" y="591" on="0"/>
        <pt x="604" y="643" on="1"/>
        <pt x="656" y="529" on="0"/>
        <pt x="656" y="405" on="1"/>
        <pt x="656" y="276" on="0"/>
        <pt x="596" y="111" on="1"/>
        <pt x="571" y="135" on="1"/>
        <pt x="624" y="277" on="0"/>
        <pt x="624" y="401" on="1"/>
        <pt x="624" y="485" on="0"/>
        <pt x="599" y="572" on="1"/>
        <pt x="590" y="414" on="0"/>
        <pt x="510" y="195" on="1"/>
        <pt x="485" y="220" on="1"/>
        <pt x="538" y="360" on="0"/>
        <pt x="538" y="488" on="1"/>
        <pt x="538" y="574" on="0"/>
        <pt x="515" y="650" on="1"/>
        <pt x="480" y="513" on="0"/>
        <pt x="402" y="303" on="1"/>
        <pt x="377" y="327" on="1"/>
        <pt x="431" y="469" on="0"/>
        <pt x="431" y="596" on="1"/>
        <pt x="431" y="726" on="0"/>
        <pt x="372" y="853" on="1"/>
        <pt x="372" y="855" on="1"/>
        <pt x="349" y="899" on="1"/>
        <pt x="382" y="881" on="0"/>
        <pt x="393" y="877" on="1"/>
        <pt x="394" y="876" on="1"/>
        <pt x="518" y="817" on="0"/>
        <pt x="652" y="817" on="1"/>
        <pt x="780" y="817" on="0"/>
        <pt x="920" y="870" on="1"/>
        <pt x="945" y="845" on="1"/>
        <pt x="735" y="767" on="0"/>
        <pt x="597" y="732" on="1"/>
        <pt x="678" y="709" on="0"/>
        <pt x="761" y="709" on="1"/>
        <pt x="888" y="709" on="0"/>
        <pt x="1028" y="762" on="1"/>
        <pt x="1052" y="738" on="1"/>
        <pt x="836" y="657" on="0"/>
        <pt x="677" y="648" on="1"/>
        <pt x="763" y="623" on="0"/>
        <pt x="847" y="623" on="1"/>
        <pt x="970" y="623" on="0"/>
        <pt x="1112" y="676" on="1"/>
        <pt x="1137" y="651" on="1"/>
      </contour>
    </TTGlyph>
    <TTGlyph name="arrowupright" xMin="264" yMin="111" xMax="1052" yMax="899">
      <component glyphName=".ttfautohint" x="264" y="111" flags="0x0"/>
      <component glyphName="arrowupleft" x="1401" y="0" scalex="-1.0" scaley="1.0" flags="0x0"/>
    </TTGlyph>
    <TTGlyph name="asciicircum" xMin="116" yMin="635" xMax="967" yMax="1081">
      <contour>
        <pt x="622" y="959" on="0"/>
        <pt x="840" y="734" on="0"/>
        <pt x="967" y="664" on="1"/>
        <pt x="951" y="635" on="1"/>
        <pt x="821" y="666" on="0"/>
        <pt x="575" y="760" on="0"/>
        <pt x="501" y="807" on="1"/>
        <pt x="438" y="760" on="0"/>
        <pt x="237" y="666" on="0"/>
        <pt x="132" y="635" on="1"/>
        <pt x="116" y="664" on="1"/>
        <pt x="242" y="733" on="0"/>
        <pt x="459" y="958" on="0"/>
        <pt x="523" y="1081" on="1"/>
        <pt x="560" y="1081" on="1"/>
      </contour>
    </TTGlyph>
    <TTGlyph name="asciicircum.case" xMin="-10" yMin="1044" xMax="915" yMax="1479">
      <contour>
        <pt x="538" y="1362" on="0"/>
        <pt x="776" y="1142" on="0"/>
        <pt x="915" y="1074" on="1"/>
        <pt x="903" y="1044" on="1"/>
        <pt x="761" y="1080" on="0"/>
        <pt x="492" y="1195" on="0"/>
        <pt x="412" y="1254" on="1"/>
        <pt x="344" y="1195" on="0"/>
        <pt x="119" y="1080" on="0"/>
        <pt x="2" y="1044" on="1"/>
        <pt x="-10" y="1074" on="1"/>
        <pt x="128" y="1141" on="0"/>
        <pt x="365" y="1360" on="0"/>
        <pt x="434" y="1479" on="1"/>
        <pt x="471" y="1479" on="1"/>
      </contour>
    </TTGlyph>
    <TTGlyph name="asciitilde" xMin="122" yMin="432" xMax="1251" yMax="797">
      <contour>
        <pt x="512" y="797" on="0"/>
        <pt x="639" y="751" on="0"/>
        <pt x="730" y="704" on="1"/>
        <pt x="814" y="659" on="0"/>
        <pt x="937" y="614" on="0"/>
        <pt x="1006" y="614" on="1"/>
        <pt x="1158" y="614" on="0"/>
        <pt x="1215" y="758" on="1"/>
        <pt x="1251" y="750" on="1"/>
        <pt x="1242" y="655" on="0"/>
        <pt x="1152" y="511" on="0"/>
        <pt x="1015" y="432" on="0"/>
        <pt x="936" y="432" on="1"/>
        <pt x="861" y="432" on="0"/>
        <pt x="734" y="478" on="0"/>
        <pt x="643" y="525" on="1"/>
        <pt x="557" y="569" on="0"/>
        <pt x="436" y="614" on="0"/>
        <pt x="367" y="614" on="1"/>
        <pt x="215" y="614" on="0"/>
        <pt x="158" y="471" on="1"/>
        <pt x="122" y="479" on="1"/>
        <pt x="131" y="574" on="0"/>
        <pt x="221" y="718" on="0"/>
        <pt x="358" y="797" on="0"/>
        <pt x="437" y="797" on="1"/>
      </contour>
    </TTGlyph>
    <TTGlyph name="asciitilde.case" xMin="-9" yMin="547" xMax="1120" yMax="912">
      <component glyphName=".ttfautohint" x="0" y="547" flags="0x0"/>
      <component glyphName="asciitilde" x="-131" y="115" flags="0x0"/>
    </TTGlyph>
    <TTGlyph name="asciitilde.smcp" xMin="119" yMin="448" xMax="1248" yMax="813">
      <component glyphName=".ttfautohint" x="119" y="448" flags="0x0"/>
      <component glyphName="asciitilde" x="-3" y="16" flags="0x0"/>
    </TTGlyph>
    <TTGlyph name="asterisk" xMin="103" yMin="629" xMax="882" yMax="1493">
      <contour>
        <pt x="882" y="953" on="0"/>
        <pt x="882" y="898" on="1"/>
        <pt x="882" y="872" on="0"/>
        <pt x="867" y="845" on="1"/>
        <pt x="838" y="795" on="0"/>
        <pt x="788" y="795" on="1"/>
        <pt x="758" y="795" on="0"/>
        <pt x="722" y="815" on="1"/>
        <pt x="690" y="833" on="0"/>
        <pt x="630" y="896" on="0"/>
        <pt x="577" y="959" on="1"/>
        <pt x="538" y="1007" on="0"/>
        <pt x="501" y="1049" on="1"/>
        <pt x="519" y="994" on="0"/>
        <pt x="542" y="933" on="1"/>
        <pt x="569" y="859" on="0"/>
        <pt x="593" y="774" on="0"/>
        <pt x="594" y="739" on="1"/>
        <pt x="593" y="682" on="0"/>
        <pt x="535" y="629" on="0"/>
        <pt x="493" y="629" on="1"/>
        <pt x="451" y="629" on="0"/>
        <pt x="394" y="682" on="0"/>
        <pt x="394" y="739" on="1"/>
        <pt x="394" y="776" on="0"/>
        <pt x="419" y="860" on="0"/>
        <pt x="447" y="936" on="1"/>
        <pt x="479" y="1024" on="0"/>
        <pt x="487" y="1048" on="1"/>
        <pt x="481" y="1041" on="0"/>
        <pt x="408" y="956" on="1"/>
        <pt x="358" y="897" on="0"/>
        <pt x="296" y="831" on="0"/>
        <pt x="265" y="813" on="1"/>
        <pt x="232" y="794" on="0"/>
        <pt x="201" y="794" on="1"/>
        <pt x="147" y="794" on="0"/>
        <pt x="119" y="845" on="1"/>
        <pt x="103" y="871" on="0"/>
        <pt x="103" y="897" on="1"/>
        <pt x="103" y="949" on="0"/>
        <pt x="165" y="985" on="1"/>
        <pt x="196" y="1003" on="0"/>
        <pt x="276" y="1022" on="0"/>
        <pt x="359" y="1037" on="1"/>
        <pt x="431" y="1049" on="0"/>
        <pt x="479" y="1060" on="1"/>
        <pt x="360" y="1082" on="1"/>
        <pt x="278" y="1096" on="0"/>
        <pt x="195" y="1117" on="0"/>
        <pt x="164" y="1134" on="1"/>
        <pt x="103" y="1170" on="0"/>
        <pt x="103" y="1223" on="1"/>
        <pt x="103" y="1251" on="0"/>
        <pt x="119" y="1277" on="1"/>
        <pt x="148" y="1327" on="0"/>
        <pt x="198" y="1327" on="1"/>
        <pt x="229" y="1327" on="0"/>
        <pt x="263" y="1307" on="1"/>
        <pt x="295" y="1289" on="0"/>
        <pt x="355" y="1226" on="0"/>
        <pt x="407" y="1164" on="1"/>
        <pt x="448" y="1114" on="0"/>
        <pt x="486" y="1071" on="1"/>
        <pt x="476" y="1103" on="0"/>
        <pt x="444" y="1188" on="1"/>
        <pt x="416" y="1265" on="0"/>
        <pt x="392" y="1347" on="0"/>
        <pt x="392" y="1382" on="1"/>
        <pt x="392" y="1439" on="0"/>
        <pt x="451" y="1493" on="0"/>
        <pt x="493" y="1493" on="1"/>
        <pt x="534" y="1493" on="0"/>
        <pt x="591" y="1439" on="0"/>
        <pt x="591" y="1382" on="1"/>
        <pt x="591" y="1347" on="0"/>
        <pt x="568" y="1265" on="0"/>
        <pt x="541" y="1194" on="1"/>
        <pt x="522" y="1142" on="0"/>
        <pt x="499" y="1074" on="1"/>
        <pt x="501" y="1077" on="0"/>
        <pt x="578" y="1166" on="1"/>
        <pt x="627" y="1225" on="0"/>
        <pt x="690" y="1291" on="0"/>
        <pt x="720" y="1309" on="1"/>
        <pt x="753" y="1328" on="0"/>
        <pt x="785" y="1328" on="1"/>
        <pt x="840" y="1328" on="0"/>
        <pt x="866" y="1277" on="1"/>
        <pt x="882" y="1251" on="0"/>
        <pt x="882" y="1224" on="1"/>
        <pt x="882" y="1172" on="0"/>
        <pt x="820" y="1136" on="1"/>
        <pt x="789" y="1118" on="0"/>
        <pt x="707" y="1098" on="0"/>
        <pt x="633" y="1085" on="1"/>
        <pt x="561" y="1073" on="0"/>
        <pt x="509" y="1062" on="1"/>
        <pt x="562" y="1051" on="0"/>
        <pt x="626" y="1040" on="1"/>
        <pt x="708" y="1026" on="0"/>
        <pt x="791" y="1005" on="0"/>
        <pt x="821" y="988" on="1"/>
      </contour>
    </TTGlyph>
    <TTGlyph name="at" xMin="92" yMin="-330" xMax="1744" yMax="1368">
      <contour>
        <pt x="977" y="53" on="0"/>
        <pt x="977" y="194" on="1"/>
        <pt x="977" y="234" on="0"/>
        <pt x="989" y="284" on="1"/>
        <pt x="935" y="163" on="0"/>
        <pt x="790" y="53" on="0"/>
        <pt x="698" y="53" on="1"/>
        <pt x="587" y="53" on="0"/>
        <pt x="461" y="189" on="0"/>
        <pt x="461" y="319" on="1"/>
        <pt x="461" y="464" on="0"/>
        <pt x="601" y="774" on="0"/>
        <pt x="828" y="979" on="0"/>
        <pt x="951" y="979" on="1"/>
        <pt x="1015" y="979" on="0"/>
        <pt x="1096" y="912" on="0"/>
        <pt x="1109" y="857" on="1"/>
        <pt x="1128" y="950" on="1"/>
        <pt x="1291" y="950" on="0"/>
        <pt x="1387" y="979" on="1"/>
        <pt x="1225" y="240" on="1"/>
        <pt x="1215" y="200" on="0"/>
        <pt x="1214" y="175" on="1"/>
        <pt x="1214" y="165" on="1"/>
        <pt x="1214" y="118" on="0"/>
        <pt x="1247" y="118" on="1"/>
        <pt x="1256" y="118" on="0"/>
        <pt x="1273" y="123" on="1"/>
        <pt x="1366" y="150" on="0"/>
        <pt x="1566" y="330" on="0"/>
        <pt x="1704" y="622" on="0"/>
        <pt x="1704" y="807" on="1"/>
        <pt x="1704" y="989" on="0"/>
        <pt x="1542" y="1223" on="0"/>
        <pt x="1268" y="1331" on="0"/>
        <pt x="1095" y="1331" on="1"/>
        <pt x="845" y="1331" on="0"/>
        <pt x="401" y="1046" on="0"/>
        <pt x="133" y="569" on="0"/>
        <pt x="133" y="297" on="1"/>
        <pt x="133" y="93" on="0"/>
        <pt x="292" y="-171" on="0"/>
        <pt x="573" y="-293" on="0"/>
        <pt x="759" y="-293" on="1"/>
        <pt x="996" y="-293" on="0"/>
        <pt x="1181" y="-182" on="1"/>
        <pt x="1196" y="-209" on="1"/>
        <pt x="1116" y="-265" on="0"/>
        <pt x="890" y="-330" on="0"/>
        <pt x="757" y="-330" on="1"/>
        <pt x="558" y="-330" on="0"/>
        <pt x="259" y="-197" on="0"/>
        <pt x="92" y="82" on="0"/>
        <pt x="92" y="293" on="1"/>
        <pt x="92" y="566" on="0"/>
        <pt x="361" y="1064" on="0"/>
        <pt x="822" y="1368" on="0"/>
        <pt x="1093" y="1368" on="1"/>
        <pt x="1282" y="1368" on="0"/>
        <pt x="1575" y="1249" on="0"/>
        <pt x="1744" y="997" on="0"/>
        <pt x="1744" y="805" on="1"/>
        <pt x="1744" y="587" on="0"/>
        <pt x="1558" y="243" on="0"/>
        <pt x="1275" y="53" on="0"/>
        <pt x="1138" y="53" on="1"/>
      </contour>
      <contour>
        <pt x="870" y="152" on="0"/>
        <pt x="983" y="312" on="0"/>
        <pt x="1029" y="462" on="1"/>
        <pt x="1093" y="778" on="1"/>
        <pt x="1093" y="831" on="0"/>
        <pt x="1045" y="907" on="0"/>
        <pt x="1001" y="907" on="1"/>
        <pt x="936" y="907" on="0"/>
        <pt x="806" y="733" on="0"/>
        <pt x="723" y="460" on="0"/>
        <pt x="723" y="322" on="1"/>
        <pt x="723" y="230" on="0"/>
        <pt x="766" y="152" on="0"/>
        <pt x="808" y="152" on="1"/>
      </contour>
    </TTGlyph>
    <TTGlyph name="at.case" xMin="92" yMin="-219" xMax="1744" yMax="1479">
      <component glyphName=".ttfautohint" x="92" y="0" flags="0x0"/>
      <component glyphName="at" x="0" y="111" flags="0x0"/>
    </TTGlyph>
    <TTGlyph name="at.smcp" xMin="85" yMin="-330" xMax="1737" yMax="1368">
      <component glyphName=".ttfautohint" x="85" y="0" flags="0x0"/>
      <component glyphName="at" x="-7" y="0" flags="0x0"/>
    </TTGlyph>
    <TTGlyph name="atilde" xMin="-23" yMin="0" xMax="1300" yMax="1741">
      <component glyphName=".ttfautohint" x="0" y="0" flags="0x0"/>
      <component glyphName="a" x="0" y="0" flags="0x0"/>
      <component glyphName="tilde.smcp" x="141" y="0" flags="0x0"/>
    </TTGlyph>
    <TTGlyph name="b" xMin="70" yMin="0" xMax="1262" yMax="1245">
      <contour>
        <pt x="1048" y="637" on="0"/>
        <pt x="1262" y="465" on="0"/>
        <pt x="1262" y="336" on="1"/>
        <pt x="1262" y="231" on="0"/>
        <pt x="1136" y="80" on="0"/>
        <pt x="892" y="0" on="0"/>
        <pt x="717" y="0" on="1"/>
        <pt x="617" y="2" on="1"/>
        <pt x="481" y="6" on="0"/>
        <pt x="349" y="6" on="1"/>
        <pt x="163" y="6" on="0"/>
        <pt x="70" y="0" on="1"/>
        <pt x="70" y="41" on="1"/>
        <pt x="139" y="44" on="0"/>
        <pt x="201" y="70" on="0"/>
        <pt x="224" y="140" on="0"/>
        <pt x="224" y="217" on="1"/>
        <pt x="224" y="1028" on="1"/>
        <pt x="224" y="1106" on="0"/>
        <pt x="201" y="1176" on="0"/>
        <pt x="139" y="1201" on="0"/>
        <pt x="70" y="1204" on="1"/>
        <pt x="70" y="1245" on="1"/>
        <pt x="163" y="1239" on="0"/>
        <pt x="344" y="1239" on="1"/>
        <pt x="383" y="1239" on="0"/>
        <pt x="578" y="1242" on="1"/>
        <pt x="670" y="1243" on="1"/>
        <pt x="916" y="1243" on="0"/>
        <pt x="1155" y="1098" on="0"/>
        <pt x="1155" y="963" on="1"/>
        <pt x="1155" y="857" on="0"/>
        <pt x="984" y="709" on="0"/>
        <pt x="791" y="668" on="1"/>
        <pt x="791" y="664" on="1"/>
      </contour>
      <contour>
        <pt x="598" y="1204" on="0"/>
        <pt x="554" y="1175" on="0"/>
        <pt x="537" y="1101" on="0"/>
        <pt x="537" y="1028" on="1"/>
        <pt x="537" y="668" on="1"/>
        <pt x="605" y="668" on="1"/>
        <pt x="735" y="668" on="0"/>
        <pt x="836" y="811" on="0"/>
        <pt x="836" y="940" on="1"/>
        <pt x="836" y="1073" on="0"/>
        <pt x="745" y="1204" on="0"/>
        <pt x="643" y="1204" on="1"/>
      </contour>
      <contour>
        <pt x="795" y="47" on="0"/>
        <pt x="934" y="197" on="0"/>
        <pt x="934" y="344" on="1"/>
        <pt x="934" y="487" on="0"/>
        <pt x="794" y="633" on="0"/>
        <pt x="639" y="633" on="1"/>
        <pt x="537" y="633" on="1"/>
        <pt x="537" y="217" on="1"/>
        <pt x="537" y="143" on="0"/>
        <pt x="554" y="73" on="0"/>
        <pt x="599" y="47" on="0"/>
        <pt x="646" y="47" on="1"/>
      </contour>
    </TTGlyph>
    <TTGlyph name="backslash" xMin="63" yMin="-29" xMax="688" yMax="1479">
      <component glyphName=".ttfautohint" x="63" y="0" flags="0x0"/>
      <component glyphName="slash" x="754" y="0" scalex="-1.0" scaley="1.0" flags="0x0"/>
    </TTGlyph>
    <TTGlyph name="bar" xMin="169" yMin="-399" xMax="349" yMax="1757">
      <contour>
        <pt x="169" y="-399" on="1"/>
        <pt x="169" y="1757" on="1"/>
        <pt x="349" y="1757" on="1"/>
        <pt x="349" y="-399" on="1"/>
      </contour>
    </TTGlyph>
    <TTGlyph name="blacksquare" xMin="175" yMin="104" xMax="988" yMax="956">
      <contour>
        <pt x="175" y="104" on="1"/>
        <pt x="175" y="956" on="1"/>
        <pt x="988" y="956" on="1"/>
        <pt x="988" y="104" on="1"/>
      </contour>
    </TTGlyph>
    <TTGlyph name="blacksquare.case" xMin="165" yMin="303" xMax="1019" yMax="1155">
      <contour>
        <pt x="165" y="303" on="1"/>
        <pt x="165" y="1155" on="1"/>
        <pt x="1019" y="1155" on="1"/>
        <pt x="1019" y="303" on="1"/>
      </contour>
    </TTGlyph>
    <TTGlyph name="blacksquare.smcp" xMin="191" yMin="197" xMax="1045" yMax="1049">
      <contour>
        <pt x="191" y="197" on="1"/>
        <pt x="191" y="1049" on="1"/>
        <pt x="1045" y="1049" on="1"/>
        <pt x="1045" y="197" on="1"/>
      </contour>
    </TTGlyph>
    <TTGlyph name="braceleft" xMin="36" yMin="-385" xMax="648" yMax="1602">
      <contour>
        <pt x="582" y="1561" on="0"/>
        <pt x="521" y="1503" on="0"/>
        <pt x="496" y="1325" on="0"/>
        <pt x="496" y="1128" on="1"/>
        <pt x="496" y="954" on="0"/>
        <pt x="388" y="742" on="0"/>
        <pt x="213" y="638" on="0"/>
        <pt x="93" y="612" on="1"/>
        <pt x="213" y="586" on="0"/>
        <pt x="387" y="482" on="0"/>
        <pt x="496" y="269" on="0"/>
        <pt x="496" y="96" on="1"/>
        <pt x="496" y="-108" on="0"/>
        <pt x="521" y="-289" on="0"/>
        <pt x="581" y="-345" on="0"/>
        <pt x="648" y="-346" on="1"/>
        <pt x="648" y="-385" on="1"/>
        <pt x="478" y="-385" on="0"/>
        <pt x="288" y="-300" on="0"/>
        <pt x="202" y="-94" on="0"/>
        <pt x="202" y="96" on="1"/>
        <pt x="202" y="293" on="0"/>
        <pt x="176" y="500" on="0"/>
        <pt x="110" y="589" on="0"/>
        <pt x="46" y="594" on="1"/>
        <pt x="36" y="594" on="1"/>
        <pt x="36" y="631" on="1"/>
        <pt x="46" y="631" on="1"/>
        <pt x="110" y="635" on="0"/>
        <pt x="176" y="723" on="0"/>
        <pt x="202" y="930" on="0"/>
        <pt x="202" y="1128" on="1"/>
        <pt x="202" y="1310" on="0"/>
        <pt x="288" y="1515" on="0"/>
        <pt x="480" y="1602" on="0"/>
        <pt x="648" y="1602" on="1"/>
        <pt x="648" y="1563" on="1"/>
      </contour>
    </TTGlyph>
    <TTGlyph name="braceleft.case" xMin="40" yMin="-152" xMax="621" yMax="1602">
      <contour>
        <pt x="571" y="1561" on="0"/>
        <pt x="525" y="1510" on="0"/>
        <pt x="507" y="1362" on="0"/>
        <pt x="507" y="1202" on="1"/>
        <pt x="507" y="1039" on="0"/>
        <pt x="407" y="844" on="0"/>
        <pt x="230" y="750" on="0"/>
        <pt x="97" y="727" on="1"/>
        <pt x="229" y="704" on="0"/>
        <pt x="406" y="609" on="0"/>
        <pt x="507" y="414" on="0"/>
        <pt x="507" y="252" on="1"/>
        <pt x="507" y="84" on="0"/>
        <pt x="525" y="-65" on="0"/>
        <pt x="571" y="-112" on="0"/>
        <pt x="621" y="-113" on="1"/>
        <pt x="621" y="-152" on="1"/>
        <pt x="465" y="-152" on="0"/>
        <pt x="287" y="-79" on="0"/>
        <pt x="206" y="96" on="0"/>
        <pt x="206" y="252" on="1"/>
        <pt x="206" y="432" on="0"/>
        <pt x="180" y="621" on="0"/>
        <pt x="114" y="703" on="0"/>
        <pt x="50" y="709" on="1"/>
        <pt x="40" y="709" on="1"/>
        <pt x="40" y="745" on="1"/>
        <pt x="50" y="745" on="1"/>
        <pt x="114" y="750" on="0"/>
        <pt x="180" y="831" on="0"/>
        <pt x="206" y="1021" on="0"/>
        <pt x="206" y="1202" on="1"/>
        <pt x="206" y="1350" on="0"/>
        <pt x="287" y="1524" on="0"/>
        <pt x="468" y="1602" on="0"/>
        <pt x="621" y="1602" on="1"/>
        <pt x="621" y="1563" on="1"/>
      </contour>
    </TTGlyph>
    <TTGlyph name="braceleft.smcp" xMin="50" yMin="-119" xMax="662" yMax="1364">
      <contour>
        <pt x="597" y="1323" on="0"/>
        <pt x="535" y="1280" on="0"/>
        <pt x="510" y="1157" on="0"/>
        <pt x="510" y="1026" on="1"/>
        <pt x="510" y="886" on="0"/>
        <pt x="402" y="723" on="0"/>
        <pt x="230" y="648" on="0"/>
        <pt x="107" y="627" on="1"/>
        <pt x="230" y="606" on="0"/>
        <pt x="402" y="531" on="0"/>
        <pt x="510" y="367" on="0"/>
        <pt x="510" y="227" on="1"/>
        <pt x="510" y="93" on="0"/>
        <pt x="535" y="-33" on="0"/>
        <pt x="597" y="-78" on="0"/>
        <pt x="662" y="-80" on="1"/>
        <pt x="662" y="-119" on="1"/>
        <pt x="496" y="-119" on="0"/>
        <pt x="302" y="-51" on="0"/>
        <pt x="215" y="99" on="0"/>
        <pt x="215" y="227" on="1"/>
        <pt x="215" y="383" on="0"/>
        <pt x="189" y="540" on="0"/>
        <pt x="125" y="604" on="0"/>
        <pt x="60" y="608" on="1"/>
        <pt x="50" y="608" on="1"/>
        <pt x="50" y="645" on="1"/>
        <pt x="60" y="645" on="1"/>
        <pt x="125" y="649" on="0"/>
        <pt x="189" y="713" on="0"/>
        <pt x="215" y="870" on="0"/>
        <pt x="215" y="1026" on="1"/>
        <pt x="215" y="1152" on="0"/>
        <pt x="302" y="1298" on="0"/>
        <pt x="496" y="1364" on="0"/>
        <pt x="662" y="1364" on="1"/>
        <pt x="662" y="1325" on="1"/>
      </contour>
    </TTGlyph>
    <TTGlyph name="braceright" xMin="35" yMin="-385" xMax="647" yMax="1602">
      <component glyphName=".ttfautohint" x="35" y="0" flags="0x0"/>
      <component glyphName="braceleft" x="683" y="0" scalex="-1.0" scaley="1.0" flags="0x0"/>
    </TTGlyph>
    <TTGlyph name="braceright.case" xMin="56" yMin="-152" xMax="637" yMax="1602">
      <component glyphName=".ttfautohint" x="56" y="0" flags="0x0"/>
      <component glyphName="braceleft.case" x="677" y="0" scalex="-1.0" scaley="1.0" flags="0x0"/>
    </TTGlyph>
    <TTGlyph name="braceright.smcp" xMin="55" yMin="-119" xMax="667" yMax="1364">
      <component glyphName=".ttfautohint" x="55" y="0" flags="0x0"/>
      <component glyphName="braceleft.smcp" x="717" y="0" scalex="-1.0" scaley="1.0" flags="0x0"/>
    </TTGlyph>
    <TTGlyph name="bracketleft" xMin="171" yMin="-371" xMax="583" yMax="1581">
      <contour>
        <pt x="466" y="1542" on="1"/>
        <pt x="466" y="-332" on="1"/>
        <pt x="583" y="-332" on="1"/>
        <pt x="583" y="-371" on="1"/>
        <pt x="171" y="-371" on="1"/>
        <pt x="171" y="1581" on="1"/>
        <pt x="583" y="1581" on="1"/>
        <pt x="583" y="1542" on="1"/>
      </contour>
    </TTGlyph>
    <TTGlyph name="bracketleft.case" xMin="175" yMin="-131" xMax="593" yMax="1581">
      <contour>
        <pt x="476" y="1542" on="1"/>
        <pt x="476" y="-92" on="1"/>
        <pt x="593" y="-92" on="1"/>
        <pt x="593" y="-131" on="1"/>
        <pt x="175" y="-131" on="1"/>
        <pt x="175" y="1581" on="1"/>
        <pt x="593" y="1581" on="1"/>
        <pt x="593" y="1542" on="1"/>
      </contour>
    </TTGlyph>
    <TTGlyph name="bracketleft.smcp" xMin="186" yMin="-111" xMax="597" yMax="1356">
      <contour>
        <pt x="480" y="1317" on="1"/>
        <pt x="480" y="-72" on="1"/>
        <pt x="597" y="-72" on="1"/>
        <pt x="597" y="-111" on="1"/>
        <pt x="186" y="-111" on="1"/>
        <pt x="186" y="1356" on="1"/>
        <pt x="597" y="1356" on="1"/>
        <pt x="597" y="1317" on="1"/>
      </contour>
    </TTGlyph>
    <TTGlyph name="bracketright" xMin="77" yMin="-371" xMax="489" yMax="1581">
      <component glyphName=".ttfautohint" x="77" y="0" flags="0x0"/>
      <component glyphName="bracketleft" x="660" y="0" scalex="-1.0" scaley="1.0" flags="0x0"/>
    </TTGlyph>
    <TTGlyph name="bracketright.case" xMin="80" yMin="-131" xMax="498" yMax="1581">
      <component glyphName=".ttfautohint" x="80" y="0" flags="0x0"/>
      <component glyphName="bracketleft.case" x="673" y="0" scalex="-1.0" scaley="1.0" flags="0x0"/>
    </TTGlyph>
    <TTGlyph name="bracketright.smcp" xMin="90" yMin="-111" xMax="501" yMax="1356">
      <component glyphName=".ttfautohint" x="90" y="0" flags="0x0"/>
      <component glyphName="bracketleft.smcp" x="687" y="0" scalex="-1.0" scaley="1.0" flags="0x0"/>
    </TTGlyph>
    <TTGlyph name="breve" xMin="47" yMin="1272" xMax="829" yMax="1614">
      <contour>
        <pt x="784" y="1460" on="0"/>
        <pt x="592" y="1272" on="0"/>
        <pt x="438" y="1272" on="1"/>
        <pt x="285" y="1272" on="0"/>
        <pt x="92" y="1461" on="0"/>
        <pt x="47" y="1595" on="1"/>
        <pt x="82" y="1614" on="1"/>
        <pt x="213" y="1466" on="0"/>
        <pt x="438" y="1466" on="1"/>
        <pt x="662" y="1466" on="0"/>
        <pt x="795" y="1614" on="1"/>
        <pt x="829" y="1595" on="1"/>
      </contour>
    </TTGlyph>
    <TTGlyph name="breve.case" xMin="-10" yMin="1578" xMax="903" yMax="1875">
      <contour>
        <pt x="871" y="1784" on="0"/>
        <pt x="749" y="1659" on="0"/>
        <pt x="564" y="1578" on="0"/>
        <pt x="446" y="1578" on="1"/>
        <pt x="329" y="1578" on="0"/>
        <pt x="144" y="1659" on="0"/>
        <pt x="22" y="1784" on="0"/>
        <pt x="-10" y="1853" on="1"/>
        <pt x="15" y="1874" on="1"/>
        <pt x="83" y="1823" on="0"/>
        <pt x="297" y="1751" on="0"/>
        <pt x="446" y="1751" on="1"/>
        <pt x="712" y="1751" on="0"/>
        <pt x="879" y="1875" on="1"/>
        <pt x="903" y="1853" on="1"/>
      </contour>
    </TTGlyph>
    <TTGlyph name="breve.smcp" xMin="10" yMin="1400" xMax="907" yMax="1697">
      <contour>
        <pt x="876" y="1605" on="0"/>
        <pt x="756" y="1481" on="0"/>
        <pt x="575" y="1400" on="0"/>
        <pt x="459" y="1400" on="1"/>
        <pt x="343" y="1400" on="0"/>
        <pt x="161" y="1481" on="0"/>
        <pt x="42" y="1605" on="0"/>
        <pt x="10" y="1674" on="1"/>
        <pt x="36" y="1696" on="1"/>
        <pt x="102" y="1645" on="0"/>
        <pt x="312" y="1572" on="0"/>
        <pt x="459" y="1572" on="1"/>
        <pt x="605" y="1572" on="0"/>
        <pt x="815" y="1645" on="0"/>
        <pt x="883" y="1697" on="1"/>
        <pt x="907" y="1674" on="1"/>
      </contour>
    </TTGlyph>
    <TTGlyph name="brevecy" xMin="41" yMin="1247" xMax="899" yMax="1631">
      <contour>
        <pt x="815" y="1631" on="0"/>
        <pt x="899" y="1547" on="0"/>
        <pt x="899" y="1481" on="1"/>
        <pt x="899" y="1431" on="0"/>
        <pt x="838" y="1347" on="0"/>
        <pt x="789" y="1319" on="1"/>
        <pt x="667" y="1247" on="0"/>
        <pt x="469" y="1247" on="1"/>
        <pt x="270" y="1247" on="0"/>
        <pt x="148" y="1319" on="1"/>
        <pt x="100" y="1347" on="0"/>
        <pt x="41" y="1431" on="0"/>
        <pt x="41" y="1481" on="1"/>
        <pt x="41" y="1547" on="0"/>
        <pt x="124" y="1631" on="0"/>
        <pt x="191" y="1631" on="1"/>
        <pt x="233" y="1631" on="0"/>
        <pt x="303" y="1593" on="0"/>
        <pt x="343" y="1524" on="0"/>
        <pt x="343" y="1480" on="1"/>
        <pt x="343" y="1427" on="0"/>
        <pt x="281" y="1352" on="0"/>
        <pt x="230" y="1336" on="1"/>
        <pt x="277" y="1311" on="0"/>
        <pt x="408" y="1288" on="0"/>
        <pt x="469" y="1288" on="1"/>
        <pt x="530" y="1288" on="0"/>
        <pt x="661" y="1312" on="0"/>
        <pt x="707" y="1337" on="1"/>
        <pt x="656" y="1352" on="0"/>
        <pt x="597" y="1427" on="0"/>
        <pt x="597" y="1480" on="1"/>
        <pt x="597" y="1547" on="0"/>
        <pt x="683" y="1631" on="0"/>
        <pt x="749" y="1631" on="1"/>
      </contour>
    </TTGlyph>
    <TTGlyph name="brevecy.case" xMin="41" yMin="1577" xMax="1006" yMax="1936">
      <contour>
        <pt x="889" y="1936" on="0"/>
        <pt x="964" y="1901" on="0"/>
        <pt x="1006" y="1839" on="0"/>
        <pt x="1006" y="1800" on="1"/>
        <pt x="1006" y="1711" on="0"/>
        <pt x="883" y="1649" on="1"/>
        <pt x="820" y="1617" on="0"/>
        <pt x="635" y="1577" on="0"/>
        <pt x="523" y="1577" on="1"/>
        <pt x="409" y="1577" on="0"/>
        <pt x="224" y="1617" on="0"/>
        <pt x="161" y="1649" on="1"/>
        <pt x="41" y="1710" on="0"/>
        <pt x="41" y="1800" on="1"/>
        <pt x="41" y="1838" on="0"/>
        <pt x="82" y="1900" on="0"/>
        <pt x="155" y="1936" on="0"/>
        <pt x="202" y="1936" on="1"/>
        <pt x="274" y="1936" on="0"/>
        <pt x="368" y="1859" on="0"/>
        <pt x="368" y="1799" on="1"/>
        <pt x="368" y="1747" on="0"/>
        <pt x="298" y="1679" on="0"/>
        <pt x="242" y="1666" on="1"/>
        <pt x="297" y="1641" on="0"/>
        <pt x="450" y="1618" on="0"/>
        <pt x="523" y="1618" on="1"/>
        <pt x="594" y="1618" on="0"/>
        <pt x="748" y="1642" on="0"/>
        <pt x="802" y="1667" on="1"/>
        <pt x="745" y="1681" on="0"/>
        <pt x="679" y="1749" on="0"/>
        <pt x="679" y="1799" on="1"/>
        <pt x="679" y="1859" on="0"/>
        <pt x="772" y="1936" on="0"/>
        <pt x="843" y="1936" on="1"/>
      </contour>
    </TTGlyph>
    <TTGlyph name="brevecy.smcp" xMin="41" yMin="1407" xMax="1006" yMax="1766">
      <contour>
        <pt x="889" y="1766" on="0"/>
        <pt x="964" y="1731" on="0"/>
        <pt x="1006" y="1669" on="0"/>
        <pt x="1006" y="1630" on="1"/>
        <pt x="1006" y="1542" on="0"/>
        <pt x="883" y="1478" on="1"/>
        <pt x="820" y="1446" on="0"/>
        <pt x="635" y="1407" on="0"/>
        <pt x="523" y="1407" on="1"/>
        <pt x="410" y="1407" on="0"/>
        <pt x="224" y="1446" on="0"/>
        <pt x="161" y="1478" on="1"/>
        <pt x="41" y="1539" on="0"/>
        <pt x="41" y="1630" on="1"/>
        <pt x="41" y="1668" on="0"/>
        <pt x="82" y="1730" on="0"/>
        <pt x="155" y="1766" on="0"/>
        <pt x="202" y="1766" on="1"/>
        <pt x="274" y="1766" on="0"/>
        <pt x="368" y="1689" on="0"/>
        <pt x="368" y="1628" on="1"/>
        <pt x="368" y="1577" on="0"/>
        <pt x="298" y="1509" on="0"/>
        <pt x="242" y="1495" on="1"/>
        <pt x="296" y="1470" on="0"/>
        <pt x="449" y="1448" on="0"/>
        <pt x="523" y="1448" on="1"/>
        <pt x="596" y="1448" on="0"/>
        <pt x="748" y="1471" on="0"/>
        <pt x="802" y="1497" on="1"/>
        <pt x="745" y="1510" on="0"/>
        <pt x="679" y="1578" on="0"/>
        <pt x="679" y="1628" on="1"/>
        <pt x="679" y="1689" on="0"/>
        <pt x="772" y="1766" on="0"/>
        <pt x="843" y="1766" on="1"/>
      </contour>
    </TTGlyph>
    <TTGlyph name="brokenbar" xMin="172" yMin="-399" xMax="353" yMax="1757">
      <contour>
        <pt x="172" y="786" on="1"/>
        <pt x="172" y="1757" on="1"/>
        <pt x="353" y="1757" on="1"/>
        <pt x="353" y="786" on="1"/>
      </contour>
      <contour>
        <pt x="172" y="-399" on="1"/>
        <pt x="172" y="668" on="1"/>
        <pt x="353" y="668" on="1"/>
        <pt x="353" y="-399" on="1"/>
      </contour>
    </TTGlyph>
    <TTGlyph name="bullet" xMin="152" yMin="207" xMax="842" yMax="897">
      <contour>
        <pt x="590" y="897" on="0"/>
        <pt x="749" y="804" on="0"/>
        <pt x="842" y="645" on="0"/>
        <pt x="842" y="551" on="1"/>
        <pt x="842" y="457" on="0"/>
        <pt x="749" y="299" on="0"/>
        <pt x="590" y="207" on="0"/>
        <pt x="496" y="207" on="1"/>
        <pt x="402" y="207" on="0"/>
        <pt x="244" y="299" on="0"/>
        <pt x="152" y="457" on="0"/>
        <pt x="152" y="551" on="1"/>
        <pt x="152" y="645" on="0"/>
        <pt x="244" y="804" on="0"/>
        <pt x="402" y="897" on="0"/>
        <pt x="496" y="897" on="1"/>
      </contour>
    </TTGlyph>
    <TTGlyph name="bullet.case" xMin="151" yMin="384" xMax="841" yMax="1074">
      <component glyphName=".ttfautohint" x="151" y="384" flags="0x0"/>
      <component glyphName="bullet" x="-1" y="177" flags="0x0"/>
    </TTGlyph>
    <TTGlyph name="bullet.smcp" xMin="137" yMin="292" xMax="827" yMax="982">
      <component glyphName=".ttfautohint" x="137" y="292" flags="0x0"/>
      <component glyphName="bullet" x="-15" y="85" flags="0x0"/>
    </TTGlyph>
</ttFont>
